STARTFONT 2.1
FONT -inesw-CozetteHiDpiCrossedSeven-Medium-R-Normal--26-240-75-75-M-120-ISO10646-1
SIZE 24 150 150
FONTBOUNDINGBOX 26 30 -2 -6
COMMENT "Generated by fontforge, http://fontforge.sourceforge.net"
COMMENT "(c) 2020-2025 Ines @ the.moonwit.ch"
STARTPROPERTIES 40
FOUNDRY "inesw"
FAMILY_NAME "Cozette"
WEIGHT_NAME "Medium"
SLANT "R"
SETWIDTH_NAME "Normal"
ADD_STYLE_NAME ""
PIXEL_SIZE 26
POINT_SIZE 240
RESOLUTION_X 75
RESOLUTION_Y 75
SPACING "M"
AVERAGE_WIDTH 120
CHARSET_REGISTRY "ISO10646"
CHARSET_ENCODING "1"
FONTNAME_REGISTRY ""
FONT_NAME "CozetteHiDpiCrossedSeven"
FACE_NAME "CozetteHiDpiCrossedSeven"
COPYRIGHT "(c) 2020-2025 Ines <ines@moonwit.ch>"
FONT_VERSION "1.300"
FONT_ASCENT 20
FONT_DESCENT 6
UNDERLINE_POSITION -38
UNDERLINE_THICKNESS 26
X_HEIGHT 10
CAP_HEIGHT 14
DEFAULT_CHAR 0
RAW_ASCENT 1538
RAW_DESCENT 460
NORM_SPACE 12
RELATIVE_WEIGHT 50
RELATIVE_SETWIDTH 50
SUPERSCRIPT_X 0
SUPERSCRIPT_Y 4
SUPERSCRIPT_SIZE 4
SUBSCRIPT_X 0
SUBSCRIPT_Y 4
SUBSCRIPT_SIZE 4
FIGURE_WIDTH 12
AVG_LOWERCASE_WIDTH 120
AVG_UPPERCASE_WIDTH 60
ENDPROPERTIES
CHARS 6046
STARTCHAR uni0000
ENCODING 0
SWIDTH 500 0
DWIDTH 12 0
BBX 14 26 0 -6
BITMAP
CCCC
CCCC
0000
0000
C00C
C00C
0000
0000
C00C
C00C
0000
0000
C00C
C00C
0000
0000
C00C
C00C
0000
0000
C00C
C00C
0000
0000
CCCC
CCCC
ENDCHAR
STARTCHAR uni0001
ENCODING 1
SWIDTH 500 0
DWIDTH 12 0
BBX 10 12 2 2
BITMAP
FFC0
FFC0
C0C0
C0C0
C0C0
C0C0
C0C0
C0C0
C0C0
C0C0
FFC0
FFC0
ENDCHAR
STARTCHAR uni0002
ENCODING 2
SWIDTH 500 0
DWIDTH 12 0
BBX 10 12 2 2
BITMAP
FFC0
FFC0
C0C0
C0C0
C0C0
C0C0
C0C0
C0C0
C0C0
C0C0
FFC0
FFC0
ENDCHAR
STARTCHAR uni0003
ENCODING 3
SWIDTH 500 0
DWIDTH 12 0
BBX 10 12 2 2
BITMAP
FFC0
FFC0
C0C0
C0C0
C0C0
C0C0
C0C0
C0C0
C0C0
C0C0
FFC0
FFC0
ENDCHAR
STARTCHAR uni0004
ENCODING 4
SWIDTH 500 0
DWIDTH 12 0
BBX 10 12 2 2
BITMAP
FFC0
FFC0
C0C0
C0C0
C0C0
C0C0
C0C0
C0C0
C0C0
C0C0
FFC0
FFC0
ENDCHAR
STARTCHAR uni0005
ENCODING 5
SWIDTH 500 0
DWIDTH 12 0
BBX 10 12 2 2
BITMAP
FFC0
FFC0
C0C0
C0C0
C0C0
C0C0
C0C0
C0C0
C0C0
C0C0
FFC0
FFC0
ENDCHAR
STARTCHAR uni0006
ENCODING 6
SWIDTH 500 0
DWIDTH 12 0
BBX 10 12 2 2
BITMAP
FFC0
FFC0
C0C0
C0C0
C0C0
C0C0
C0C0
C0C0
C0C0
C0C0
FFC0
FFC0
ENDCHAR
STARTCHAR uni0007
ENCODING 7
SWIDTH 500 0
DWIDTH 12 0
BBX 10 12 2 2
BITMAP
FFC0
FFC0
C0C0
C0C0
C0C0
C0C0
C0C0
C0C0
C0C0
C0C0
FFC0
FFC0
ENDCHAR
STARTCHAR uni0008
ENCODING 8
SWIDTH 500 0
DWIDTH 12 0
BBX 10 12 2 2
BITMAP
FFC0
FFC0
C0C0
C0C0
C0C0
C0C0
C0C0
C0C0
C0C0
C0C0
FFC0
FFC0
ENDCHAR
STARTCHAR uni0009
ENCODING 9
SWIDTH 500 0
DWIDTH 14 0
BBX 2 2 0 0
BITMAP
0000
0000
ENDCHAR
STARTCHAR uni000A
ENCODING 10
SWIDTH 500 0
DWIDTH 12 0
BBX 10 12 2 2
BITMAP
FFC0
FFC0
C0C0
C0C0
C0C0
C0C0
C0C0
C0C0
C0C0
C0C0
FFC0
FFC0
ENDCHAR
STARTCHAR uni000B
ENCODING 11
SWIDTH 500 0
DWIDTH 12 0
BBX 10 12 2 2
BITMAP
FFC0
FFC0
C0C0
C0C0
C0C0
C0C0
C0C0
C0C0
C0C0
C0C0
FFC0
FFC0
ENDCHAR
STARTCHAR uni000C
ENCODING 12
SWIDTH 500 0
DWIDTH 12 0
BBX 10 12 2 2
BITMAP
FFC0
FFC0
C0C0
C0C0
C0C0
C0C0
C0C0
C0C0
C0C0
C0C0
FFC0
FFC0
ENDCHAR
STARTCHAR uni000D
ENCODING 13
SWIDTH 500 0
DWIDTH 12 0
BBX 10 12 2 2
BITMAP
FFC0
FFC0
C0C0
C0C0
C0C0
C0C0
C0C0
C0C0
C0C0
C0C0
FFC0
FFC0
ENDCHAR
STARTCHAR uni000E
ENCODING 14
SWIDTH 500 0
DWIDTH 12 0
BBX 8 14 0 6
BITMAP
0300
0300
0300
0300
0300
0300
0300
0300
0300
0300
0300
0300
FF00
FF00
ENDCHAR
STARTCHAR uni000F
ENCODING 15
SWIDTH 500 0
DWIDTH 12 0
BBX 8 14 6 6
BITMAP
C000
C000
C000
C000
C000
C000
C000
C000
C000
C000
C000
C000
FF00
FF00
ENDCHAR
STARTCHAR uni0010
ENCODING 16
SWIDTH 500 0
DWIDTH 12 0
BBX 8 14 6 -6
BITMAP
FF00
FF00
C000
C000
C000
C000
C000
C000
C000
C000
C000
C000
C000
C000
ENDCHAR
STARTCHAR uni0011
ENCODING 17
SWIDTH 500 0
DWIDTH 12 0
BBX 8 14 0 -6
BITMAP
FF00
FF00
0300
0300
0300
0300
0300
0300
0300
0300
0300
0300
0300
0300
ENDCHAR
STARTCHAR uni0012
ENCODING 18
SWIDTH 500 0
DWIDTH 12 0
BBX 14 2 0 6
BITMAP
FFFC
FFFC
ENDCHAR
STARTCHAR uni0013
ENCODING 19
SWIDTH 500 0
DWIDTH 12 0
BBX 2 26 6 -6
BITMAP
C000
C000
C000
C000
C000
C000
C000
C000
C000
C000
C000
C000
C000
C000
C000
C000
C000
C000
C000
C000
C000
C000
C000
C000
C000
C000
ENDCHAR
STARTCHAR uni0014
ENCODING 20
SWIDTH 500 0
DWIDTH 12 0
BBX 8 26 0 -6
BITMAP
0300
0300
0300
0300
0300
0300
0300
0300
0300
0300
0300
0300
FF00
FF00
0300
0300
0300
0300
0300
0300
0300
0300
0300
0300
0300
0300
ENDCHAR
STARTCHAR uni0015
ENCODING 21
SWIDTH 500 0
DWIDTH 12 0
BBX 14 14 0 6
BITMAP
0300
0300
0300
0300
0300
0300
0300
0300
0300
0300
0300
0300
FFFC
FFFC
ENDCHAR
STARTCHAR uni0016
ENCODING 22
SWIDTH 500 0
DWIDTH 12 0
BBX 8 26 6 -6
BITMAP
C000
C000
C000
C000
C000
C000
C000
C000
C000
C000
C000
C000
FF00
FF00
C000
C000
C000
C000
C000
C000
C000
C000
C000
C000
C000
C000
ENDCHAR
STARTCHAR uni0017
ENCODING 23
SWIDTH 500 0
DWIDTH 12 0
BBX 14 14 0 -6
BITMAP
FFFC
FFFC
0300
0300
0300
0300
0300
0300
0300
0300
0300
0300
0300
0300
ENDCHAR
STARTCHAR uni0018
ENCODING 24
SWIDTH 500 0
DWIDTH 12 0
BBX 14 26 0 -6
BITMAP
0300
0300
0300
0300
0300
0300
0300
0300
0300
0300
0300
0300
FFFC
FFFC
0300
0300
0300
0300
0300
0300
0300
0300
0300
0300
0300
0300
ENDCHAR
STARTCHAR uni0019
ENCODING 25
SWIDTH 500 0
DWIDTH 12 0
BBX 14 26 0 -6
BITMAP
CCCC
CCCC
3330
3330
CCCC
CCCC
3330
3330
CCCC
CCCC
3330
3330
CCCC
CCCC
3330
3330
CCCC
CCCC
3330
3330
CCCC
CCCC
3330
3330
CCCC
CCCC
ENDCHAR
STARTCHAR uni001A
ENCODING 26
SWIDTH 500 0
DWIDTH 12 0
BBX 10 10 2 2
BITMAP
0300
0300
FFC0
FFC0
0C00
0C00
FFC0
FFC0
3000
3000
ENDCHAR
STARTCHAR uni001B
ENCODING 27
SWIDTH 500 0
DWIDTH 12 0
BBX 10 14 2 0
BITMAP
03C0
03C0
3C00
3C00
C000
C000
3C00
3C00
03C0
03C0
0000
0000
FFC0
FFC0
ENDCHAR
STARTCHAR uni001C
ENCODING 28
SWIDTH 500 0
DWIDTH 12 0
BBX 10 12 2 0
BITMAP
FFC0
FFC0
3300
3300
3300
3300
3300
3300
3300
3300
3300
3300
ENDCHAR
STARTCHAR uni001D
ENCODING 29
SWIDTH 500 0
DWIDTH 12 0
BBX 10 14 2 0
BITMAP
F000
F000
0F00
0F00
00C0
00C0
0F00
0F00
F000
F000
0000
0000
FFC0
FFC0
ENDCHAR
STARTCHAR uni001E
ENCODING 30
SWIDTH 500 0
DWIDTH 12 0
BBX 10 16 2 0
BITMAP
0F00
0F00
3000
3000
3000
3000
FF00
FF00
3000
3000
3000
3000
C000
C000
FFC0
FFC0
ENDCHAR
STARTCHAR uni001F
ENCODING 31
SWIDTH 500 0
DWIDTH 12 0
BBX 6 2 4 6
BITMAP
FC00
FC00
ENDCHAR
STARTCHAR space
ENCODING 32
SWIDTH 500 0
DWIDTH 12 0
BBX 2 2 12 -2
BITMAP
0000
0000
ENDCHAR
STARTCHAR exclam
ENCODING 33
SWIDTH 500 0
DWIDTH 12 0
BBX 2 16 6 0
BITMAP
C000
C000
C000
C000
C000
C000
C000
C000
C000
C000
C000
C000
0000
0000
C000
C000
ENDCHAR
STARTCHAR quotedbl
ENCODING 34
SWIDTH 500 0
DWIDTH 12 0
BBX 6 6 4 12
BITMAP
CC00
CC00
CC00
CC00
CC00
CC00
ENDCHAR
STARTCHAR numbersign
ENCODING 35
SWIDTH 500 0
DWIDTH 12 0
BBX 10 16 2 0
BITMAP
3300
3300
3300
3300
FFC0
FFC0
3300
3300
3300
3300
FFC0
FFC0
3300
3300
3300
3300
ENDCHAR
STARTCHAR dollar
ENCODING 36
SWIDTH 500 0
DWIDTH 12 0
BBX 10 20 2 -2
BITMAP
0C00
0C00
3F00
3F00
CCC0
CCC0
CC00
CC00
3F00
3F00
0CC0
0CC0
0CC0
0CC0
CCC0
CCC0
3F00
3F00
0C00
0C00
ENDCHAR
STARTCHAR percent
ENCODING 37
SWIDTH 500 0
DWIDTH 12 0
BBX 10 18 2 0
BITMAP
3000
3000
CC00
CC00
30C0
30C0
0300
0300
0C00
0C00
3000
3000
C300
C300
0CC0
0CC0
0300
0300
ENDCHAR
STARTCHAR ampersand
ENCODING 38
SWIDTH 500 0
DWIDTH 12 0
BBX 10 18 2 0
BITMAP
0C00
0C00
3300
3300
3300
3300
0C00
0C00
3CC0
3CC0
C300
C300
C300
C300
C300
C300
3CC0
3CC0
ENDCHAR
STARTCHAR quotesingle
ENCODING 39
SWIDTH 500 0
DWIDTH 12 0
BBX 2 6 6 12
BITMAP
C000
C000
C000
C000
C000
C000
ENDCHAR
STARTCHAR parenleft
ENCODING 40
SWIDTH 500 0
DWIDTH 12 0
BBX 6 22 4 -4
BITMAP
0C00
0C00
3000
3000
3000
3000
C000
C000
C000
C000
C000
C000
C000
C000
C000
C000
3000
3000
3000
3000
0C00
0C00
ENDCHAR
STARTCHAR parenright
ENCODING 41
SWIDTH 500 0
DWIDTH 12 0
BBX 6 22 4 -4
BITMAP
C000
C000
3000
3000
3000
3000
0C00
0C00
0C00
0C00
0C00
0C00
0C00
0C00
0C00
0C00
3000
3000
3000
3000
C000
C000
ENDCHAR
STARTCHAR asterisk
ENCODING 42
SWIDTH 500 0
DWIDTH 12 0
BBX 10 10 2 2
BITMAP
3300
3300
0C00
0C00
FFC0
FFC0
0C00
0C00
3300
3300
ENDCHAR
STARTCHAR plus
ENCODING 43
SWIDTH 500 0
DWIDTH 12 0
BBX 10 10 2 2
BITMAP
0C00
0C00
0C00
0C00
FFC0
FFC0
0C00
0C00
0C00
0C00
ENDCHAR
STARTCHAR comma
ENCODING 44
SWIDTH 500 0
DWIDTH 12 0
BBX 4 8 4 -4
BITMAP
F000
F000
F000
F000
3000
3000
C000
C000
ENDCHAR
STARTCHAR hyphen
ENCODING 45
SWIDTH 500 0
DWIDTH 12 0
BBX 10 2 2 6
BITMAP
FFC0
FFC0
ENDCHAR
STARTCHAR period
ENCODING 46
SWIDTH 500 0
DWIDTH 12 0
BBX 4 4 4 0
BITMAP
F000
F000
F000
F000
ENDCHAR
STARTCHAR slash
ENCODING 47
SWIDTH 500 0
DWIDTH 12 0
BBX 10 20 2 -2
BITMAP
00C0
00C0
00C0
00C0
0300
0300
0300
0300
0C00
0C00
0C00
0C00
3000
3000
3000
3000
C000
C000
C000
C000
ENDCHAR
STARTCHAR zero
ENCODING 48
SWIDTH 500 0
DWIDTH 12 0
BBX 10 16 2 0
BITMAP
3F00
3F00
C0C0
C0C0
C0C0
C0C0
CCC0
CCC0
CCC0
CCC0
C0C0
C0C0
C0C0
C0C0
3F00
3F00
ENDCHAR
STARTCHAR one
ENCODING 49
SWIDTH 500 0
DWIDTH 12 0
BBX 10 16 2 0
BITMAP
0C00
0C00
3C00
3C00
CC00
CC00
0C00
0C00
0C00
0C00
0C00
0C00
0C00
0C00
FFC0
FFC0
ENDCHAR
STARTCHAR two
ENCODING 50
SWIDTH 500 0
DWIDTH 12 0
BBX 10 16 2 0
BITMAP
3F00
3F00
C0C0
C0C0
00C0
00C0
0300
0300
0C00
0C00
3000
3000
C000
C000
FFC0
FFC0
ENDCHAR
STARTCHAR three
ENCODING 51
SWIDTH 500 0
DWIDTH 12 0
BBX 10 16 2 0
BITMAP
3F00
3F00
C0C0
C0C0
00C0
00C0
0F00
0F00
00C0
00C0
00C0
00C0
C0C0
C0C0
3F00
3F00
ENDCHAR
STARTCHAR four
ENCODING 52
SWIDTH 500 0
DWIDTH 12 0
BBX 12 16 2 0
BITMAP
00C0
00C0
03C0
03C0
0CC0
0CC0
30C0
30C0
C0C0
C0C0
FFF0
FFF0
00C0
00C0
00C0
00C0
ENDCHAR
STARTCHAR five
ENCODING 53
SWIDTH 500 0
DWIDTH 12 0
BBX 10 16 2 0
BITMAP
FFC0
FFC0
C000
C000
C000
C000
FF00
FF00
00C0
00C0
00C0
00C0
C0C0
C0C0
3F00
3F00
ENDCHAR
STARTCHAR six
ENCODING 54
SWIDTH 500 0
DWIDTH 12 0
BBX 10 16 2 0
BITMAP
0F00
0F00
3000
3000
C000
C000
FF00
FF00
C0C0
C0C0
C0C0
C0C0
C0C0
C0C0
3F00
3F00
ENDCHAR
STARTCHAR seven
ENCODING 55
SWIDTH 500 0
DWIDTH 12 0
BBX 10 16 2 0
BITMAP
FFC0
FFC0
00C0
00C0
0300
0300
0C00
0C00
3FC0
3FC0
0C00
0C00
3000
3000
3000
3000
ENDCHAR
STARTCHAR eight
ENCODING 56
SWIDTH 500 0
DWIDTH 12 0
BBX 10 16 2 0
BITMAP
3F00
3F00
C0C0
C0C0
C0C0
C0C0
3F00
3F00
C0C0
C0C0
C0C0
C0C0
C0C0
C0C0
3F00
3F00
ENDCHAR
STARTCHAR nine
ENCODING 57
SWIDTH 500 0
DWIDTH 12 0
BBX 10 16 2 0
BITMAP
3F00
3F00
C0C0
C0C0
C0C0
C0C0
C0C0
C0C0
3FC0
3FC0
00C0
00C0
0300
0300
3C00
3C00
ENDCHAR
STARTCHAR colon
ENCODING 58
SWIDTH 500 0
DWIDTH 12 0
BBX 4 12 4 0
BITMAP
F000
F000
F000
F000
0000
0000
0000
0000
F000
F000
F000
F000
ENDCHAR
STARTCHAR semicolon
ENCODING 59
SWIDTH 500 0
DWIDTH 12 0
BBX 4 16 4 -4
BITMAP
F000
F000
F000
F000
0000
0000
0000
0000
F000
F000
F000
F000
3000
3000
C000
C000
ENDCHAR
STARTCHAR less
ENCODING 60
SWIDTH 500 0
DWIDTH 12 0
BBX 8 14 4 0
BITMAP
0300
0300
0C00
0C00
3000
3000
C000
C000
3000
3000
0C00
0C00
0300
0300
ENDCHAR
STARTCHAR equal
ENCODING 61
SWIDTH 500 0
DWIDTH 12 0
BBX 10 6 2 4
BITMAP
FFC0
FFC0
0000
0000
FFC0
FFC0
ENDCHAR
STARTCHAR greater
ENCODING 62
SWIDTH 500 0
DWIDTH 12 0
BBX 8 14 2 0
BITMAP
C000
C000
3000
3000
0C00
0C00
0300
0300
0C00
0C00
3000
3000
C000
C000
ENDCHAR
STARTCHAR question
ENCODING 63
SWIDTH 500 0
DWIDTH 12 0
BBX 10 16 2 0
BITMAP
3F00
3F00
C0C0
C0C0
00C0
00C0
0300
0300
0C00
0C00
0C00
0C00
0000
0000
0C00
0C00
ENDCHAR
STARTCHAR at
ENCODING 64
SWIDTH 500 0
DWIDTH 12 0
BBX 10 16 2 0
BITMAP
3F00
3F00
C0C0
C0C0
C0C0
C0C0
CFC0
CFC0
CCC0
CCC0
CFC0
CFC0
C000
C000
3FC0
3FC0
ENDCHAR
STARTCHAR A
ENCODING 65
SWIDTH 500 0
DWIDTH 12 0
BBX 10 16 2 0
BITMAP
3F00
3F00
C0C0
C0C0
C0C0
C0C0
C0C0
C0C0
FFC0
FFC0
C0C0
C0C0
C0C0
C0C0
C0C0
C0C0
ENDCHAR
STARTCHAR B
ENCODING 66
SWIDTH 500 0
DWIDTH 12 0
BBX 10 16 2 0
BITMAP
FF00
FF00
C0C0
C0C0
C0C0
C0C0
FF00
FF00
C0C0
C0C0
C0C0
C0C0
C0C0
C0C0
FF00
FF00
ENDCHAR
STARTCHAR C
ENCODING 67
SWIDTH 500 0
DWIDTH 12 0
BBX 10 16 2 0
BITMAP
3F00
3F00
C0C0
C0C0
C000
C000
C000
C000
C000
C000
C000
C000
C0C0
C0C0
3F00
3F00
ENDCHAR
STARTCHAR D
ENCODING 68
SWIDTH 500 0
DWIDTH 12 0
BBX 10 16 2 0
BITMAP
FC00
FC00
C300
C300
C0C0
C0C0
C0C0
C0C0
C0C0
C0C0
C0C0
C0C0
C300
C300
FC00
FC00
ENDCHAR
STARTCHAR E
ENCODING 69
SWIDTH 500 0
DWIDTH 12 0
BBX 10 16 2 0
BITMAP
FFC0
FFC0
C000
C000
C000
C000
FF00
FF00
C000
C000
C000
C000
C000
C000
FFC0
FFC0
ENDCHAR
STARTCHAR F
ENCODING 70
SWIDTH 500 0
DWIDTH 12 0
BBX 10 16 2 0
BITMAP
FFC0
FFC0
C000
C000
C000
C000
FF00
FF00
C000
C000
C000
C000
C000
C000
C000
C000
ENDCHAR
STARTCHAR G
ENCODING 71
SWIDTH 500 0
DWIDTH 12 0
BBX 10 16 2 0
BITMAP
3F00
3F00
C0C0
C0C0
C000
C000
C000
C000
C3C0
C3C0
C0C0
C0C0
C0C0
C0C0
3F00
3F00
ENDCHAR
STARTCHAR H
ENCODING 72
SWIDTH 500 0
DWIDTH 12 0
BBX 10 16 2 0
BITMAP
C0C0
C0C0
C0C0
C0C0
C0C0
C0C0
FFC0
FFC0
C0C0
C0C0
C0C0
C0C0
C0C0
C0C0
C0C0
C0C0
ENDCHAR
STARTCHAR I
ENCODING 73
SWIDTH 500 0
DWIDTH 12 0
BBX 6 16 4 0
BITMAP
FC00
FC00
3000
3000
3000
3000
3000
3000
3000
3000
3000
3000
3000
3000
FC00
FC00
ENDCHAR
STARTCHAR J
ENCODING 74
SWIDTH 500 0
DWIDTH 12 0
BBX 10 16 2 0
BITMAP
0FC0
0FC0
00C0
00C0
00C0
00C0
00C0
00C0
00C0
00C0
C0C0
C0C0
C0C0
C0C0
3F00
3F00
ENDCHAR
STARTCHAR K
ENCODING 75
SWIDTH 500 0
DWIDTH 12 0
BBX 10 16 2 0
BITMAP
C0C0
C0C0
C300
C300
CC00
CC00
FC00
FC00
C300
C300
C300
C300
C0C0
C0C0
C0C0
C0C0
ENDCHAR
STARTCHAR L
ENCODING 76
SWIDTH 500 0
DWIDTH 12 0
BBX 10 16 2 0
BITMAP
C000
C000
C000
C000
C000
C000
C000
C000
C000
C000
C000
C000
C000
C000
FFC0
FFC0
ENDCHAR
STARTCHAR M
ENCODING 77
SWIDTH 500 0
DWIDTH 12 0
BBX 10 16 2 0
BITMAP
C0C0
C0C0
F3C0
F3C0
CCC0
CCC0
CCC0
CCC0
C0C0
C0C0
C0C0
C0C0
C0C0
C0C0
C0C0
C0C0
ENDCHAR
STARTCHAR N
ENCODING 78
SWIDTH 500 0
DWIDTH 12 0
BBX 10 16 2 0
BITMAP
C0C0
C0C0
F0C0
F0C0
F0C0
F0C0
CCC0
CCC0
CCC0
CCC0
C3C0
C3C0
C3C0
C3C0
C0C0
C0C0
ENDCHAR
STARTCHAR O
ENCODING 79
SWIDTH 500 0
DWIDTH 12 0
BBX 10 16 2 0
BITMAP
3F00
3F00
C0C0
C0C0
C0C0
C0C0
C0C0
C0C0
C0C0
C0C0
C0C0
C0C0
C0C0
C0C0
3F00
3F00
ENDCHAR
STARTCHAR P
ENCODING 80
SWIDTH 500 0
DWIDTH 12 0
BBX 10 16 2 0
BITMAP
FF00
FF00
C0C0
C0C0
C0C0
C0C0
C0C0
C0C0
FF00
FF00
C000
C000
C000
C000
C000
C000
ENDCHAR
STARTCHAR Q
ENCODING 81
SWIDTH 500 0
DWIDTH 12 0
BBX 10 18 2 -2
BITMAP
3F00
3F00
C0C0
C0C0
C0C0
C0C0
C0C0
C0C0
C0C0
C0C0
C0C0
C0C0
C300
C300
3CC0
3CC0
00C0
00C0
ENDCHAR
STARTCHAR R
ENCODING 82
SWIDTH 500 0
DWIDTH 12 0
BBX 10 16 2 0
BITMAP
FF00
FF00
C0C0
C0C0
C0C0
C0C0
FF00
FF00
C300
C300
C0C0
C0C0
C0C0
C0C0
C0C0
C0C0
ENDCHAR
STARTCHAR S
ENCODING 83
SWIDTH 500 0
DWIDTH 12 0
BBX 10 16 2 0
BITMAP
3F00
3F00
C0C0
C0C0
C000
C000
3F00
3F00
00C0
00C0
00C0
00C0
C0C0
C0C0
3F00
3F00
ENDCHAR
STARTCHAR T
ENCODING 84
SWIDTH 500 0
DWIDTH 12 0
BBX 10 16 2 0
BITMAP
FFC0
FFC0
0C00
0C00
0C00
0C00
0C00
0C00
0C00
0C00
0C00
0C00
0C00
0C00
0C00
0C00
ENDCHAR
STARTCHAR U
ENCODING 85
SWIDTH 500 0
DWIDTH 12 0
BBX 10 16 2 0
BITMAP
C0C0
C0C0
C0C0
C0C0
C0C0
C0C0
C0C0
C0C0
C0C0
C0C0
C0C0
C0C0
C0C0
C0C0
3F00
3F00
ENDCHAR
STARTCHAR V
ENCODING 86
SWIDTH 500 0
DWIDTH 12 0
BBX 10 16 2 0
BITMAP
C0C0
C0C0
C0C0
C0C0
C0C0
C0C0
3300
3300
3300
3300
3300
3300
0C00
0C00
0C00
0C00
ENDCHAR
STARTCHAR W
ENCODING 87
SWIDTH 500 0
DWIDTH 12 0
BBX 10 16 2 0
BITMAP
C0C0
C0C0
C0C0
C0C0
C0C0
C0C0
CCC0
CCC0
CCC0
CCC0
3F00
3F00
3300
3300
3300
3300
ENDCHAR
STARTCHAR X
ENCODING 88
SWIDTH 500 0
DWIDTH 12 0
BBX 10 16 2 0
BITMAP
C0C0
C0C0
C0C0
C0C0
3300
3300
0C00
0C00
0C00
0C00
3300
3300
C0C0
C0C0
C0C0
C0C0
ENDCHAR
STARTCHAR Y
ENCODING 89
SWIDTH 500 0
DWIDTH 12 0
BBX 10 16 2 0
BITMAP
C0C0
C0C0
C0C0
C0C0
C0C0
C0C0
3300
3300
0C00
0C00
0C00
0C00
0C00
0C00
0C00
0C00
ENDCHAR
STARTCHAR Z
ENCODING 90
SWIDTH 500 0
DWIDTH 12 0
BBX 10 16 2 0
BITMAP
FFC0
FFC0
0300
0300
0C00
0C00
0C00
0C00
3000
3000
3000
3000
C000
C000
FFC0
FFC0
ENDCHAR
STARTCHAR bracketleft
ENCODING 91
SWIDTH 500 0
DWIDTH 12 0
BBX 6 22 4 -4
BITMAP
FC00
FC00
C000
C000
C000
C000
C000
C000
C000
C000
C000
C000
C000
C000
C000
C000
C000
C000
C000
C000
FC00
FC00
ENDCHAR
STARTCHAR backslash
ENCODING 92
SWIDTH 500 0
DWIDTH 12 0
BBX 10 20 2 -2
BITMAP
C000
C000
C000
C000
3000
3000
3000
3000
0C00
0C00
0C00
0C00
0300
0300
0300
0300
00C0
00C0
00C0
00C0
ENDCHAR
STARTCHAR bracketright
ENCODING 93
SWIDTH 500 0
DWIDTH 12 0
BBX 6 22 4 -4
BITMAP
FC00
FC00
0C00
0C00
0C00
0C00
0C00
0C00
0C00
0C00
0C00
0C00
0C00
0C00
0C00
0C00
0C00
0C00
0C00
0C00
FC00
FC00
ENDCHAR
STARTCHAR asciicircum
ENCODING 94
SWIDTH 500 0
DWIDTH 12 0
BBX 10 6 2 14
BITMAP
0C00
0C00
3300
3300
C0C0
C0C0
ENDCHAR
STARTCHAR underscore
ENCODING 95
SWIDTH 500 0
DWIDTH 12 0
BBX 10 2 2 -2
BITMAP
FFC0
FFC0
ENDCHAR
STARTCHAR grave
ENCODING 96
SWIDTH 500 0
DWIDTH 12 0
BBX 4 4 4 14
BITMAP
C000
C000
3000
3000
ENDCHAR
STARTCHAR a
ENCODING 97
SWIDTH 500 0
DWIDTH 12 0
BBX 10 12 2 0
BITMAP
3FC0
3FC0
C0C0
C0C0
C0C0
C0C0
C0C0
C0C0
C3C0
C3C0
3CC0
3CC0
ENDCHAR
STARTCHAR b
ENCODING 98
SWIDTH 500 0
DWIDTH 12 0
BBX 10 18 2 0
BITMAP
C000
C000
C000
C000
C000
C000
FF00
FF00
C0C0
C0C0
C0C0
C0C0
C0C0
C0C0
C0C0
C0C0
FF00
FF00
ENDCHAR
STARTCHAR c
ENCODING 99
SWIDTH 500 0
DWIDTH 12 0
BBX 10 12 2 0
BITMAP
3F00
3F00
C0C0
C0C0
C000
C000
C000
C000
C0C0
C0C0
3F00
3F00
ENDCHAR
STARTCHAR d
ENCODING 100
SWIDTH 500 0
DWIDTH 12 0
BBX 10 18 2 0
BITMAP
00C0
00C0
00C0
00C0
00C0
00C0
3FC0
3FC0
C0C0
C0C0
C0C0
C0C0
C0C0
C0C0
C0C0
C0C0
3FC0
3FC0
ENDCHAR
STARTCHAR e
ENCODING 101
SWIDTH 500 0
DWIDTH 12 0
BBX 10 12 2 0
BITMAP
3F00
3F00
C0C0
C0C0
FFC0
FFC0
C000
C000
C0C0
C0C0
3F00
3F00
ENDCHAR
STARTCHAR f
ENCODING 102
SWIDTH 500 0
DWIDTH 12 0
BBX 10 18 2 0
BITMAP
0FC0
0FC0
3000
3000
3000
3000
FF00
FF00
3000
3000
3000
3000
3000
3000
3000
3000
3000
3000
ENDCHAR
STARTCHAR g
ENCODING 103
SWIDTH 500 0
DWIDTH 12 0
BBX 10 18 2 -6
BITMAP
3FC0
3FC0
C0C0
C0C0
C0C0
C0C0
C0C0
C0C0
C0C0
C0C0
3FC0
3FC0
00C0
00C0
00C0
00C0
3F00
3F00
ENDCHAR
STARTCHAR h
ENCODING 104
SWIDTH 500 0
DWIDTH 12 0
BBX 10 18 2 0
BITMAP
C000
C000
C000
C000
C000
C000
FF00
FF00
C0C0
C0C0
C0C0
C0C0
C0C0
C0C0
C0C0
C0C0
C0C0
C0C0
ENDCHAR
STARTCHAR i
ENCODING 105
SWIDTH 500 0
DWIDTH 12 0
BBX 8 16 4 0
BITMAP
3000
3000
0000
0000
F000
F000
3000
3000
3000
3000
3000
3000
3000
3000
0F00
0F00
ENDCHAR
STARTCHAR j
ENCODING 106
SWIDTH 500 0
DWIDTH 12 0
BBX 6 20 4 -4
BITMAP
0C00
0C00
0000
0000
3C00
3C00
0C00
0C00
0C00
0C00
0C00
0C00
0C00
0C00
0C00
0C00
CC00
CC00
3000
3000
ENDCHAR
STARTCHAR k
ENCODING 107
SWIDTH 500 0
DWIDTH 12 0
BBX 10 18 2 0
BITMAP
C000
C000
C000
C000
C000
C000
C0C0
C0C0
C300
C300
CC00
CC00
FC00
FC00
C300
C300
C0C0
C0C0
ENDCHAR
STARTCHAR l
ENCODING 108
SWIDTH 500 0
DWIDTH 12 0
BBX 6 18 4 0
BITMAP
F000
F000
3000
3000
3000
3000
3000
3000
3000
3000
3000
3000
3000
3000
3000
3000
3C00
3C00
ENDCHAR
STARTCHAR m
ENCODING 109
SWIDTH 500 0
DWIDTH 12 0
BBX 10 12 2 0
BITMAP
F300
F300
CCC0
CCC0
CCC0
CCC0
CCC0
CCC0
CCC0
CCC0
CCC0
CCC0
ENDCHAR
STARTCHAR n
ENCODING 110
SWIDTH 500 0
DWIDTH 12 0
BBX 10 12 2 0
BITMAP
FF00
FF00
C0C0
C0C0
C0C0
C0C0
C0C0
C0C0
C0C0
C0C0
C0C0
C0C0
ENDCHAR
STARTCHAR o
ENCODING 111
SWIDTH 500 0
DWIDTH 12 0
BBX 10 12 2 0
BITMAP
3F00
3F00
C0C0
C0C0
C0C0
C0C0
C0C0
C0C0
C0C0
C0C0
3F00
3F00
ENDCHAR
STARTCHAR p
ENCODING 112
SWIDTH 500 0
DWIDTH 12 0
BBX 10 18 2 -6
BITMAP
FF00
FF00
C0C0
C0C0
C0C0
C0C0
C0C0
C0C0
C0C0
C0C0
FF00
FF00
C000
C000
C000
C000
C000
C000
ENDCHAR
STARTCHAR q
ENCODING 113
SWIDTH 500 0
DWIDTH 12 0
BBX 12 18 2 -6
BITMAP
3FC0
3FC0
C0C0
C0C0
C0C0
C0C0
C0C0
C0C0
C0C0
C0C0
3FC0
3FC0
00C0
00C0
00C0
00C0
00F0
00F0
ENDCHAR
STARTCHAR r
ENCODING 114
SWIDTH 500 0
DWIDTH 12 0
BBX 10 12 2 0
BITMAP
FF00
FF00
C0C0
C0C0
C000
C000
C000
C000
C000
C000
C000
C000
ENDCHAR
STARTCHAR s
ENCODING 115
SWIDTH 500 0
DWIDTH 12 0
BBX 10 12 2 0
BITMAP
3FC0
3FC0
C000
C000
3F00
3F00
00C0
00C0
00C0
00C0
FF00
FF00
ENDCHAR
STARTCHAR t
ENCODING 116
SWIDTH 500 0
DWIDTH 12 0
BBX 10 16 2 0
BITMAP
3000
3000
3000
3000
FF00
FF00
3000
3000
3000
3000
3000
3000
3000
3000
0FC0
0FC0
ENDCHAR
STARTCHAR u
ENCODING 117
SWIDTH 500 0
DWIDTH 12 0
BBX 10 12 2 0
BITMAP
C0C0
C0C0
C0C0
C0C0
C0C0
C0C0
C0C0
C0C0
C0C0
C0C0
3FC0
3FC0
ENDCHAR
STARTCHAR v
ENCODING 118
SWIDTH 500 0
DWIDTH 12 0
BBX 10 12 2 0
BITMAP
C0C0
C0C0
C0C0
C0C0
3300
3300
3300
3300
0C00
0C00
0C00
0C00
ENDCHAR
STARTCHAR w
ENCODING 119
SWIDTH 500 0
DWIDTH 12 0
BBX 10 12 2 0
BITMAP
C0C0
C0C0
C0C0
C0C0
CCC0
CCC0
CCC0
CCC0
3300
3300
3300
3300
ENDCHAR
STARTCHAR x
ENCODING 120
SWIDTH 500 0
DWIDTH 12 0
BBX 10 12 2 0
BITMAP
C0C0
C0C0
3300
3300
0C00
0C00
0C00
0C00
3300
3300
C0C0
C0C0
ENDCHAR
STARTCHAR y
ENCODING 121
SWIDTH 500 0
DWIDTH 12 0
BBX 10 18 2 -6
BITMAP
C0C0
C0C0
C0C0
C0C0
C0C0
C0C0
C0C0
C0C0
C0C0
C0C0
3FC0
3FC0
00C0
00C0
00C0
00C0
3F00
3F00
ENDCHAR
STARTCHAR z
ENCODING 122
SWIDTH 500 0
DWIDTH 12 0
BBX 10 12 2 0
BITMAP
FFC0
FFC0
0300
0300
0C00
0C00
3000
3000
C000
C000
FFC0
FFC0
ENDCHAR
STARTCHAR braceleft
ENCODING 123
SWIDTH 500 0
DWIDTH 12 0
BBX 10 22 2 -4
BITMAP
03C0
03C0
0C00
0C00
0C00
0C00
0C00
0C00
0C00
0C00
F000
F000
0C00
0C00
0C00
0C00
0C00
0C00
0C00
0C00
03C0
03C0
ENDCHAR
STARTCHAR bar
ENCODING 124
SWIDTH 500 0
DWIDTH 12 0
BBX 2 22 6 -4
BITMAP
C000
C000
C000
C000
C000
C000
C000
C000
C000
C000
C000
C000
C000
C000
C000
C000
C000
C000
C000
C000
C000
C000
ENDCHAR
STARTCHAR braceright
ENCODING 125
SWIDTH 500 0
DWIDTH 12 0
BBX 10 22 2 -4
BITMAP
F000
F000
0C00
0C00
0C00
0C00
0C00
0C00
0C00
0C00
03C0
03C0
0C00
0C00
0C00
0C00
0C00
0C00
0C00
0C00
F000
F000
ENDCHAR
STARTCHAR asciitilde
ENCODING 126
SWIDTH 500 0
DWIDTH 12 0
BBX 10 6 2 4
BITMAP
30C0
30C0
CCC0
CCC0
C300
C300
ENDCHAR
STARTCHAR uni007F
ENCODING 127
SWIDTH 500 0
DWIDTH 12 0
BBX 2 2 0 0
BITMAP
0000
0000
ENDCHAR
STARTCHAR uni00A0
ENCODING 160
SWIDTH 500 0
DWIDTH 12 0
BBX 2 2 12 -2
BITMAP
0000
0000
ENDCHAR
STARTCHAR exclamdown
ENCODING 161
SWIDTH 500 0
DWIDTH 12 0
BBX 2 16 6 -4
BITMAP
C000
C000
0000
0000
C000
C000
C000
C000
C000
C000
C000
C000
C000
C000
C000
C000
ENDCHAR
STARTCHAR cent
ENCODING 162
SWIDTH 500 0
DWIDTH 12 0
BBX 10 16 2 -2
BITMAP
0C00
0C00
3F00
3F00
CCC0
CCC0
CC00
CC00
CC00
CC00
CCC0
CCC0
3F00
3F00
0C00
0C00
ENDCHAR
STARTCHAR sterling
ENCODING 163
SWIDTH 500 0
DWIDTH 12 0
BBX 10 16 2 0
BITMAP
0F00
0F00
3000
3000
3000
3000
FF00
FF00
3000
3000
3000
3000
3000
3000
CFC0
CFC0
ENDCHAR
STARTCHAR currency
ENCODING 164
SWIDTH 500 0
DWIDTH 12 0
BBX 10 12 2 0
BITMAP
C0C0
C0C0
3F00
3F00
3300
3300
3300
3300
3F00
3F00
C0C0
C0C0
ENDCHAR
STARTCHAR yen
ENCODING 165
SWIDTH 500 0
DWIDTH 12 0
BBX 10 18 2 0
BITMAP
C0C0
C0C0
C0C0
C0C0
C0C0
C0C0
3300
3300
0C00
0C00
FFC0
FFC0
0C00
0C00
FFC0
FFC0
0C00
0C00
ENDCHAR
STARTCHAR brokenbar
ENCODING 166
SWIDTH 500 0
DWIDTH 12 0
BBX 2 22 6 -4
BITMAP
C000
C000
C000
C000
C000
C000
C000
C000
0000
0000
0000
0000
0000
0000
C000
C000
C000
C000
C000
C000
C000
C000
ENDCHAR
STARTCHAR section
ENCODING 167
SWIDTH 500 0
DWIDTH 12 0
BBX 10 20 2 -2
BITMAP
3F00
3F00
C0C0
C0C0
C000
C000
3C00
3C00
3300
3300
3300
3300
0F00
0F00
00C0
00C0
C0C0
C0C0
3F00
3F00
ENDCHAR
STARTCHAR dieresis
ENCODING 168
SWIDTH 500 0
DWIDTH 12 0
BBX 6 2 4 16
BITMAP
CC00
CC00
ENDCHAR
STARTCHAR copyright
ENCODING 169
SWIDTH 500 0
DWIDTH 12 0
BBX 14 14 0 0
BITMAP
0FC0
0FC0
3030
3030
CFCC
CFCC
CC0C
CC0C
CFCC
CFCC
3030
3030
0FC0
0FC0
ENDCHAR
STARTCHAR ordfeminine
ENCODING 170
SWIDTH 500 0
DWIDTH 12 0
BBX 8 10 4 6
BITMAP
3C00
3C00
0300
0300
3F00
3F00
C300
C300
3F00
3F00
ENDCHAR
STARTCHAR guillemotleft
ENCODING 171
SWIDTH 500 0
DWIDTH 12 0
BBX 10 10 2 2
BITMAP
0CC0
0CC0
3300
3300
CC00
CC00
3300
3300
0CC0
0CC0
ENDCHAR
STARTCHAR logicalnot
ENCODING 172
SWIDTH 500 0
DWIDTH 12 0
BBX 8 8 2 0
BITMAP
FF00
FF00
0300
0300
0300
0300
0300
0300
ENDCHAR
STARTCHAR uni00AD
ENCODING 173
SWIDTH 500 0
DWIDTH 12 0
BBX 6 2 4 6
BITMAP
FC00
FC00
ENDCHAR
STARTCHAR registered
ENCODING 174
SWIDTH 500 0
DWIDTH 12 0
BBX 14 14 0 0
BITMAP
0FC0
0FC0
3030
3030
CFCC
CFCC
CC0C
CC0C
CC0C
CC0C
3030
3030
0FC0
0FC0
ENDCHAR
STARTCHAR macron
ENCODING 175
SWIDTH 500 0
DWIDTH 12 0
BBX 14 2 0 18
BITMAP
FFFC
FFFC
ENDCHAR
STARTCHAR degree
ENCODING 176
SWIDTH 500 0
DWIDTH 12 0
BBX 8 8 2 8
BITMAP
3C00
3C00
C300
C300
C300
C300
3C00
3C00
ENDCHAR
STARTCHAR plusminus
ENCODING 177
SWIDTH 500 0
DWIDTH 12 0
BBX 10 14 2 0
BITMAP
0C00
0C00
0C00
0C00
FFC0
FFC0
0C00
0C00
0C00
0C00
0000
0000
FFC0
FFC0
ENDCHAR
STARTCHAR uni00B2
ENCODING 178
SWIDTH 500 0
DWIDTH 12 0
BBX 8 10 2 8
BITMAP
3C00
3C00
C300
C300
0C00
0C00
3000
3000
FF00
FF00
ENDCHAR
STARTCHAR uni00B3
ENCODING 179
SWIDTH 500 0
DWIDTH 12 0
BBX 8 10 2 8
BITMAP
FC00
FC00
0300
0300
3C00
3C00
0300
0300
FC00
FC00
ENDCHAR
STARTCHAR acute
ENCODING 180
SWIDTH 500 0
DWIDTH 12 0
BBX 4 4 6 14
BITMAP
3000
3000
C000
C000
ENDCHAR
STARTCHAR mu
ENCODING 181
SWIDTH 500 0
DWIDTH 12 0
BBX 10 16 2 -4
BITMAP
30C0
30C0
30C0
30C0
30C0
30C0
30C0
30C0
3CC0
3CC0
3300
3300
3000
3000
C000
C000
ENDCHAR
STARTCHAR paragraph
ENCODING 182
SWIDTH 500 0
DWIDTH 12 0
BBX 10 18 2 -2
BITMAP
3FC0
3FC0
FCC0
FCC0
FCC0
FCC0
3CC0
3CC0
0CC0
0CC0
0CC0
0CC0
0CC0
0CC0
0CC0
0CC0
0CC0
0CC0
ENDCHAR
STARTCHAR periodcentered
ENCODING 183
SWIDTH 500 0
DWIDTH 12 0
BBX 6 6 4 4
BITMAP
3000
3000
FC00
FC00
3000
3000
ENDCHAR
STARTCHAR cedilla
ENCODING 184
SWIDTH 500 0
DWIDTH 12 0
BBX 6 6 4 -4
BITMAP
3000
3000
0C00
0C00
F000
F000
ENDCHAR
STARTCHAR uni00B9
ENCODING 185
SWIDTH 500 0
DWIDTH 12 0
BBX 6 10 2 8
BITMAP
3000
3000
F000
F000
3000
3000
3000
3000
FC00
FC00
ENDCHAR
STARTCHAR ordmasculine
ENCODING 186
SWIDTH 500 0
DWIDTH 12 0
BBX 6 10 6 6
BITMAP
3000
3000
CC00
CC00
3000
3000
0000
0000
FC00
FC00
ENDCHAR
STARTCHAR guillemotright
ENCODING 187
SWIDTH 500 0
DWIDTH 12 0
BBX 10 10 2 2
BITMAP
CC00
CC00
3300
3300
0CC0
0CC0
3300
3300
CC00
CC00
ENDCHAR
STARTCHAR onequarter
ENCODING 188
SWIDTH 500 0
DWIDTH 12 0
BBX 10 18 2 0
BITMAP
C0C0
C0C0
C300
C300
C300
C300
CC00
CC00
0C00
0C00
30C0
30C0
33C0
33C0
CFC0
CFC0
C0C0
C0C0
ENDCHAR
STARTCHAR onehalf
ENCODING 189
SWIDTH 500 0
DWIDTH 12 0
BBX 10 18 2 0
BITMAP
C0C0
C0C0
C300
C300
C300
C300
CC00
CC00
0C00
0C00
3300
3300
30C0
30C0
C300
C300
C3C0
C3C0
ENDCHAR
STARTCHAR threequarters
ENCODING 190
SWIDTH 500 0
DWIDTH 12 0
BBX 10 18 2 0
BITMAP
F0C0
F0C0
3300
3300
C300
C300
3C00
3C00
FC00
FC00
30C0
30C0
33C0
33C0
CFC0
CFC0
C0C0
C0C0
ENDCHAR
STARTCHAR questiondown
ENCODING 191
SWIDTH 500 0
DWIDTH 12 0
BBX 10 16 2 -4
BITMAP
0C00
0C00
0000
0000
0C00
0C00
0C00
0C00
3000
3000
C000
C000
C0C0
C0C0
3F00
3F00
ENDCHAR
STARTCHAR Agrave
ENCODING 192
SWIDTH 500 0
DWIDTH 12 0
BBX 10 20 2 0
BITMAP
3000
3000
0C00
0C00
0000
0000
3F00
3F00
C0C0
C0C0
C0C0
C0C0
FFC0
FFC0
C0C0
C0C0
C0C0
C0C0
C0C0
C0C0
ENDCHAR
STARTCHAR Aacute
ENCODING 193
SWIDTH 500 0
DWIDTH 12 0
BBX 10 20 2 0
BITMAP
0300
0300
0C00
0C00
0000
0000
3F00
3F00
C0C0
C0C0
C0C0
C0C0
FFC0
FFC0
C0C0
C0C0
C0C0
C0C0
C0C0
C0C0
ENDCHAR
STARTCHAR Acircumflex
ENCODING 194
SWIDTH 500 0
DWIDTH 12 0
BBX 10 20 2 0
BITMAP
0C00
0C00
3300
3300
0000
0000
3F00
3F00
C0C0
C0C0
C0C0
C0C0
FFC0
FFC0
C0C0
C0C0
C0C0
C0C0
C0C0
C0C0
ENDCHAR
STARTCHAR Atilde
ENCODING 195
SWIDTH 500 0
DWIDTH 12 0
BBX 10 20 2 0
BITMAP
3CC0
3CC0
CF00
CF00
0000
0000
3F00
3F00
C0C0
C0C0
C0C0
C0C0
FFC0
FFC0
C0C0
C0C0
C0C0
C0C0
C0C0
C0C0
ENDCHAR
STARTCHAR Adieresis
ENCODING 196
SWIDTH 500 0
DWIDTH 12 0
BBX 10 20 2 0
BITMAP
3300
3300
0000
0000
3F00
3F00
C0C0
C0C0
C0C0
C0C0
C0C0
C0C0
FFC0
FFC0
C0C0
C0C0
C0C0
C0C0
C0C0
C0C0
ENDCHAR
STARTCHAR Aring
ENCODING 197
SWIDTH 500 0
DWIDTH 12 0
BBX 10 20 2 0
BITMAP
0C00
0C00
3300
3300
0C00
0C00
0000
0000
3F00
3F00
C0C0
C0C0
C0C0
C0C0
FFC0
FFC0
C0C0
C0C0
C0C0
C0C0
ENDCHAR
STARTCHAR AE
ENCODING 198
SWIDTH 500 0
DWIDTH 12 0
BBX 10 16 2 0
BITMAP
3FC0
3FC0
CC00
CC00
CC00
CC00
CFC0
CFC0
FC00
FC00
CC00
CC00
CC00
CC00
CFC0
CFC0
ENDCHAR
STARTCHAR Ccedilla
ENCODING 199
SWIDTH 500 0
DWIDTH 12 0
BBX 10 22 2 -6
BITMAP
3F00
3F00
C0C0
C0C0
C000
C000
C000
C000
C000
C000
C000
C000
C0C0
C0C0
3F00
3F00
0C00
0C00
0C00
0C00
3000
3000
ENDCHAR
STARTCHAR Egrave
ENCODING 200
SWIDTH 500 0
DWIDTH 12 0
BBX 10 20 2 0
BITMAP
3000
3000
0C00
0C00
0000
0000
FFC0
FFC0
C000
C000
C000
C000
FF00
FF00
C000
C000
C000
C000
FFC0
FFC0
ENDCHAR
STARTCHAR Eacute
ENCODING 201
SWIDTH 500 0
DWIDTH 12 0
BBX 10 20 2 0
BITMAP
0300
0300
0C00
0C00
0000
0000
FFC0
FFC0
C000
C000
C000
C000
FF00
FF00
C000
C000
C000
C000
FFC0
FFC0
ENDCHAR
STARTCHAR Ecircumflex
ENCODING 202
SWIDTH 500 0
DWIDTH 12 0
BBX 10 20 2 0
BITMAP
0C00
0C00
3300
3300
0000
0000
FFC0
FFC0
C000
C000
C000
C000
FF00
FF00
C000
C000
C000
C000
FFC0
FFC0
ENDCHAR
STARTCHAR Edieresis
ENCODING 203
SWIDTH 500 0
DWIDTH 12 0
BBX 10 20 2 0
BITMAP
3300
3300
0000
0000
FFC0
FFC0
C000
C000
C000
C000
FF00
FF00
C000
C000
C000
C000
C000
C000
FFC0
FFC0
ENDCHAR
STARTCHAR Igrave
ENCODING 204
SWIDTH 500 0
DWIDTH 12 0
BBX 6 20 4 0
BITMAP
C000
C000
3000
3000
0000
0000
FC00
FC00
3000
3000
3000
3000
3000
3000
3000
3000
3000
3000
FC00
FC00
ENDCHAR
STARTCHAR Iacute
ENCODING 205
SWIDTH 500 0
DWIDTH 12 0
BBX 6 20 4 0
BITMAP
0C00
0C00
3000
3000
0000
0000
FC00
FC00
3000
3000
3000
3000
3000
3000
3000
3000
3000
3000
FC00
FC00
ENDCHAR
STARTCHAR Icircumflex
ENCODING 206
SWIDTH 500 0
DWIDTH 12 0
BBX 6 20 4 0
BITMAP
3000
3000
CC00
CC00
0000
0000
FC00
FC00
3000
3000
3000
3000
3000
3000
3000
3000
3000
3000
FC00
FC00
ENDCHAR
STARTCHAR Idieresis
ENCODING 207
SWIDTH 500 0
DWIDTH 12 0
BBX 6 20 4 0
BITMAP
CC00
CC00
0000
0000
FC00
FC00
3000
3000
3000
3000
3000
3000
3000
3000
3000
3000
3000
3000
FC00
FC00
ENDCHAR
STARTCHAR Eth
ENCODING 208
SWIDTH 500 0
DWIDTH 12 0
BBX 10 14 2 0
BITMAP
3F00
3F00
30C0
30C0
30C0
30C0
FCC0
FCC0
30C0
30C0
30C0
30C0
3F00
3F00
ENDCHAR
STARTCHAR Ntilde
ENCODING 209
SWIDTH 500 0
DWIDTH 12 0
BBX 10 20 2 0
BITMAP
3CC0
3CC0
CF00
CF00
0000
0000
C0C0
C0C0
F0C0
F0C0
F0C0
F0C0
CCC0
CCC0
C3C0
C3C0
C3C0
C3C0
C0C0
C0C0
ENDCHAR
STARTCHAR Ograve
ENCODING 210
SWIDTH 500 0
DWIDTH 12 0
BBX 10 20 2 0
BITMAP
3000
3000
0C00
0C00
0000
0000
3F00
3F00
C0C0
C0C0
C0C0
C0C0
C0C0
C0C0
C0C0
C0C0
C0C0
C0C0
3F00
3F00
ENDCHAR
STARTCHAR Oacute
ENCODING 211
SWIDTH 500 0
DWIDTH 12 0
BBX 10 20 2 0
BITMAP
0300
0300
0C00
0C00
0000
0000
3F00
3F00
C0C0
C0C0
C0C0
C0C0
C0C0
C0C0
C0C0
C0C0
C0C0
C0C0
3F00
3F00
ENDCHAR
STARTCHAR Ocircumflex
ENCODING 212
SWIDTH 500 0
DWIDTH 12 0
BBX 10 20 2 0
BITMAP
0C00
0C00
3300
3300
0000
0000
3F00
3F00
C0C0
C0C0
C0C0
C0C0
C0C0
C0C0
C0C0
C0C0
C0C0
C0C0
3F00
3F00
ENDCHAR
STARTCHAR Otilde
ENCODING 213
SWIDTH 500 0
DWIDTH 12 0
BBX 10 20 2 0
BITMAP
3CC0
3CC0
CF00
CF00
0000
0000
3F00
3F00
C0C0
C0C0
C0C0
C0C0
C0C0
C0C0
C0C0
C0C0
C0C0
C0C0
3F00
3F00
ENDCHAR
STARTCHAR Odieresis
ENCODING 214
SWIDTH 500 0
DWIDTH 12 0
BBX 10 20 2 0
BITMAP
3300
3300
0000
0000
3F00
3F00
C0C0
C0C0
C0C0
C0C0
C0C0
C0C0
C0C0
C0C0
C0C0
C0C0
C0C0
C0C0
3F00
3F00
ENDCHAR
STARTCHAR multiply
ENCODING 215
SWIDTH 500 0
DWIDTH 12 0
BBX 10 10 2 2
BITMAP
C0C0
C0C0
3300
3300
0C00
0C00
3300
3300
C0C0
C0C0
ENDCHAR
STARTCHAR Oslash
ENCODING 216
SWIDTH 500 0
DWIDTH 12 0
BBX 10 20 2 -2
BITMAP
00C0
00C0
3F00
3F00
C3C0
C3C0
C3C0
C3C0
CCC0
CCC0
CCC0
CCC0
F0C0
F0C0
F0C0
F0C0
3F00
3F00
C000
C000
ENDCHAR
STARTCHAR Ugrave
ENCODING 217
SWIDTH 500 0
DWIDTH 12 0
BBX 10 20 2 0
BITMAP
3000
3000
0C00
0C00
0000
0000
C0C0
C0C0
C0C0
C0C0
C0C0
C0C0
C0C0
C0C0
C0C0
C0C0
C0C0
C0C0
3F00
3F00
ENDCHAR
STARTCHAR Uacute
ENCODING 218
SWIDTH 500 0
DWIDTH 12 0
BBX 10 20 2 0
BITMAP
0300
0300
0C00
0C00
0000
0000
C0C0
C0C0
C0C0
C0C0
C0C0
C0C0
C0C0
C0C0
C0C0
C0C0
C0C0
C0C0
3F00
3F00
ENDCHAR
STARTCHAR Ucircumflex
ENCODING 219
SWIDTH 500 0
DWIDTH 12 0
BBX 10 20 2 0
BITMAP
0C00
0C00
3300
3300
0000
0000
C0C0
C0C0
C0C0
C0C0
C0C0
C0C0
C0C0
C0C0
C0C0
C0C0
C0C0
C0C0
3F00
3F00
ENDCHAR
STARTCHAR Udieresis
ENCODING 220
SWIDTH 500 0
DWIDTH 12 0
BBX 10 20 2 0
BITMAP
3300
3300
0000
0000
C0C0
C0C0
C0C0
C0C0
C0C0
C0C0
C0C0
C0C0
C0C0
C0C0
C0C0
C0C0
C0C0
C0C0
3F00
3F00
ENDCHAR
STARTCHAR Yacute
ENCODING 221
SWIDTH 500 0
DWIDTH 12 0
BBX 10 20 2 0
BITMAP
0300
0300
0C00
0C00
0000
0000
C0C0
C0C0
C0C0
C0C0
C0C0
C0C0
3300
3300
0C00
0C00
0C00
0C00
0C00
0C00
ENDCHAR
STARTCHAR Thorn
ENCODING 222
SWIDTH 500 0
DWIDTH 12 0
BBX 10 16 2 0
BITMAP
C000
C000
C000
C000
FF00
FF00
C0C0
C0C0
C0C0
C0C0
FF00
FF00
C000
C000
C000
C000
ENDCHAR
STARTCHAR germandbls
ENCODING 223
SWIDTH 500 0
DWIDTH 12 0
BBX 10 16 2 0
BITMAP
3C00
3C00
C300
C300
C300
C300
CC00
CC00
C300
C300
C0C0
C0C0
C0C0
C0C0
CF00
CF00
ENDCHAR
STARTCHAR agrave
ENCODING 224
SWIDTH 500 0
DWIDTH 12 0
BBX 10 18 2 0
BITMAP
3000
3000
0C00
0C00
0000
0000
3FC0
3FC0
C0C0
C0C0
C0C0
C0C0
C0C0
C0C0
C3C0
C3C0
3CC0
3CC0
ENDCHAR
STARTCHAR aacute
ENCODING 225
SWIDTH 500 0
DWIDTH 12 0
BBX 10 18 2 0
BITMAP
0300
0300
0C00
0C00
0000
0000
3FC0
3FC0
C0C0
C0C0
C0C0
C0C0
C0C0
C0C0
C3C0
C3C0
3CC0
3CC0
ENDCHAR
STARTCHAR acircumflex
ENCODING 226
SWIDTH 500 0
DWIDTH 12 0
BBX 10 18 2 0
BITMAP
0C00
0C00
3300
3300
0000
0000
3FC0
3FC0
C0C0
C0C0
C0C0
C0C0
C0C0
C0C0
C3C0
C3C0
3CC0
3CC0
ENDCHAR
STARTCHAR atilde
ENCODING 227
SWIDTH 500 0
DWIDTH 12 0
BBX 10 18 2 0
BITMAP
3CC0
3CC0
CF00
CF00
0000
0000
3FC0
3FC0
C0C0
C0C0
C0C0
C0C0
C0C0
C0C0
C3C0
C3C0
3CC0
3CC0
ENDCHAR
STARTCHAR adieresis
ENCODING 228
SWIDTH 500 0
DWIDTH 12 0
BBX 10 16 2 0
BITMAP
3300
3300
0000
0000
3FC0
3FC0
C0C0
C0C0
C0C0
C0C0
C0C0
C0C0
C3C0
C3C0
3CC0
3CC0
ENDCHAR
STARTCHAR aring
ENCODING 229
SWIDTH 500 0
DWIDTH 12 0
BBX 10 20 2 0
BITMAP
0C00
0C00
3300
3300
0C00
0C00
0000
0000
3FC0
3FC0
C0C0
C0C0
C0C0
C0C0
C0C0
C0C0
C3C0
C3C0
3CC0
3CC0
ENDCHAR
STARTCHAR ae
ENCODING 230
SWIDTH 500 0
DWIDTH 12 0
BBX 10 12 2 0
BITMAP
3F00
3F00
CCC0
CCC0
CFC0
CFC0
CC00
CC00
CCC0
CCC0
3300
3300
ENDCHAR
STARTCHAR ccedilla
ENCODING 231
SWIDTH 500 0
DWIDTH 12 0
BBX 10 18 2 -6
BITMAP
3F00
3F00
C0C0
C0C0
C000
C000
C000
C000
C0C0
C0C0
3F00
3F00
0C00
0C00
0300
0300
3C00
3C00
ENDCHAR
STARTCHAR egrave
ENCODING 232
SWIDTH 500 0
DWIDTH 12 0
BBX 10 18 2 0
BITMAP
3000
3000
0C00
0C00
0000
0000
3F00
3F00
C0C0
C0C0
FFC0
FFC0
C000
C000
C0C0
C0C0
3F00
3F00
ENDCHAR
STARTCHAR eacute
ENCODING 233
SWIDTH 500 0
DWIDTH 12 0
BBX 10 18 2 0
BITMAP
0300
0300
0C00
0C00
0000
0000
3F00
3F00
C0C0
C0C0
FFC0
FFC0
C000
C000
C0C0
C0C0
3F00
3F00
ENDCHAR
STARTCHAR ecircumflex
ENCODING 234
SWIDTH 500 0
DWIDTH 12 0
BBX 10 18 2 0
BITMAP
0C00
0C00
3300
3300
0000
0000
3F00
3F00
C0C0
C0C0
FFC0
FFC0
C000
C000
C0C0
C0C0
3F00
3F00
ENDCHAR
STARTCHAR edieresis
ENCODING 235
SWIDTH 500 0
DWIDTH 12 0
BBX 10 16 2 0
BITMAP
3300
3300
0000
0000
3F00
3F00
C0C0
C0C0
FFC0
FFC0
C000
C000
C0C0
C0C0
3F00
3F00
ENDCHAR
STARTCHAR igrave
ENCODING 236
SWIDTH 500 0
DWIDTH 12 0
BBX 8 18 4 0
BITMAP
C000
C000
3000
3000
0000
0000
F000
F000
3000
3000
3000
3000
3000
3000
3000
3000
0F00
0F00
ENDCHAR
STARTCHAR iacute
ENCODING 237
SWIDTH 500 0
DWIDTH 12 0
BBX 8 18 4 0
BITMAP
0C00
0C00
3000
3000
0000
0000
F000
F000
3000
3000
3000
3000
3000
3000
3000
3000
0F00
0F00
ENDCHAR
STARTCHAR icircumflex
ENCODING 238
SWIDTH 500 0
DWIDTH 12 0
BBX 8 18 4 0
BITMAP
3000
3000
CC00
CC00
0000
0000
F000
F000
3000
3000
3000
3000
3000
3000
3000
3000
0F00
0F00
ENDCHAR
STARTCHAR idieresis
ENCODING 239
SWIDTH 500 0
DWIDTH 12 0
BBX 8 16 4 0
BITMAP
CC00
CC00
0000
0000
F000
F000
3000
3000
3000
3000
3000
3000
3000
3000
0F00
0F00
ENDCHAR
STARTCHAR eth
ENCODING 240
SWIDTH 500 0
DWIDTH 12 0
BBX 10 18 2 0
BITMAP
3CC0
3CC0
0300
0300
0CC0
0CC0
00C0
00C0
3FC0
3FC0
C0C0
C0C0
C0C0
C0C0
C0C0
C0C0
3F00
3F00
ENDCHAR
STARTCHAR ntilde
ENCODING 241
SWIDTH 500 0
DWIDTH 12 0
BBX 10 18 2 0
BITMAP
3CC0
3CC0
CF00
CF00
0000
0000
FF00
FF00
C0C0
C0C0
C0C0
C0C0
C0C0
C0C0
C0C0
C0C0
C0C0
C0C0
ENDCHAR
STARTCHAR ograve
ENCODING 242
SWIDTH 500 0
DWIDTH 12 0
BBX 10 18 2 0
BITMAP
3000
3000
0C00
0C00
0000
0000
3F00
3F00
C0C0
C0C0
C0C0
C0C0
C0C0
C0C0
C0C0
C0C0
3F00
3F00
ENDCHAR
STARTCHAR oacute
ENCODING 243
SWIDTH 500 0
DWIDTH 12 0
BBX 10 18 2 0
BITMAP
0300
0300
0C00
0C00
0000
0000
3F00
3F00
C0C0
C0C0
C0C0
C0C0
C0C0
C0C0
C0C0
C0C0
3F00
3F00
ENDCHAR
STARTCHAR ocircumflex
ENCODING 244
SWIDTH 500 0
DWIDTH 12 0
BBX 10 18 2 0
BITMAP
0C00
0C00
3300
3300
0000
0000
3F00
3F00
C0C0
C0C0
C0C0
C0C0
C0C0
C0C0
C0C0
C0C0
3F00
3F00
ENDCHAR
STARTCHAR otilde
ENCODING 245
SWIDTH 500 0
DWIDTH 12 0
BBX 10 18 2 0
BITMAP
3CC0
3CC0
CF00
CF00
0000
0000
3F00
3F00
C0C0
C0C0
C0C0
C0C0
C0C0
C0C0
C0C0
C0C0
3F00
3F00
ENDCHAR
STARTCHAR odieresis
ENCODING 246
SWIDTH 500 0
DWIDTH 12 0
BBX 10 16 2 0
BITMAP
3300
3300
0000
0000
3F00
3F00
C0C0
C0C0
C0C0
C0C0
C0C0
C0C0
C0C0
C0C0
3F00
3F00
ENDCHAR
STARTCHAR divide
ENCODING 247
SWIDTH 500 0
DWIDTH 12 0
BBX 10 10 2 2
BITMAP
0C00
0C00
0000
0000
FFC0
FFC0
0000
0000
0C00
0C00
ENDCHAR
STARTCHAR oslash
ENCODING 248
SWIDTH 500 0
DWIDTH 12 0
BBX 10 16 2 -2
BITMAP
00C0
00C0
3F00
3F00
C3C0
C3C0
CCC0
CCC0
CCC0
CCC0
F0C0
F0C0
3F00
3F00
C000
C000
ENDCHAR
STARTCHAR ugrave
ENCODING 249
SWIDTH 500 0
DWIDTH 12 0
BBX 10 18 2 0
BITMAP
3000
3000
0C00
0C00
0000
0000
C0C0
C0C0
C0C0
C0C0
C0C0
C0C0
C0C0
C0C0
C0C0
C0C0
3FC0
3FC0
ENDCHAR
STARTCHAR uacute
ENCODING 250
SWIDTH 500 0
DWIDTH 12 0
BBX 10 18 2 0
BITMAP
0300
0300
0C00
0C00
0000
0000
C0C0
C0C0
C0C0
C0C0
C0C0
C0C0
C0C0
C0C0
C0C0
C0C0
3FC0
3FC0
ENDCHAR
STARTCHAR ucircumflex
ENCODING 251
SWIDTH 500 0
DWIDTH 12 0
BBX 10 18 2 0
BITMAP
0C00
0C00
3300
3300
0000
0000
C0C0
C0C0
C0C0
C0C0
C0C0
C0C0
C0C0
C0C0
C0C0
C0C0
3FC0
3FC0
ENDCHAR
STARTCHAR udieresis
ENCODING 252
SWIDTH 500 0
DWIDTH 12 0
BBX 10 16 2 0
BITMAP
3300
3300
0000
0000
C0C0
C0C0
C0C0
C0C0
C0C0
C0C0
C0C0
C0C0
C0C0
C0C0
3FC0
3FC0
ENDCHAR
STARTCHAR yacute
ENCODING 253
SWIDTH 500 0
DWIDTH 12 0
BBX 10 24 2 -6
BITMAP
0300
0300
0C00
0C00
0000
0000
C0C0
C0C0
C0C0
C0C0
C0C0
C0C0
C0C0
C0C0
C0C0
C0C0
3FC0
3FC0
00C0
00C0
00C0
00C0
3F00
3F00
ENDCHAR
STARTCHAR thorn
ENCODING 254
SWIDTH 500 0
DWIDTH 12 0
BBX 10 20 2 -4
BITMAP
C000
C000
C000
C000
FF00
FF00
C0C0
C0C0
C0C0
C0C0
C0C0
C0C0
C0C0
C0C0
FF00
FF00
C000
C000
C000
C000
ENDCHAR
STARTCHAR ydieresis
ENCODING 255
SWIDTH 500 0
DWIDTH 12 0
BBX 10 22 2 -6
BITMAP
3300
3300
0000
0000
C0C0
C0C0
C0C0
C0C0
C0C0
C0C0
C0C0
C0C0
C0C0
C0C0
3FC0
3FC0
00C0
00C0
00C0
00C0
3F00
3F00
ENDCHAR
STARTCHAR Amacron
ENCODING 256
SWIDTH 500 0
DWIDTH 12 0
BBX 10 18 2 0
BITMAP
3F00
3F00
0000
0000
3F00
3F00
C0C0
C0C0
C0C0
C0C0
FFC0
FFC0
C0C0
C0C0
C0C0
C0C0
C0C0
C0C0
ENDCHAR
STARTCHAR amacron
ENCODING 257
SWIDTH 500 0
DWIDTH 12 0
BBX 10 16 2 0
BITMAP
3F00
3F00
0000
0000
3FC0
3FC0
C0C0
C0C0
C0C0
C0C0
C0C0
C0C0
C3C0
C3C0
3CC0
3CC0
ENDCHAR
STARTCHAR Abreve
ENCODING 258
SWIDTH 500 0
DWIDTH 12 0
BBX 10 20 2 0
BITMAP
3300
3300
3F00
3F00
0000
0000
3F00
3F00
C0C0
C0C0
C0C0
C0C0
FFC0
FFC0
C0C0
C0C0
C0C0
C0C0
C0C0
C0C0
ENDCHAR
STARTCHAR abreve
ENCODING 259
SWIDTH 500 0
DWIDTH 12 0
BBX 10 18 2 0
BITMAP
3300
3300
3F00
3F00
0000
0000
3FC0
3FC0
C0C0
C0C0
C0C0
C0C0
C0C0
C0C0
C3C0
C3C0
3CC0
3CC0
ENDCHAR
STARTCHAR Aogonek
ENCODING 260
SWIDTH 500 0
DWIDTH 12 0
BBX 10 20 2 -4
BITMAP
3F00
3F00
C0C0
C0C0
C0C0
C0C0
C0C0
C0C0
FFC0
FFC0
C0C0
C0C0
C0C0
C0C0
C0C0
C0C0
0300
0300
03C0
03C0
ENDCHAR
STARTCHAR aogonek
ENCODING 261
SWIDTH 500 0
DWIDTH 12 0
BBX 10 16 2 -4
BITMAP
3F00
3F00
C0C0
C0C0
C0C0
C0C0
C0C0
C0C0
C3C0
C3C0
3CC0
3CC0
0300
0300
03C0
03C0
ENDCHAR
STARTCHAR Cacute
ENCODING 262
SWIDTH 500 0
DWIDTH 12 0
BBX 10 20 2 0
BITMAP
0300
0300
0C00
0C00
0000
0000
3F00
3F00
C0C0
C0C0
C000
C000
C000
C000
C000
C000
C0C0
C0C0
3F00
3F00
ENDCHAR
STARTCHAR cacute
ENCODING 263
SWIDTH 500 0
DWIDTH 12 0
BBX 10 18 2 0
BITMAP
0300
0300
0C00
0C00
0000
0000
3F00
3F00
C0C0
C0C0
C000
C000
C000
C000
C0C0
C0C0
3F00
3F00
ENDCHAR
STARTCHAR Ccircumflex
ENCODING 264
SWIDTH 500 0
DWIDTH 12 0
BBX 10 20 2 0
BITMAP
0C00
0C00
3300
3300
0000
0000
3F00
3F00
C0C0
C0C0
C000
C000
C000
C000
C000
C000
C0C0
C0C0
3F00
3F00
ENDCHAR
STARTCHAR ccircumflex
ENCODING 265
SWIDTH 500 0
DWIDTH 12 0
BBX 10 18 2 0
BITMAP
0C00
0C00
3300
3300
0000
0000
3F00
3F00
C0C0
C0C0
C000
C000
C000
C000
C0C0
C0C0
3F00
3F00
ENDCHAR
STARTCHAR Cdotaccent
ENCODING 266
SWIDTH 500 0
DWIDTH 12 0
BBX 10 20 2 0
BITMAP
0C00
0C00
0000
0000
3F00
3F00
C0C0
C0C0
C000
C000
C000
C000
C000
C000
C000
C000
C0C0
C0C0
3F00
3F00
ENDCHAR
STARTCHAR cdotaccent
ENCODING 267
SWIDTH 500 0
DWIDTH 12 0
BBX 10 16 2 0
BITMAP
0C00
0C00
0000
0000
3F00
3F00
C0C0
C0C0
C000
C000
C000
C000
C0C0
C0C0
3F00
3F00
ENDCHAR
STARTCHAR Ccaron
ENCODING 268
SWIDTH 500 0
DWIDTH 12 0
BBX 10 20 2 0
BITMAP
3300
3300
0C00
0C00
0000
0000
3F00
3F00
C0C0
C0C0
C000
C000
C000
C000
C000
C000
C0C0
C0C0
3F00
3F00
ENDCHAR
STARTCHAR ccaron
ENCODING 269
SWIDTH 500 0
DWIDTH 12 0
BBX 10 18 2 0
BITMAP
3300
3300
0C00
0C00
0000
0000
3F00
3F00
C0C0
C0C0
C000
C000
C000
C000
C0C0
C0C0
3F00
3F00
ENDCHAR
STARTCHAR Dcaron
ENCODING 270
SWIDTH 500 0
DWIDTH 12 0
BBX 10 20 2 0
BITMAP
3300
3300
0C00
0C00
0000
0000
FC00
FC00
C300
C300
C0C0
C0C0
C0C0
C0C0
C0C0
C0C0
C300
C300
FC00
FC00
ENDCHAR
STARTCHAR dcaron
ENCODING 271
SWIDTH 500 0
DWIDTH 12 0
BBX 12 18 2 0
BITMAP
0330
0330
03C0
03C0
0300
0300
3F00
3F00
C300
C300
C300
C300
C300
C300
C300
C300
3F00
3F00
ENDCHAR
STARTCHAR Dcroat
ENCODING 272
SWIDTH 500 0
DWIDTH 12 0
BBX 10 16 2 0
BITMAP
3C00
3C00
3300
3300
30C0
30C0
30C0
30C0
FCC0
FCC0
30C0
30C0
3300
3300
3C00
3C00
ENDCHAR
STARTCHAR dcroat
ENCODING 273
SWIDTH 500 0
DWIDTH 12 0
BBX 10 18 2 0
BITMAP
0300
0300
3FC0
3FC0
0300
0300
3F00
3F00
C300
C300
C300
C300
C300
C300
C300
C300
3F00
3F00
ENDCHAR
STARTCHAR Emacron
ENCODING 274
SWIDTH 500 0
DWIDTH 12 0
BBX 10 20 2 0
BITMAP
3F00
3F00
0000
0000
FFC0
FFC0
C000
C000
C000
C000
FF00
FF00
C000
C000
C000
C000
C000
C000
FFC0
FFC0
ENDCHAR
STARTCHAR emacron
ENCODING 275
SWIDTH 500 0
DWIDTH 12 0
BBX 10 16 2 0
BITMAP
3F00
3F00
0000
0000
3F00
3F00
C0C0
C0C0
FFC0
FFC0
C000
C000
C0C0
C0C0
3F00
3F00
ENDCHAR
STARTCHAR Ebreve
ENCODING 276
SWIDTH 500 0
DWIDTH 12 0
BBX 10 20 2 0
BITMAP
3300
3300
3F00
3F00
0000
0000
FFC0
FFC0
C000
C000
C000
C000
FF00
FF00
C000
C000
C000
C000
FFC0
FFC0
ENDCHAR
STARTCHAR ebreve
ENCODING 277
SWIDTH 500 0
DWIDTH 12 0
BBX 10 18 2 0
BITMAP
3300
3300
3F00
3F00
0000
0000
3F00
3F00
C0C0
C0C0
FFC0
FFC0
C000
C000
C0C0
C0C0
3F00
3F00
ENDCHAR
STARTCHAR Edotaccent
ENCODING 278
SWIDTH 500 0
DWIDTH 12 0
BBX 10 20 2 0
BITMAP
0C00
0C00
0000
0000
FFC0
FFC0
C000
C000
C000
C000
FF00
FF00
C000
C000
C000
C000
C000
C000
FFC0
FFC0
ENDCHAR
STARTCHAR edotaccent
ENCODING 279
SWIDTH 500 0
DWIDTH 12 0
BBX 10 16 2 0
BITMAP
0C00
0C00
0000
0000
3F00
3F00
C0C0
C0C0
FFC0
FFC0
C000
C000
C0C0
C0C0
3F00
3F00
ENDCHAR
STARTCHAR Eogonek
ENCODING 280
SWIDTH 500 0
DWIDTH 12 0
BBX 10 20 2 -4
BITMAP
FFC0
FFC0
C000
C000
C000
C000
FF00
FF00
C000
C000
C000
C000
C000
C000
FFC0
FFC0
0300
0300
03C0
03C0
ENDCHAR
STARTCHAR eogonek
ENCODING 281
SWIDTH 500 0
DWIDTH 12 0
BBX 10 16 2 -4
BITMAP
3F00
3F00
C0C0
C0C0
FFC0
FFC0
C000
C000
C0C0
C0C0
3F00
3F00
0300
0300
03C0
03C0
ENDCHAR
STARTCHAR Ecaron
ENCODING 282
SWIDTH 500 0
DWIDTH 12 0
BBX 10 20 2 0
BITMAP
3300
3300
0C00
0C00
0000
0000
FFC0
FFC0
C000
C000
C000
C000
FF00
FF00
C000
C000
C000
C000
FFC0
FFC0
ENDCHAR
STARTCHAR ecaron
ENCODING 283
SWIDTH 500 0
DWIDTH 12 0
BBX 10 18 2 0
BITMAP
3300
3300
0C00
0C00
0000
0000
3F00
3F00
C0C0
C0C0
FFC0
FFC0
C000
C000
C0C0
C0C0
3F00
3F00
ENDCHAR
STARTCHAR Gcircumflex
ENCODING 284
SWIDTH 500 0
DWIDTH 12 0
BBX 10 20 2 0
BITMAP
0C00
0C00
3300
3300
0000
0000
3F00
3F00
C0C0
C0C0
C000
C000
C3C0
C3C0
C0C0
C0C0
C0C0
C0C0
3F00
3F00
ENDCHAR
STARTCHAR gcircumflex
ENCODING 285
SWIDTH 500 0
DWIDTH 12 0
BBX 10 24 2 -6
BITMAP
0C00
0C00
3300
3300
0000
0000
3FC0
3FC0
C0C0
C0C0
C0C0
C0C0
C0C0
C0C0
C0C0
C0C0
3FC0
3FC0
00C0
00C0
00C0
00C0
3F00
3F00
ENDCHAR
STARTCHAR Gbreve
ENCODING 286
SWIDTH 500 0
DWIDTH 12 0
BBX 10 20 2 0
BITMAP
3300
3300
3F00
3F00
0000
0000
3F00
3F00
C0C0
C0C0
C000
C000
C3C0
C3C0
C0C0
C0C0
C0C0
C0C0
3F00
3F00
ENDCHAR
STARTCHAR gbreve
ENCODING 287
SWIDTH 500 0
DWIDTH 12 0
BBX 10 24 2 -6
BITMAP
3300
3300
3F00
3F00
0000
0000
3FC0
3FC0
C0C0
C0C0
C0C0
C0C0
C0C0
C0C0
C0C0
C0C0
3FC0
3FC0
00C0
00C0
00C0
00C0
3F00
3F00
ENDCHAR
STARTCHAR Gdotaccent
ENCODING 288
SWIDTH 500 0
DWIDTH 12 0
BBX 10 20 2 0
BITMAP
0C00
0C00
0000
0000
3F00
3F00
C0C0
C0C0
C000
C000
C000
C000
C3C0
C3C0
C0C0
C0C0
C0C0
C0C0
3F00
3F00
ENDCHAR
STARTCHAR gdotaccent
ENCODING 289
SWIDTH 500 0
DWIDTH 12 0
BBX 10 22 2 -6
BITMAP
0C00
0C00
0000
0000
3FC0
3FC0
C0C0
C0C0
C0C0
C0C0
C0C0
C0C0
C0C0
C0C0
3FC0
3FC0
00C0
00C0
00C0
00C0
3F00
3F00
ENDCHAR
STARTCHAR Gcommaaccent
ENCODING 290
SWIDTH 500 0
DWIDTH 12 0
BBX 10 22 2 -6
BITMAP
3F00
3F00
C0C0
C0C0
C000
C000
C000
C000
C3C0
C3C0
C0C0
C0C0
C0C0
C0C0
3F00
3F00
0000
0000
0C00
0C00
3000
3000
ENDCHAR
STARTCHAR gcommaaccent
ENCODING 291
SWIDTH 500 0
DWIDTH 12 0
BBX 10 24 2 -6
BITMAP
0300
0300
0C00
0C00
0000
0000
3FC0
3FC0
C0C0
C0C0
C0C0
C0C0
C0C0
C0C0
C0C0
C0C0
3FC0
3FC0
00C0
00C0
00C0
00C0
3F00
3F00
ENDCHAR
STARTCHAR Hcircumflex
ENCODING 292
SWIDTH 500 0
DWIDTH 12 0
BBX 10 20 2 0
BITMAP
0C00
0C00
3300
3300
0000
0000
C0C0
C0C0
C0C0
C0C0
C0C0
C0C0
FFC0
FFC0
C0C0
C0C0
C0C0
C0C0
C0C0
C0C0
ENDCHAR
STARTCHAR hcircumflex
ENCODING 293
SWIDTH 500 0
DWIDTH 12 0
BBX 8 20 4 0
BITMAP
3000
3000
CC00
CC00
0000
0000
C000
C000
C000
C000
FC00
FC00
C300
C300
C300
C300
C300
C300
C300
C300
ENDCHAR
STARTCHAR Hbar
ENCODING 294
SWIDTH 500 0
DWIDTH 12 0
BBX 14 16 0 0
BITMAP
3030
3030
FFFC
FFFC
3030
3030
3FF0
3FF0
3030
3030
3030
3030
3030
3030
3030
3030
ENDCHAR
STARTCHAR hbar
ENCODING 295
SWIDTH 500 0
DWIDTH 12 0
BBX 10 18 2 0
BITMAP
3000
3000
FC00
FC00
3000
3000
3F00
3F00
30C0
30C0
30C0
30C0
30C0
30C0
30C0
30C0
30C0
30C0
ENDCHAR
STARTCHAR Itilde
ENCODING 296
SWIDTH 500 0
DWIDTH 12 0
BBX 10 20 2 0
BITMAP
3CC0
3CC0
CF00
CF00
0000
0000
3F00
3F00
0C00
0C00
0C00
0C00
0C00
0C00
0C00
0C00
0C00
0C00
3F00
3F00
ENDCHAR
STARTCHAR itilde
ENCODING 297
SWIDTH 500 0
DWIDTH 12 0
BBX 10 18 2 0
BITMAP
3CC0
3CC0
CF00
CF00
0000
0000
3C00
3C00
0C00
0C00
0C00
0C00
0C00
0C00
0C00
0C00
03C0
03C0
ENDCHAR
STARTCHAR Imacron
ENCODING 298
SWIDTH 500 0
DWIDTH 12 0
BBX 6 20 4 0
BITMAP
FC00
FC00
0000
0000
FC00
FC00
3000
3000
3000
3000
3000
3000
3000
3000
3000
3000
3000
3000
FC00
FC00
ENDCHAR
STARTCHAR imacron
ENCODING 299
SWIDTH 500 0
DWIDTH 12 0
BBX 8 16 4 0
BITMAP
FC00
FC00
0000
0000
F000
F000
3000
3000
3000
3000
3000
3000
3000
3000
0F00
0F00
ENDCHAR
STARTCHAR Ibreve
ENCODING 300
SWIDTH 500 0
DWIDTH 12 0
BBX 6 20 4 0
BITMAP
CC00
CC00
FC00
FC00
0000
0000
FC00
FC00
3000
3000
3000
3000
3000
3000
3000
3000
3000
3000
FC00
FC00
ENDCHAR
STARTCHAR ibreve
ENCODING 301
SWIDTH 500 0
DWIDTH 12 0
BBX 8 18 4 0
BITMAP
CC00
CC00
FC00
FC00
0000
0000
F000
F000
3000
3000
3000
3000
3000
3000
3000
3000
0F00
0F00
ENDCHAR
STARTCHAR Iogonek
ENCODING 302
SWIDTH 500 0
DWIDTH 12 0
BBX 6 20 4 -4
BITMAP
FC00
FC00
3000
3000
3000
3000
3000
3000
3000
3000
3000
3000
3000
3000
FC00
FC00
3000
3000
3C00
3C00
ENDCHAR
STARTCHAR iogonek
ENCODING 303
SWIDTH 500 0
DWIDTH 12 0
BBX 8 20 4 -4
BITMAP
3000
3000
0000
0000
F000
F000
3000
3000
3000
3000
3000
3000
3000
3000
0F00
0F00
0C00
0C00
0F00
0F00
ENDCHAR
STARTCHAR Idotaccent
ENCODING 304
SWIDTH 500 0
DWIDTH 12 0
BBX 6 20 4 0
BITMAP
3000
3000
0000
0000
FC00
FC00
3000
3000
3000
3000
3000
3000
3000
3000
3000
3000
3000
3000
FC00
FC00
ENDCHAR
STARTCHAR dotlessi
ENCODING 305
SWIDTH 500 0
DWIDTH 12 0
BBX 8 12 4 0
BITMAP
F000
F000
3000
3000
3000
3000
3000
3000
3000
3000
0F00
0F00
ENDCHAR
STARTCHAR IJ
ENCODING 306
SWIDTH 500 0
DWIDTH 12 0
BBX 10 22 2 -4
BITMAP
FFC0
FFC0
30C0
30C0
30C0
30C0
30C0
30C0
30C0
30C0
30C0
30C0
30C0
30C0
30C0
30C0
FCC0
FCC0
00C0
00C0
0300
0300
ENDCHAR
STARTCHAR ij
ENCODING 307
SWIDTH 500 0
DWIDTH 12 0
BBX 10 20 2 -4
BITMAP
30C0
30C0
0000
0000
F3C0
F3C0
30C0
30C0
30C0
30C0
30C0
30C0
30C0
30C0
0CC0
0CC0
00C0
00C0
0300
0300
ENDCHAR
STARTCHAR Jcircumflex
ENCODING 308
SWIDTH 500 0
DWIDTH 12 0
BBX 10 20 2 0
BITMAP
0300
0300
0CC0
0CC0
0000
0000
0FC0
0FC0
00C0
00C0
00C0
00C0
00C0
00C0
C0C0
C0C0
C0C0
C0C0
3F00
3F00
ENDCHAR
STARTCHAR jcircumflex
ENCODING 309
SWIDTH 500 0
DWIDTH 12 0
BBX 10 22 2 -4
BITMAP
0300
0300
0CC0
0CC0
0000
0000
0F00
0F00
0300
0300
0300
0300
0300
0300
0300
0300
0300
0300
0300
0300
FC00
FC00
ENDCHAR
STARTCHAR Kcommaaccent
ENCODING 310
SWIDTH 500 0
DWIDTH 12 0
BBX 10 20 2 -4
BITMAP
C0C0
C0C0
C300
C300
CC00
CC00
FC00
FC00
C300
C300
C300
C300
C0C0
C0C0
C0C0
C0C0
0C00
0C00
3000
3000
ENDCHAR
STARTCHAR kcommaaccent
ENCODING 311
SWIDTH 500 0
DWIDTH 12 0
BBX 10 22 2 -4
BITMAP
C000
C000
C000
C000
C000
C000
C0C0
C0C0
C300
C300
CC00
CC00
FC00
FC00
C300
C300
C0C0
C0C0
0C00
0C00
3000
3000
ENDCHAR
STARTCHAR kgreenlandic
ENCODING 312
SWIDTH 500 0
DWIDTH 12 0
BBX 10 12 2 0
BITMAP
C0C0
C0C0
C300
C300
CC00
CC00
FC00
FC00
C300
C300
C0C0
C0C0
ENDCHAR
STARTCHAR Lacute
ENCODING 313
SWIDTH 500 0
DWIDTH 12 0
BBX 10 20 2 0
BITMAP
3000
3000
C000
C000
0000
0000
C000
C000
C000
C000
C000
C000
C000
C000
C000
C000
C000
C000
FFC0
FFC0
ENDCHAR
STARTCHAR lacute
ENCODING 314
SWIDTH 500 0
DWIDTH 12 0
BBX 6 20 4 0
BITMAP
0C00
0C00
3000
3000
0000
0000
F000
F000
3000
3000
3000
3000
3000
3000
3000
3000
3000
3000
3C00
3C00
ENDCHAR
STARTCHAR Lcommaaccent
ENCODING 315
SWIDTH 500 0
DWIDTH 12 0
BBX 10 22 2 -6
BITMAP
C000
C000
C000
C000
C000
C000
C000
C000
C000
C000
C000
C000
C000
C000
FFC0
FFC0
0000
0000
0C00
0C00
3000
3000
ENDCHAR
STARTCHAR lcommaaccent
ENCODING 316
SWIDTH 500 0
DWIDTH 12 0
BBX 6 24 4 -6
BITMAP
F000
F000
3000
3000
3000
3000
3000
3000
3000
3000
3000
3000
3000
3000
3000
3000
3C00
3C00
0000
0000
3000
3000
C000
C000
ENDCHAR
STARTCHAR Lcaron
ENCODING 317
SWIDTH 500 0
DWIDTH 12 0
BBX 10 18 2 0
BITMAP
0C00
0C00
CC00
CC00
C000
C000
C000
C000
C000
C000
C000
C000
C000
C000
C000
C000
FFC0
FFC0
ENDCHAR
STARTCHAR lcaron
ENCODING 318
SWIDTH 500 0
DWIDTH 12 0
BBX 8 20 4 0
BITMAP
0300
0300
F300
F300
3000
3000
3000
3000
3000
3000
3000
3000
3000
3000
3000
3000
3000
3000
3C00
3C00
ENDCHAR
STARTCHAR Ldot
ENCODING 319
SWIDTH 500 0
DWIDTH 12 0
BBX 10 16 2 0
BITMAP
C000
C000
C000
C000
C000
C000
CC00
CC00
C000
C000
C000
C000
C000
C000
FFC0
FFC0
ENDCHAR
STARTCHAR ldot
ENCODING 320
SWIDTH 500 0
DWIDTH 12 0
BBX 8 18 4 0
BITMAP
F000
F000
3000
3000
3000
3000
3000
3000
3300
3300
3000
3000
3000
3000
3000
3000
3C00
3C00
ENDCHAR
STARTCHAR Lslash
ENCODING 321
SWIDTH 500 0
DWIDTH 12 0
BBX 10 16 2 0
BITMAP
3000
3000
3000
3000
3300
3300
3C00
3C00
3000
3000
F000
F000
3000
3000
3FC0
3FC0
ENDCHAR
STARTCHAR lslash
ENCODING 322
SWIDTH 500 0
DWIDTH 12 0
BBX 6 18 4 0
BITMAP
F000
F000
3000
3000
3000
3000
3C00
3C00
F000
F000
3000
3000
3000
3000
3000
3000
3C00
3C00
ENDCHAR
STARTCHAR Nacute
ENCODING 323
SWIDTH 500 0
DWIDTH 12 0
BBX 10 20 2 0
BITMAP
0300
0300
0C00
0C00
0000
0000
C0C0
C0C0
F0C0
F0C0
F0C0
F0C0
CCC0
CCC0
C3C0
C3C0
C3C0
C3C0
C0C0
C0C0
ENDCHAR
STARTCHAR nacute
ENCODING 324
SWIDTH 500 0
DWIDTH 12 0
BBX 10 18 2 0
BITMAP
0300
0300
0C00
0C00
0000
0000
FF00
FF00
C0C0
C0C0
C0C0
C0C0
C0C0
C0C0
C0C0
C0C0
C0C0
C0C0
ENDCHAR
STARTCHAR Ncommaaccent
ENCODING 325
SWIDTH 500 0
DWIDTH 12 0
BBX 10 22 2 -6
BITMAP
C0C0
C0C0
F0C0
F0C0
F0C0
F0C0
CCC0
CCC0
CCC0
CCC0
C3C0
C3C0
C3C0
C3C0
C0C0
C0C0
0000
0000
0C00
0C00
3000
3000
ENDCHAR
STARTCHAR ncommaaccent
ENCODING 326
SWIDTH 500 0
DWIDTH 12 0
BBX 10 16 2 -4
BITMAP
FF00
FF00
C0C0
C0C0
C0C0
C0C0
C0C0
C0C0
C0C0
C0C0
C0C0
C0C0
0C00
0C00
3000
3000
ENDCHAR
STARTCHAR Ncaron
ENCODING 327
SWIDTH 500 0
DWIDTH 12 0
BBX 10 20 2 0
BITMAP
3300
3300
0C00
0C00
C0C0
C0C0
F0C0
F0C0
F0C0
F0C0
CCC0
CCC0
CCC0
CCC0
C3C0
C3C0
C3C0
C3C0
C0C0
C0C0
ENDCHAR
STARTCHAR ncaron
ENCODING 328
SWIDTH 500 0
DWIDTH 12 0
BBX 10 18 2 0
BITMAP
3300
3300
0C00
0C00
0000
0000
FF00
FF00
C0C0
C0C0
C0C0
C0C0
C0C0
C0C0
C0C0
C0C0
C0C0
C0C0
ENDCHAR
STARTCHAR napostrophe
ENCODING 329
SWIDTH 500 0
DWIDTH 12 0
BBX 12 20 0 0
BITMAP
F000
F000
3000
3000
C000
C000
0000
0000
3FC0
3FC0
3030
3030
3030
3030
3030
3030
3030
3030
3030
3030
ENDCHAR
STARTCHAR Eng
ENCODING 330
SWIDTH 500 0
DWIDTH 12 0
BBX 10 20 2 -4
BITMAP
CF00
CF00
F0C0
F0C0
C0C0
C0C0
C0C0
C0C0
C0C0
C0C0
C0C0
C0C0
C0C0
C0C0
C0C0
C0C0
00C0
00C0
0300
0300
ENDCHAR
STARTCHAR eng
ENCODING 331
SWIDTH 500 0
DWIDTH 12 0
BBX 10 16 2 -4
BITMAP
CF00
CF00
F0C0
F0C0
C0C0
C0C0
C0C0
C0C0
C0C0
C0C0
C0C0
C0C0
00C0
00C0
0300
0300
ENDCHAR
STARTCHAR Omacron
ENCODING 332
SWIDTH 500 0
DWIDTH 12 0
BBX 10 20 2 0
BITMAP
3F00
3F00
0000
0000
3F00
3F00
C0C0
C0C0
C0C0
C0C0
C0C0
C0C0
C0C0
C0C0
C0C0
C0C0
C0C0
C0C0
3F00
3F00
ENDCHAR
STARTCHAR omacron
ENCODING 333
SWIDTH 500 0
DWIDTH 12 0
BBX 10 16 2 0
BITMAP
3F00
3F00
0000
0000
3F00
3F00
C0C0
C0C0
C0C0
C0C0
C0C0
C0C0
C0C0
C0C0
3F00
3F00
ENDCHAR
STARTCHAR Obreve
ENCODING 334
SWIDTH 500 0
DWIDTH 12 0
BBX 10 20 2 0
BITMAP
3300
3300
3F00
3F00
0000
0000
3F00
3F00
C0C0
C0C0
C0C0
C0C0
C0C0
C0C0
C0C0
C0C0
C0C0
C0C0
3F00
3F00
ENDCHAR
STARTCHAR obreve
ENCODING 335
SWIDTH 500 0
DWIDTH 12 0
BBX 10 18 2 0
BITMAP
3300
3300
3F00
3F00
0000
0000
3F00
3F00
C0C0
C0C0
C0C0
C0C0
C0C0
C0C0
C0C0
C0C0
3F00
3F00
ENDCHAR
STARTCHAR Ohungarumlaut
ENCODING 336
SWIDTH 500 0
DWIDTH 12 0
BBX 10 20 2 0
BITMAP
30C0
30C0
C300
C300
0000
0000
3F00
3F00
C0C0
C0C0
C0C0
C0C0
C0C0
C0C0
C0C0
C0C0
C0C0
C0C0
3F00
3F00
ENDCHAR
STARTCHAR ohungarumlaut
ENCODING 337
SWIDTH 500 0
DWIDTH 12 0
BBX 10 18 2 0
BITMAP
30C0
30C0
C300
C300
0000
0000
3F00
3F00
C0C0
C0C0
C0C0
C0C0
C0C0
C0C0
C0C0
C0C0
3F00
3F00
ENDCHAR
STARTCHAR OE
ENCODING 338
SWIDTH 500 0
DWIDTH 12 0
BBX 10 16 2 0
BITMAP
3FC0
3FC0
CC00
CC00
CC00
CC00
CF00
CF00
CC00
CC00
CC00
CC00
CC00
CC00
3FC0
3FC0
ENDCHAR
STARTCHAR oe
ENCODING 339
SWIDTH 500 0
DWIDTH 12 0
BBX 10 12 2 0
BITMAP
3300
3300
CCC0
CCC0
CFC0
CFC0
CC00
CC00
CCC0
CCC0
3300
3300
ENDCHAR
STARTCHAR Racute
ENCODING 340
SWIDTH 500 0
DWIDTH 12 0
BBX 10 20 2 0
BITMAP
0300
0300
0C00
0C00
0000
0000
FF00
FF00
C0C0
C0C0
C0C0
C0C0
FF00
FF00
C300
C300
C0C0
C0C0
C0C0
C0C0
ENDCHAR
STARTCHAR racute
ENCODING 341
SWIDTH 500 0
DWIDTH 12 0
BBX 10 18 2 0
BITMAP
0300
0300
0C00
0C00
0000
0000
FF00
FF00
C0C0
C0C0
C000
C000
C000
C000
C000
C000
C000
C000
ENDCHAR
STARTCHAR Rcommaaccent
ENCODING 342
SWIDTH 500 0
DWIDTH 12 0
BBX 10 20 2 -4
BITMAP
FF00
FF00
C0C0
C0C0
C0C0
C0C0
FF00
FF00
C300
C300
C0C0
C0C0
C0C0
C0C0
C0C0
C0C0
0C00
0C00
3000
3000
ENDCHAR
STARTCHAR rcommaaccent
ENCODING 343
SWIDTH 500 0
DWIDTH 12 0
BBX 12 18 0 -6
BITMAP
3FC0
3FC0
3030
3030
3000
3000
3000
3000
3000
3000
3000
3000
0000
0000
3000
3000
C000
C000
ENDCHAR
STARTCHAR Rcaron
ENCODING 344
SWIDTH 500 0
DWIDTH 12 0
BBX 10 20 2 0
BITMAP
3300
3300
0C00
0C00
0000
0000
FF00
FF00
C0C0
C0C0
C0C0
C0C0
FF00
FF00
C300
C300
C0C0
C0C0
C0C0
C0C0
ENDCHAR
STARTCHAR rcaron
ENCODING 345
SWIDTH 500 0
DWIDTH 12 0
BBX 10 18 2 0
BITMAP
3300
3300
0C00
0C00
0000
0000
FF00
FF00
C0C0
C0C0
C000
C000
C000
C000
C000
C000
C000
C000
ENDCHAR
STARTCHAR Sacute
ENCODING 346
SWIDTH 500 0
DWIDTH 12 0
BBX 10 20 2 0
BITMAP
0300
0300
0C00
0C00
0000
0000
3F00
3F00
C0C0
C0C0
C000
C000
3F00
3F00
00C0
00C0
C0C0
C0C0
3F00
3F00
ENDCHAR
STARTCHAR sacute
ENCODING 347
SWIDTH 500 0
DWIDTH 12 0
BBX 10 18 2 0
BITMAP
0300
0300
0C00
0C00
0000
0000
3FC0
3FC0
C000
C000
3F00
3F00
00C0
00C0
00C0
00C0
FF00
FF00
ENDCHAR
STARTCHAR Scircumflex
ENCODING 348
SWIDTH 500 0
DWIDTH 12 0
BBX 10 20 2 0
BITMAP
0C00
0C00
3300
3300
0000
0000
3F00
3F00
C0C0
C0C0
C000
C000
3F00
3F00
00C0
00C0
C0C0
C0C0
3F00
3F00
ENDCHAR
STARTCHAR scircumflex
ENCODING 349
SWIDTH 500 0
DWIDTH 12 0
BBX 10 18 2 0
BITMAP
0C00
0C00
3300
3300
0000
0000
3FC0
3FC0
C000
C000
3F00
3F00
00C0
00C0
00C0
00C0
FF00
FF00
ENDCHAR
STARTCHAR Scedilla
ENCODING 350
SWIDTH 500 0
DWIDTH 12 0
BBX 10 22 2 -6
BITMAP
3F00
3F00
C0C0
C0C0
C000
C000
3F00
3F00
00C0
00C0
00C0
00C0
C0C0
C0C0
3F00
3F00
0C00
0C00
0300
0300
3C00
3C00
ENDCHAR
STARTCHAR scedilla
ENCODING 351
SWIDTH 500 0
DWIDTH 12 0
BBX 10 18 2 -6
BITMAP
3FC0
3FC0
C000
C000
3F00
3F00
00C0
00C0
00C0
00C0
FF00
FF00
0C00
0C00
0300
0300
3C00
3C00
ENDCHAR
STARTCHAR Scaron
ENCODING 352
SWIDTH 500 0
DWIDTH 12 0
BBX 10 20 2 0
BITMAP
3300
3300
0C00
0C00
0000
0000
3F00
3F00
C0C0
C0C0
C000
C000
3F00
3F00
00C0
00C0
C0C0
C0C0
3F00
3F00
ENDCHAR
STARTCHAR scaron
ENCODING 353
SWIDTH 500 0
DWIDTH 12 0
BBX 10 18 2 0
BITMAP
3300
3300
0C00
0C00
0000
0000
3FC0
3FC0
C000
C000
3F00
3F00
00C0
00C0
00C0
00C0
FF00
FF00
ENDCHAR
STARTCHAR Tcommaaccent
ENCODING 354
SWIDTH 500 0
DWIDTH 12 0
BBX 10 20 2 -4
BITMAP
FFC0
FFC0
0C00
0C00
0C00
0C00
0C00
0C00
0C00
0C00
0C00
0C00
0C00
0C00
0C00
0C00
0300
0300
3C00
3C00
ENDCHAR
STARTCHAR tcommaaccent
ENCODING 355
SWIDTH 500 0
DWIDTH 12 0
BBX 10 22 2 -6
BITMAP
3000
3000
3000
3000
FF00
FF00
3000
3000
3000
3000
3000
3000
3000
3000
0FC0
0FC0
0C00
0C00
0300
0300
3C00
3C00
ENDCHAR
STARTCHAR Tcaron
ENCODING 356
SWIDTH 500 0
DWIDTH 12 0
BBX 10 20 2 0
BITMAP
3300
3300
0C00
0C00
0000
0000
FFC0
FFC0
0C00
0C00
0C00
0C00
0C00
0C00
0C00
0C00
0C00
0C00
0C00
0C00
ENDCHAR
STARTCHAR tcaron
ENCODING 357
SWIDTH 500 0
DWIDTH 12 0
BBX 10 18 2 0
BITMAP
0300
0300
3300
3300
3000
3000
FF00
FF00
3000
3000
3000
3000
3000
3000
3000
3000
0FC0
0FC0
ENDCHAR
STARTCHAR Tbar
ENCODING 358
SWIDTH 500 0
DWIDTH 12 0
BBX 10 16 2 0
BITMAP
FFC0
FFC0
0C00
0C00
0C00
0C00
3F00
3F00
0C00
0C00
0C00
0C00
0C00
0C00
0C00
0C00
ENDCHAR
STARTCHAR tbar
ENCODING 359
SWIDTH 500 0
DWIDTH 12 0
BBX 10 16 2 0
BITMAP
3000
3000
3000
3000
FF00
FF00
3000
3000
FF00
FF00
3000
3000
3000
3000
0FC0
0FC0
ENDCHAR
STARTCHAR Utilde
ENCODING 360
SWIDTH 500 0
DWIDTH 12 0
BBX 10 20 2 0
BITMAP
3CC0
3CC0
CF00
CF00
0000
0000
C0C0
C0C0
C0C0
C0C0
C0C0
C0C0
C0C0
C0C0
C0C0
C0C0
C0C0
C0C0
3F00
3F00
ENDCHAR
STARTCHAR utilde
ENCODING 361
SWIDTH 500 0
DWIDTH 12 0
BBX 10 18 2 0
BITMAP
3CC0
3CC0
CF00
CF00
0000
0000
C0C0
C0C0
C0C0
C0C0
C0C0
C0C0
C0C0
C0C0
C0C0
C0C0
3FC0
3FC0
ENDCHAR
STARTCHAR Umacron
ENCODING 362
SWIDTH 500 0
DWIDTH 12 0
BBX 10 20 2 0
BITMAP
3F00
3F00
0000
0000
C0C0
C0C0
C0C0
C0C0
C0C0
C0C0
C0C0
C0C0
C0C0
C0C0
C0C0
C0C0
C0C0
C0C0
3F00
3F00
ENDCHAR
STARTCHAR umacron
ENCODING 363
SWIDTH 500 0
DWIDTH 12 0
BBX 10 16 2 0
BITMAP
3F00
3F00
0000
0000
C0C0
C0C0
C0C0
C0C0
C0C0
C0C0
C0C0
C0C0
C0C0
C0C0
3FC0
3FC0
ENDCHAR
STARTCHAR Ubreve
ENCODING 364
SWIDTH 500 0
DWIDTH 12 0
BBX 10 20 2 0
BITMAP
3300
3300
3F00
3F00
0000
0000
C0C0
C0C0
C0C0
C0C0
C0C0
C0C0
C0C0
C0C0
C0C0
C0C0
C0C0
C0C0
3F00
3F00
ENDCHAR
STARTCHAR ubreve
ENCODING 365
SWIDTH 500 0
DWIDTH 12 0
BBX 10 18 2 0
BITMAP
3300
3300
3F00
3F00
0000
0000
C0C0
C0C0
C0C0
C0C0
C0C0
C0C0
C0C0
C0C0
C0C0
C0C0
3FC0
3FC0
ENDCHAR
STARTCHAR Uring
ENCODING 366
SWIDTH 500 0
DWIDTH 12 0
BBX 10 20 2 0
BITMAP
0C00
0C00
3300
3300
0C00
0C00
C0C0
C0C0
C0C0
C0C0
C0C0
C0C0
C0C0
C0C0
C0C0
C0C0
C0C0
C0C0
3F00
3F00
ENDCHAR
STARTCHAR uring
ENCODING 367
SWIDTH 500 0
DWIDTH 12 0
BBX 10 20 2 0
BITMAP
0C00
0C00
3300
3300
0C00
0C00
0000
0000
C0C0
C0C0
C0C0
C0C0
C0C0
C0C0
C0C0
C0C0
C0C0
C0C0
3FC0
3FC0
ENDCHAR
STARTCHAR Uhungarumlaut
ENCODING 368
SWIDTH 500 0
DWIDTH 12 0
BBX 10 20 2 0
BITMAP
30C0
30C0
C300
C300
0000
0000
C0C0
C0C0
C0C0
C0C0
C0C0
C0C0
C0C0
C0C0
C0C0
C0C0
C0C0
C0C0
3F00
3F00
ENDCHAR
STARTCHAR uhungarumlaut
ENCODING 369
SWIDTH 500 0
DWIDTH 12 0
BBX 10 18 2 0
BITMAP
30C0
30C0
C300
C300
0000
0000
C0C0
C0C0
C0C0
C0C0
C0C0
C0C0
C0C0
C0C0
C0C0
C0C0
3FC0
3FC0
ENDCHAR
STARTCHAR Uogonek
ENCODING 370
SWIDTH 500 0
DWIDTH 12 0
BBX 10 20 2 -4
BITMAP
C0C0
C0C0
C0C0
C0C0
C0C0
C0C0
C0C0
C0C0
C0C0
C0C0
C0C0
C0C0
C0C0
C0C0
3F00
3F00
0C00
0C00
0F00
0F00
ENDCHAR
STARTCHAR uogonek
ENCODING 371
SWIDTH 500 0
DWIDTH 12 0
BBX 10 16 2 -4
BITMAP
C0C0
C0C0
C0C0
C0C0
C0C0
C0C0
C0C0
C0C0
C0C0
C0C0
3FC0
3FC0
0300
0300
03C0
03C0
ENDCHAR
STARTCHAR Wcircumflex
ENCODING 372
SWIDTH 500 0
DWIDTH 12 0
BBX 10 20 2 0
BITMAP
0C00
0C00
3300
3300
0000
0000
C0C0
C0C0
C0C0
C0C0
CCC0
CCC0
CCC0
CCC0
3F00
3F00
3300
3300
3300
3300
ENDCHAR
STARTCHAR wcircumflex
ENCODING 373
SWIDTH 500 0
DWIDTH 12 0
BBX 10 18 2 0
BITMAP
0C00
0C00
3300
3300
0000
0000
C0C0
C0C0
C0C0
C0C0
CCC0
CCC0
CCC0
CCC0
3300
3300
3300
3300
ENDCHAR
STARTCHAR Ycircumflex
ENCODING 374
SWIDTH 500 0
DWIDTH 12 0
BBX 10 20 2 0
BITMAP
0C00
0C00
3300
3300
0000
0000
C0C0
C0C0
C0C0
C0C0
C0C0
C0C0
3300
3300
0C00
0C00
0C00
0C00
0C00
0C00
ENDCHAR
STARTCHAR ycircumflex
ENCODING 375
SWIDTH 500 0
DWIDTH 12 0
BBX 10 24 2 -6
BITMAP
0C00
0C00
3300
3300
0000
0000
C0C0
C0C0
C0C0
C0C0
C0C0
C0C0
C0C0
C0C0
C0C0
C0C0
3FC0
3FC0
00C0
00C0
00C0
00C0
3F00
3F00
ENDCHAR
STARTCHAR Ydieresis
ENCODING 376
SWIDTH 500 0
DWIDTH 12 0
BBX 10 18 2 0
BITMAP
3300
3300
0000
0000
C0C0
C0C0
C0C0
C0C0
C0C0
C0C0
3300
3300
0C00
0C00
0C00
0C00
0C00
0C00
ENDCHAR
STARTCHAR Zacute
ENCODING 377
SWIDTH 500 0
DWIDTH 12 0
BBX 10 20 2 0
BITMAP
0300
0300
0C00
0C00
0000
0000
FFC0
FFC0
00C0
00C0
0300
0300
0C00
0C00
3000
3000
C000
C000
FFC0
FFC0
ENDCHAR
STARTCHAR zacute
ENCODING 378
SWIDTH 500 0
DWIDTH 12 0
BBX 10 18 2 0
BITMAP
0300
0300
0C00
0C00
0000
0000
FFC0
FFC0
0300
0300
0C00
0C00
3000
3000
C000
C000
FFC0
FFC0
ENDCHAR
STARTCHAR Zdotaccent
ENCODING 379
SWIDTH 500 0
DWIDTH 12 0
BBX 10 20 2 0
BITMAP
0C00
0C00
0000
0000
FFC0
FFC0
0300
0300
0C00
0C00
0C00
0C00
3000
3000
3000
3000
C000
C000
FFC0
FFC0
ENDCHAR
STARTCHAR zdotaccent
ENCODING 380
SWIDTH 500 0
DWIDTH 12 0
BBX 10 16 2 0
BITMAP
0C00
0C00
0000
0000
FFC0
FFC0
0300
0300
0C00
0C00
3000
3000
C000
C000
FFC0
FFC0
ENDCHAR
STARTCHAR Zcaron
ENCODING 381
SWIDTH 500 0
DWIDTH 12 0
BBX 10 20 2 0
BITMAP
3300
3300
0C00
0C00
0000
0000
FFC0
FFC0
00C0
00C0
0300
0300
0C00
0C00
3000
3000
C000
C000
FFC0
FFC0
ENDCHAR
STARTCHAR zcaron
ENCODING 382
SWIDTH 500 0
DWIDTH 12 0
BBX 10 18 2 0
BITMAP
3300
3300
0C00
0C00
0000
0000
FFC0
FFC0
0300
0300
0C00
0C00
3000
3000
C000
C000
FFC0
FFC0
ENDCHAR
STARTCHAR longs
ENCODING 383
SWIDTH 500 0
DWIDTH 12 0
BBX 8 16 4 0
BITMAP
0F00
0F00
3000
3000
F000
F000
3000
3000
3000
3000
3000
3000
3000
3000
3000
3000
ENDCHAR
STARTCHAR uni0180
ENCODING 384
SWIDTH 500 0
DWIDTH 12 0
BBX 10 18 2 0
BITMAP
C000
C000
FF00
FF00
C000
C000
FF00
FF00
C0C0
C0C0
C0C0
C0C0
C0C0
C0C0
C0C0
C0C0
FF00
FF00
ENDCHAR
STARTCHAR uni0181
ENCODING 385
SWIDTH 500 0
DWIDTH 12 0
BBX 10 16 2 0
BITMAP
FF00
FF00
30C0
30C0
30C0
30C0
3F00
3F00
30C0
30C0
30C0
30C0
30C0
30C0
3F00
3F00
ENDCHAR
STARTCHAR uni0182
ENCODING 386
SWIDTH 500 0
DWIDTH 12 0
BBX 10 16 2 0
BITMAP
FFC0
FFC0
C0C0
C0C0
C000
C000
FF00
FF00
C0C0
C0C0
C0C0
C0C0
C0C0
C0C0
FF00
FF00
ENDCHAR
STARTCHAR uni0183
ENCODING 387
SWIDTH 500 0
DWIDTH 12 0
BBX 10 18 2 0
BITMAP
FF00
FF00
C300
C300
C000
C000
FF00
FF00
C0C0
C0C0
C0C0
C0C0
C0C0
C0C0
C0C0
C0C0
FF00
FF00
ENDCHAR
STARTCHAR uni0184
ENCODING 388
SWIDTH 500 0
DWIDTH 12 0
BBX 10 16 2 0
BITMAP
3000
3000
F000
F000
3000
3000
3F00
3F00
30C0
30C0
30C0
30C0
30C0
30C0
3F00
3F00
ENDCHAR
STARTCHAR uni0185
ENCODING 389
SWIDTH 500 0
DWIDTH 12 0
BBX 10 18 2 0
BITMAP
3000
3000
F000
F000
3000
3000
3F00
3F00
30C0
30C0
30C0
30C0
30C0
30C0
30C0
30C0
3F00
3F00
ENDCHAR
STARTCHAR uni0186
ENCODING 390
SWIDTH 500 0
DWIDTH 12 0
BBX 10 16 2 0
BITMAP
3F00
3F00
C0C0
C0C0
00C0
00C0
00C0
00C0
00C0
00C0
00C0
00C0
C0C0
C0C0
3F00
3F00
ENDCHAR
STARTCHAR uni0187
ENCODING 391
SWIDTH 500 0
DWIDTH 12 0
BBX 10 20 2 0
BITMAP
00C0
00C0
00C0
00C0
3F00
3F00
C000
C000
C000
C000
C000
C000
C000
C000
C000
C000
C0C0
C0C0
3F00
3F00
ENDCHAR
STARTCHAR uni0188
ENCODING 392
SWIDTH 500 0
DWIDTH 12 0
BBX 10 16 2 0
BITMAP
00C0
00C0
00C0
00C0
3F00
3F00
C000
C000
C000
C000
C000
C000
C0C0
C0C0
3F00
3F00
ENDCHAR
STARTCHAR uni0189
ENCODING 393
SWIDTH 500 0
DWIDTH 12 0
BBX 10 16 2 0
BITMAP
3C00
3C00
3300
3300
30C0
30C0
FCC0
FCC0
30C0
30C0
30C0
30C0
3300
3300
3C00
3C00
ENDCHAR
STARTCHAR uni018A
ENCODING 394
SWIDTH 500 0
DWIDTH 12 0
BBX 10 16 2 0
BITMAP
FC00
FC00
3300
3300
30C0
30C0
30C0
30C0
30C0
30C0
30C0
30C0
3300
3300
3C00
3C00
ENDCHAR
STARTCHAR uni018B
ENCODING 395
SWIDTH 500 0
DWIDTH 12 0
BBX 10 18 2 0
BITMAP
FFC0
FFC0
C0C0
C0C0
00C0
00C0
3FC0
3FC0
C0C0
C0C0
C0C0
C0C0
C0C0
C0C0
C0C0
C0C0
3FC0
3FC0
ENDCHAR
STARTCHAR uni018C
ENCODING 396
SWIDTH 500 0
DWIDTH 12 0
BBX 10 18 2 0
BITMAP
3FC0
3FC0
30C0
30C0
00C0
00C0
3FC0
3FC0
C0C0
C0C0
C0C0
C0C0
C0C0
C0C0
C0C0
C0C0
3FC0
3FC0
ENDCHAR
STARTCHAR uni018D
ENCODING 397
SWIDTH 500 0
DWIDTH 12 0
BBX 10 18 2 -6
BITMAP
3F00
3F00
C0C0
C0C0
C0C0
C0C0
C0C0
C0C0
C0C0
C0C0
3F00
3F00
0C00
0C00
0300
0300
3C00
3C00
ENDCHAR
STARTCHAR uni018E
ENCODING 398
SWIDTH 500 0
DWIDTH 12 0
BBX 10 16 2 0
BITMAP
FFC0
FFC0
00C0
00C0
00C0
00C0
00C0
00C0
3FC0
3FC0
00C0
00C0
00C0
00C0
FFC0
FFC0
ENDCHAR
STARTCHAR uni018F
ENCODING 399
SWIDTH 500 0
DWIDTH 12 0
BBX 10 16 2 0
BITMAP
3F00
3F00
C0C0
C0C0
00C0
00C0
00C0
00C0
FFC0
FFC0
C0C0
C0C0
C0C0
C0C0
3F00
3F00
ENDCHAR
STARTCHAR uni0190
ENCODING 400
SWIDTH 500 0
DWIDTH 12 0
BBX 10 16 2 0
BITMAP
3F00
3F00
C0C0
C0C0
C000
C000
3F00
3F00
C000
C000
C000
C000
C0C0
C0C0
3F00
3F00
ENDCHAR
STARTCHAR uni0191
ENCODING 401
SWIDTH 500 0
DWIDTH 12 0
BBX 14 22 -2 -6
BITMAP
0FFC
0FFC
0C00
0C00
0C00
0C00
0FF0
0FF0
0C00
0C00
0C00
0C00
0C00
0C00
0C00
0C00
0C00
0C00
0C00
0C00
F000
F000
ENDCHAR
STARTCHAR florin
ENCODING 402
SWIDTH 500 0
DWIDTH 12 0
BBX 10 22 2 -4
BITMAP
03C0
03C0
0C00
0C00
0C00
0C00
3FC0
3FC0
0C00
0C00
0C00
0C00
0C00
0C00
0C00
0C00
0C00
0C00
0C00
0C00
F000
F000
ENDCHAR
STARTCHAR uni0193
ENCODING 403
SWIDTH 500 0
DWIDTH 12 0
BBX 10 16 2 0
BITMAP
3F00
3F00
C0C0
C0C0
C000
C000
C000
C000
C3C0
C3C0
C0C0
C0C0
C0C0
C0C0
3F00
3F00
ENDCHAR
STARTCHAR uni0194
ENCODING 404
SWIDTH 500 0
DWIDTH 12 0
BBX 10 20 2 -4
BITMAP
C0C0
C0C0
C0C0
C0C0
C0C0
C0C0
C0C0
C0C0
3300
3300
3300
3300
0C00
0C00
3300
3300
3300
3300
0C00
0C00
ENDCHAR
STARTCHAR uni0195
ENCODING 405
SWIDTH 500 0
DWIDTH 12 0
BBX 10 16 2 0
BITMAP
C000
C000
C000
C000
C000
C000
F0C0
F0C0
CCC0
CCC0
CCC0
CCC0
CCC0
CCC0
C300
C300
ENDCHAR
STARTCHAR uni0196
ENCODING 406
SWIDTH 500 0
DWIDTH 12 0
BBX 8 16 4 0
BITMAP
F000
F000
3000
3000
3000
3000
3000
3000
3000
3000
3000
3000
3300
3300
0C00
0C00
ENDCHAR
STARTCHAR uni0197
ENCODING 407
SWIDTH 500 0
DWIDTH 12 0
BBX 6 16 4 0
BITMAP
FC00
FC00
3000
3000
3000
3000
FC00
FC00
3000
3000
3000
3000
3000
3000
FC00
FC00
ENDCHAR
STARTCHAR uni0198
ENCODING 408
SWIDTH 500 0
DWIDTH 12 0
BBX 10 16 2 0
BITMAP
C300
C300
CCC0
CCC0
CCC0
CCC0
FC00
FC00
C300
C300
C300
C300
C0C0
C0C0
C0C0
C0C0
ENDCHAR
STARTCHAR uni0199
ENCODING 409
SWIDTH 500 0
DWIDTH 12 0
BBX 10 18 2 0
BITMAP
3000
3000
CC00
CC00
C000
C000
C0C0
C0C0
C300
C300
CC00
CC00
FC00
FC00
C300
C300
C0C0
C0C0
ENDCHAR
STARTCHAR uni019A
ENCODING 410
SWIDTH 500 0
DWIDTH 12 0
BBX 6 18 4 0
BITMAP
F000
F000
3000
3000
3000
3000
FC00
FC00
3000
3000
3000
3000
3000
3000
3000
3000
3C00
3C00
ENDCHAR
STARTCHAR uni019B
ENCODING 411
SWIDTH 500 0
DWIDTH 12 0
BBX 10 16 2 0
BITMAP
F000
F000
0C00
0C00
FFC0
FFC0
0C00
0C00
3300
3300
3300
3300
C0C0
C0C0
C0C0
C0C0
ENDCHAR
STARTCHAR uni019C
ENCODING 412
SWIDTH 500 0
DWIDTH 12 0
BBX 10 18 2 0
BITMAP
CCC0
CCC0
CCC0
CCC0
CCC0
CCC0
CCC0
CCC0
CCC0
CCC0
CCC0
CCC0
CCC0
CCC0
CCC0
CCC0
33C0
33C0
ENDCHAR
STARTCHAR uni019D
ENCODING 413
SWIDTH 500 0
DWIDTH 12 0
BBX 14 22 -2 -6
BITMAP
0C0C
0C0C
0F0C
0F0C
0F0C
0F0C
0CCC
0CCC
0CCC
0CCC
0C3C
0C3C
0C3C
0C3C
0C0C
0C0C
0C00
0C00
0C00
0C00
F000
F000
ENDCHAR
STARTCHAR uni019E
ENCODING 414
SWIDTH 500 0
DWIDTH 12 0
BBX 10 16 2 -4
BITMAP
FF00
FF00
C0C0
C0C0
C0C0
C0C0
C0C0
C0C0
C0C0
C0C0
C0C0
C0C0
00C0
00C0
00C0
00C0
ENDCHAR
STARTCHAR uni019F
ENCODING 415
SWIDTH 500 0
DWIDTH 12 0
BBX 10 16 2 0
BITMAP
3F00
3F00
C0C0
C0C0
C0C0
C0C0
C0C0
C0C0
FFC0
FFC0
C0C0
C0C0
C0C0
C0C0
3F00
3F00
ENDCHAR
STARTCHAR Ohorn
ENCODING 416
SWIDTH 500 0
DWIDTH 12 0
BBX 12 18 2 0
BITMAP
0030
0030
3F30
3F30
C0C0
C0C0
C0C0
C0C0
C0C0
C0C0
C0C0
C0C0
C0C0
C0C0
C0C0
C0C0
3F00
3F00
ENDCHAR
STARTCHAR ohorn
ENCODING 417
SWIDTH 500 0
DWIDTH 12 0
BBX 12 14 2 0
BITMAP
0030
0030
3F30
3F30
C0C0
C0C0
C0C0
C0C0
C0C0
C0C0
C0C0
C0C0
3F00
3F00
ENDCHAR
STARTCHAR uni01A2
ENCODING 418
SWIDTH 500 0
DWIDTH 12 0
BBX 12 16 2 0
BITMAP
3FC0
3FC0
C330
C330
C330
C330
C330
C330
C330
C330
C330
C330
C330
C330
3C30
3C30
ENDCHAR
STARTCHAR uni01A3
ENCODING 419
SWIDTH 500 0
DWIDTH 12 0
BBX 12 16 2 -4
BITMAP
3FC0
3FC0
C330
C330
C330
C330
C330
C330
C330
C330
3C30
3C30
0030
0030
0030
0030
ENDCHAR
STARTCHAR uni01A4
ENCODING 420
SWIDTH 500 0
DWIDTH 12 0
BBX 14 16 -2 0
BITMAP
3FF0
3FF0
CC0C
CC0C
0C0C
0C0C
0C0C
0C0C
0FF0
0FF0
0C00
0C00
0C00
0C00
0C00
0C00
ENDCHAR
STARTCHAR uni01A5
ENCODING 421
SWIDTH 500 0
DWIDTH 12 0
BBX 10 24 2 -6
BITMAP
3C00
3C00
C000
C000
C000
C000
FF00
FF00
C0C0
C0C0
C0C0
C0C0
C0C0
C0C0
C0C0
C0C0
FF00
FF00
C000
C000
C000
C000
C000
C000
ENDCHAR
STARTCHAR uni01A6
ENCODING 422
SWIDTH 500 0
DWIDTH 12 0
BBX 10 18 2 -2
BITMAP
C000
C000
C000
C000
FF00
FF00
C0C0
C0C0
C0C0
C0C0
FF00
FF00
CC00
CC00
C300
C300
00C0
00C0
ENDCHAR
STARTCHAR uni01A7
ENCODING 423
SWIDTH 500 0
DWIDTH 12 0
BBX 10 16 2 0
BITMAP
3F00
3F00
C0C0
C0C0
00C0
00C0
3F00
3F00
C000
C000
C000
C000
C0C0
C0C0
3F00
3F00
ENDCHAR
STARTCHAR uni01A8
ENCODING 424
SWIDTH 500 0
DWIDTH 12 0
BBX 10 12 2 0
BITMAP
FF00
FF00
00C0
00C0
3F00
3F00
C000
C000
C000
C000
3FC0
3FC0
ENDCHAR
STARTCHAR uni01A9
ENCODING 425
SWIDTH 500 0
DWIDTH 12 0
BBX 10 16 2 0
BITMAP
FFC0
FFC0
C0C0
C0C0
3000
3000
0C00
0C00
0C00
0C00
3000
3000
C0C0
C0C0
FFC0
FFC0
ENDCHAR
STARTCHAR uni01AA
ENCODING 426
SWIDTH 500 0
DWIDTH 12 0
BBX 10 18 2 0
BITMAP
3000
3000
CC00
CC00
3C00
3C00
0C00
0C00
0C00
0C00
0C00
0C00
0C00
0C00
0CC0
0CC0
0300
0300
ENDCHAR
STARTCHAR uni01AB
ENCODING 427
SWIDTH 500 0
DWIDTH 12 0
BBX 10 20 2 -4
BITMAP
3000
3000
3000
3000
FF00
FF00
3000
3000
3000
3000
3000
3000
3000
3000
0FC0
0FC0
00C0
00C0
0F00
0F00
ENDCHAR
STARTCHAR uni01AC
ENCODING 428
SWIDTH 500 0
DWIDTH 12 0
BBX 10 16 2 0
BITMAP
3FC0
3FC0
CC00
CC00
0C00
0C00
0C00
0C00
0C00
0C00
0C00
0C00
0C00
0C00
0C00
0C00
ENDCHAR
STARTCHAR uni01AD
ENCODING 429
SWIDTH 500 0
DWIDTH 12 0
BBX 10 16 2 0
BITMAP
0C00
0C00
3000
3000
FF00
FF00
3000
3000
3000
3000
3000
3000
30C0
30C0
0F00
0F00
ENDCHAR
STARTCHAR uni01AE
ENCODING 430
SWIDTH 500 0
DWIDTH 12 0
BBX 10 18 2 -2
BITMAP
FFC0
FFC0
0C00
0C00
0C00
0C00
0C00
0C00
0C00
0C00
0C00
0C00
0C00
0C00
0C00
0C00
03C0
03C0
ENDCHAR
STARTCHAR Uhorn
ENCODING 431
SWIDTH 500 0
DWIDTH 12 0
BBX 10 20 2 0
BITMAP
03C0
03C0
00C0
00C0
C300
C300
C000
C000
C0C0
C0C0
C0C0
C0C0
C0C0
C0C0
C0C0
C0C0
C0C0
C0C0
3F00
3F00
ENDCHAR
STARTCHAR uhorn
ENCODING 432
SWIDTH 500 0
DWIDTH 12 0
BBX 10 18 2 0
BITMAP
03C0
03C0
00C0
00C0
0300
0300
C000
C000
C0C0
C0C0
C0C0
C0C0
C0C0
C0C0
C0C0
C0C0
3FC0
3FC0
ENDCHAR
STARTCHAR uni01B1
ENCODING 433
SWIDTH 500 0
DWIDTH 12 0
BBX 10 16 2 0
BITMAP
F3C0
F3C0
3300
3300
C0C0
C0C0
C0C0
C0C0
C0C0
C0C0
C0C0
C0C0
C0C0
C0C0
3F00
3F00
ENDCHAR
STARTCHAR uni01B2
ENCODING 434
SWIDTH 500 0
DWIDTH 12 0
BBX 10 16 2 0
BITMAP
C000
C000
C300
C300
C0C0
C0C0
C0C0
C0C0
C0C0
C0C0
C0C0
C0C0
C0C0
C0C0
3F00
3F00
ENDCHAR
STARTCHAR uni01B3
ENCODING 435
SWIDTH 500 0
DWIDTH 12 0
BBX 14 16 2 0
BITMAP
C030
C030
C0CC
C0CC
C0C0
C0C0
3300
3300
0C00
0C00
0C00
0C00
0C00
0C00
0C00
0C00
ENDCHAR
STARTCHAR uni01B4
ENCODING 436
SWIDTH 500 0
DWIDTH 12 0
BBX 14 18 2 -6
BITMAP
C030
C030
C0CC
C0CC
C0C0
C0C0
C0C0
C0C0
C0C0
C0C0
3FC0
3FC0
00C0
00C0
00C0
00C0
3F00
3F00
ENDCHAR
STARTCHAR uni01B5
ENCODING 437
SWIDTH 500 0
DWIDTH 12 0
BBX 10 16 2 0
BITMAP
FFC0
FFC0
0300
0300
0C00
0C00
FF00
FF00
3000
3000
3000
3000
C000
C000
FFC0
FFC0
ENDCHAR
STARTCHAR uni01B6
ENCODING 438
SWIDTH 500 0
DWIDTH 12 0
BBX 10 12 2 0
BITMAP
FFC0
FFC0
0300
0300
FFC0
FFC0
3000
3000
C000
C000
FFC0
FFC0
ENDCHAR
STARTCHAR uni01B7
ENCODING 439
SWIDTH 500 0
DWIDTH 12 0
BBX 10 16 2 0
BITMAP
FFC0
FFC0
0300
0300
0C00
0C00
3F00
3F00
00C0
00C0
00C0
00C0
C0C0
C0C0
3F00
3F00
ENDCHAR
STARTCHAR uni01B8
ENCODING 440
SWIDTH 500 0
DWIDTH 12 0
BBX 10 16 2 0
BITMAP
FFC0
FFC0
3000
3000
0C00
0C00
3F00
3F00
C000
C000
C000
C000
C0C0
C0C0
3F00
3F00
ENDCHAR
STARTCHAR uni01B9
ENCODING 441
SWIDTH 500 0
DWIDTH 12 0
BBX 10 16 2 -4
BITMAP
FFC0
FFC0
3000
3000
0C00
0C00
3F00
3F00
C000
C000
C000
C000
C0C0
C0C0
3F00
3F00
ENDCHAR
STARTCHAR uni01BA
ENCODING 442
SWIDTH 500 0
DWIDTH 12 0
BBX 10 18 2 -6
BITMAP
FFC0
FFC0
0300
0300
0C00
0C00
3F00
3F00
00C0
00C0
00C0
00C0
FF00
FF00
C000
C000
3C00
3C00
ENDCHAR
STARTCHAR uni01BB
ENCODING 443
SWIDTH 500 0
DWIDTH 12 0
BBX 10 16 2 0
BITMAP
3F00
3F00
C0C0
C0C0
00C0
00C0
0300
0300
FFC0
FFC0
3000
3000
C000
C000
FFC0
FFC0
ENDCHAR
STARTCHAR uni01BC
ENCODING 444
SWIDTH 500 0
DWIDTH 12 0
BBX 10 16 2 0
BITMAP
3FC0
3FC0
3000
3000
3000
3000
3F00
3F00
00C0
00C0
00C0
00C0
C0C0
C0C0
3F00
3F00
ENDCHAR
STARTCHAR uni01BD
ENCODING 445
SWIDTH 500 0
DWIDTH 12 0
BBX 10 16 2 -4
BITMAP
3FC0
3FC0
3000
3000
3000
3000
3F00
3F00
00C0
00C0
C0C0
C0C0
C0C0
C0C0
3F00
3F00
ENDCHAR
STARTCHAR uni01BE
ENCODING 446
SWIDTH 500 0
DWIDTH 12 0
BBX 10 16 2 0
BITMAP
0C00
0C00
3F00
3F00
0C00
0C00
0C00
0C00
0300
0300
00C0
00C0
C0C0
C0C0
3F00
3F00
ENDCHAR
STARTCHAR uni01BF
ENCODING 447
SWIDTH 500 0
DWIDTH 12 0
BBX 10 14 2 0
BITMAP
CF00
CF00
F0C0
F0C0
C0C0
C0C0
C300
C300
FC00
FC00
C000
C000
C000
C000
ENDCHAR
STARTCHAR uni01C0
ENCODING 448
SWIDTH 500 0
DWIDTH 12 0
BBX 2 16 6 0
BITMAP
C000
C000
C000
C000
C000
C000
C000
C000
C000
C000
C000
C000
C000
C000
C000
C000
ENDCHAR
STARTCHAR uni01C1
ENCODING 449
SWIDTH 500 0
DWIDTH 12 0
BBX 6 16 4 0
BITMAP
CC00
CC00
CC00
CC00
CC00
CC00
CC00
CC00
CC00
CC00
CC00
CC00
CC00
CC00
CC00
CC00
ENDCHAR
STARTCHAR uni01C2
ENCODING 450
SWIDTH 500 0
DWIDTH 12 0
BBX 10 16 2 0
BITMAP
0C00
0C00
0C00
0C00
FFC0
FFC0
0C00
0C00
FFC0
FFC0
0C00
0C00
0C00
0C00
0C00
0C00
ENDCHAR
STARTCHAR uni01C3
ENCODING 451
SWIDTH 500 0
DWIDTH 12 0
BBX 2 14 6 0
BITMAP
C000
C000
C000
C000
C000
C000
C000
C000
C000
C000
0000
0000
C000
C000
ENDCHAR
STARTCHAR uni01CD
ENCODING 461
SWIDTH 500 0
DWIDTH 12 0
BBX 10 20 2 0
BITMAP
3300
3300
0C00
0C00
0000
0000
3F00
3F00
C0C0
C0C0
C0C0
C0C0
FFC0
FFC0
C0C0
C0C0
C0C0
C0C0
C0C0
C0C0
ENDCHAR
STARTCHAR uni01CE
ENCODING 462
SWIDTH 500 0
DWIDTH 12 0
BBX 10 18 2 0
BITMAP
3300
3300
0C00
0C00
0000
0000
3FC0
3FC0
C0C0
C0C0
C0C0
C0C0
C0C0
C0C0
C3C0
C3C0
3CC0
3CC0
ENDCHAR
STARTCHAR uni01CF
ENCODING 463
SWIDTH 500 0
DWIDTH 12 0
BBX 6 20 4 0
BITMAP
CC00
CC00
3000
3000
0000
0000
FC00
FC00
3000
3000
3000
3000
3000
3000
3000
3000
3000
3000
FC00
FC00
ENDCHAR
STARTCHAR uni01D0
ENCODING 464
SWIDTH 500 0
DWIDTH 12 0
BBX 8 18 4 0
BITMAP
CC00
CC00
3000
3000
0000
0000
F000
F000
3000
3000
3000
3000
3000
3000
3000
3000
0F00
0F00
ENDCHAR
STARTCHAR uni01D1
ENCODING 465
SWIDTH 500 0
DWIDTH 12 0
BBX 10 20 2 0
BITMAP
3300
3300
0C00
0C00
0000
0000
3F00
3F00
C0C0
C0C0
C0C0
C0C0
C0C0
C0C0
C0C0
C0C0
C0C0
C0C0
3F00
3F00
ENDCHAR
STARTCHAR uni01D2
ENCODING 466
SWIDTH 500 0
DWIDTH 12 0
BBX 10 18 2 0
BITMAP
3300
3300
0C00
0C00
0000
0000
3F00
3F00
C0C0
C0C0
C0C0
C0C0
C0C0
C0C0
C0C0
C0C0
3F00
3F00
ENDCHAR
STARTCHAR uni01D3
ENCODING 467
SWIDTH 500 0
DWIDTH 12 0
BBX 10 20 2 0
BITMAP
3300
3300
0C00
0C00
C0C0
C0C0
C0C0
C0C0
C0C0
C0C0
C0C0
C0C0
C0C0
C0C0
C0C0
C0C0
C0C0
C0C0
3F00
3F00
ENDCHAR
STARTCHAR uni01D4
ENCODING 468
SWIDTH 500 0
DWIDTH 12 0
BBX 10 16 2 0
BITMAP
3300
3300
0C00
0C00
C0C0
C0C0
C0C0
C0C0
C0C0
C0C0
C0C0
C0C0
C0C0
C0C0
3FC0
3FC0
ENDCHAR
STARTCHAR uni01D5
ENCODING 469
SWIDTH 500 0
DWIDTH 12 0
BBX 10 20 2 0
BITMAP
3F00
3F00
0000
0000
C0C0
C0C0
0000
0000
C0C0
C0C0
C0C0
C0C0
C0C0
C0C0
C0C0
C0C0
C0C0
C0C0
3F00
3F00
ENDCHAR
STARTCHAR uni01D6
ENCODING 470
SWIDTH 500 0
DWIDTH 12 0
BBX 10 20 2 0
BITMAP
3F00
3F00
0000
0000
3300
3300
0000
0000
C0C0
C0C0
C0C0
C0C0
C0C0
C0C0
C0C0
C0C0
C0C0
C0C0
3FC0
3FC0
ENDCHAR
STARTCHAR uni01D7
ENCODING 471
SWIDTH 500 0
DWIDTH 12 0
BBX 10 20 2 0
BITMAP
0300
0300
0C00
0C00
C0C0
C0C0
0000
0000
C0C0
C0C0
C0C0
C0C0
C0C0
C0C0
C0C0
C0C0
C0C0
C0C0
3F00
3F00
ENDCHAR
STARTCHAR uni01D8
ENCODING 472
SWIDTH 500 0
DWIDTH 12 0
BBX 10 20 2 0
BITMAP
0300
0300
0C00
0C00
0000
0000
3300
3300
0000
0000
C0C0
C0C0
C0C0
C0C0
C0C0
C0C0
C0C0
C0C0
3FC0
3FC0
ENDCHAR
STARTCHAR uni01D9
ENCODING 473
SWIDTH 500 0
DWIDTH 12 0
BBX 10 20 2 0
BITMAP
3300
3300
0C00
0C00
C0C0
C0C0
0000
0000
C0C0
C0C0
C0C0
C0C0
C0C0
C0C0
C0C0
C0C0
C0C0
C0C0
3F00
3F00
ENDCHAR
STARTCHAR uni01DA
ENCODING 474
SWIDTH 500 0
DWIDTH 12 0
BBX 10 20 2 0
BITMAP
3300
3300
0C00
0C00
0000
0000
3300
3300
0000
0000
C0C0
C0C0
C0C0
C0C0
C0C0
C0C0
C0C0
C0C0
3FC0
3FC0
ENDCHAR
STARTCHAR uni01DB
ENCODING 475
SWIDTH 500 0
DWIDTH 12 0
BBX 10 20 2 0
BITMAP
3000
3000
0C00
0C00
C0C0
C0C0
0000
0000
C0C0
C0C0
C0C0
C0C0
C0C0
C0C0
C0C0
C0C0
C0C0
C0C0
3F00
3F00
ENDCHAR
STARTCHAR uni01DC
ENCODING 476
SWIDTH 500 0
DWIDTH 12 0
BBX 10 20 2 0
BITMAP
3000
3000
0C00
0C00
0000
0000
3300
3300
0000
0000
C0C0
C0C0
C0C0
C0C0
C0C0
C0C0
C0C0
C0C0
3FC0
3FC0
ENDCHAR
STARTCHAR uni01DD
ENCODING 477
SWIDTH 500 0
DWIDTH 12 0
BBX 10 12 2 0
BITMAP
3F00
3F00
C0C0
C0C0
00C0
00C0
FFC0
FFC0
C0C0
C0C0
3F00
3F00
ENDCHAR
STARTCHAR uni01DE
ENCODING 478
SWIDTH 500 0
DWIDTH 12 0
BBX 10 20 2 0
BITMAP
3F00
3F00
0000
0000
3300
3300
0000
0000
3F00
3F00
C0C0
C0C0
C0C0
C0C0
FFC0
FFC0
C0C0
C0C0
C0C0
C0C0
ENDCHAR
STARTCHAR uni01DF
ENCODING 479
SWIDTH 500 0
DWIDTH 12 0
BBX 10 20 2 0
BITMAP
3F00
3F00
0000
0000
3300
3300
0000
0000
3FC0
3FC0
C0C0
C0C0
C0C0
C0C0
C0C0
C0C0
C3C0
C3C0
3CC0
3CC0
ENDCHAR
STARTCHAR uni01E0
ENCODING 480
SWIDTH 500 0
DWIDTH 12 0
BBX 10 20 2 0
BITMAP
3F00
3F00
0000
0000
0C00
0C00
0000
0000
3F00
3F00
C0C0
C0C0
C0C0
C0C0
FFC0
FFC0
C0C0
C0C0
C0C0
C0C0
ENDCHAR
STARTCHAR uni01E1
ENCODING 481
SWIDTH 500 0
DWIDTH 12 0
BBX 10 20 2 0
BITMAP
3F00
3F00
0000
0000
0C00
0C00
0000
0000
3FC0
3FC0
C0C0
C0C0
C0C0
C0C0
C0C0
C0C0
C3C0
C3C0
3CC0
3CC0
ENDCHAR
STARTCHAR uni01E2
ENCODING 482
SWIDTH 500 0
DWIDTH 12 0
BBX 10 20 2 0
BITMAP
3F00
3F00
0000
0000
3FC0
3FC0
CC00
CC00
CC00
CC00
CFC0
CFC0
FC00
FC00
CC00
CC00
CC00
CC00
CFC0
CFC0
ENDCHAR
STARTCHAR uni01E3
ENCODING 483
SWIDTH 500 0
DWIDTH 12 0
BBX 10 16 2 0
BITMAP
3F00
3F00
0000
0000
3FC0
3FC0
CCC0
CCC0
CCC0
CCC0
CF00
CF00
CC00
CC00
33C0
33C0
ENDCHAR
STARTCHAR uni01E4
ENCODING 484
SWIDTH 500 0
DWIDTH 12 0
BBX 12 16 2 0
BITMAP
3F00
3F00
C0C0
C0C0
C000
C000
C3C0
C3C0
C0C0
C0C0
CFF0
CFF0
C0C0
C0C0
3F00
3F00
ENDCHAR
STARTCHAR uni01E5
ENCODING 485
SWIDTH 500 0
DWIDTH 12 0
BBX 12 18 2 -6
BITMAP
3FC0
3FC0
C0C0
C0C0
C0C0
C0C0
CFF0
CFF0
C0C0
C0C0
3FC0
3FC0
00C0
00C0
00C0
00C0
3F00
3F00
ENDCHAR
STARTCHAR Gcaron
ENCODING 486
SWIDTH 500 0
DWIDTH 12 0
BBX 10 20 2 0
BITMAP
3300
3300
0C00
0C00
0000
0000
3F00
3F00
C0C0
C0C0
C000
C000
C3C0
C3C0
C0C0
C0C0
C0C0
C0C0
3F00
3F00
ENDCHAR
STARTCHAR gcaron
ENCODING 487
SWIDTH 500 0
DWIDTH 12 0
BBX 10 24 2 -6
BITMAP
3300
3300
0C00
0C00
0000
0000
3FC0
3FC0
C0C0
C0C0
C0C0
C0C0
C0C0
C0C0
C0C0
C0C0
3FC0
3FC0
00C0
00C0
00C0
00C0
3F00
3F00
ENDCHAR
STARTCHAR uni01E8
ENCODING 488
SWIDTH 500 0
DWIDTH 12 0
BBX 10 20 2 0
BITMAP
3300
3300
0C00
0C00
C0C0
C0C0
C300
C300
CC00
CC00
FC00
FC00
C300
C300
C300
C300
C0C0
C0C0
C0C0
C0C0
ENDCHAR
STARTCHAR uni01E9
ENCODING 489
SWIDTH 500 0
DWIDTH 12 0
BBX 10 18 2 0
BITMAP
CCC0
CCC0
C300
C300
C000
C000
C0C0
C0C0
C300
C300
CC00
CC00
FC00
FC00
C300
C300
C0C0
C0C0
ENDCHAR
STARTCHAR uni01EA
ENCODING 490
SWIDTH 500 0
DWIDTH 12 0
BBX 10 20 2 -4
BITMAP
3F00
3F00
C0C0
C0C0
C0C0
C0C0
C0C0
C0C0
C0C0
C0C0
C0C0
C0C0
C0C0
C0C0
3F00
3F00
0C00
0C00
0F00
0F00
ENDCHAR
STARTCHAR uni01EB
ENCODING 491
SWIDTH 500 0
DWIDTH 12 0
BBX 10 16 2 -4
BITMAP
3F00
3F00
C0C0
C0C0
C0C0
C0C0
C0C0
C0C0
C0C0
C0C0
3F00
3F00
0300
0300
03C0
03C0
ENDCHAR
STARTCHAR uni01EC
ENCODING 492
SWIDTH 500 0
DWIDTH 12 0
BBX 10 24 2 -4
BITMAP
3F00
3F00
0000
0000
3F00
3F00
C0C0
C0C0
C0C0
C0C0
C0C0
C0C0
C0C0
C0C0
C0C0
C0C0
C0C0
C0C0
3F00
3F00
0C00
0C00
0F00
0F00
ENDCHAR
STARTCHAR uni01ED
ENCODING 493
SWIDTH 500 0
DWIDTH 12 0
BBX 10 20 2 -4
BITMAP
3F00
3F00
0000
0000
3F00
3F00
C0C0
C0C0
C0C0
C0C0
C0C0
C0C0
C0C0
C0C0
3F00
3F00
0300
0300
03C0
03C0
ENDCHAR
STARTCHAR uni01EE
ENCODING 494
SWIDTH 500 0
DWIDTH 12 0
BBX 10 20 2 0
BITMAP
3300
3300
0C00
0C00
FFC0
FFC0
0300
0300
0C00
0C00
3F00
3F00
00C0
00C0
00C0
00C0
C0C0
C0C0
3F00
3F00
ENDCHAR
STARTCHAR uni01EF
ENCODING 495
SWIDTH 500 0
DWIDTH 12 0
BBX 10 22 2 -4
BITMAP
3300
3300
0C00
0C00
0000
0000
FFC0
FFC0
0300
0300
0C00
0C00
3F00
3F00
00C0
00C0
00C0
00C0
C0C0
C0C0
3F00
3F00
ENDCHAR
STARTCHAR uni01F0
ENCODING 496
SWIDTH 500 0
DWIDTH 12 0
BBX 6 22 4 -4
BITMAP
CC00
CC00
3000
3000
0000
0000
3C00
3C00
0C00
0C00
0C00
0C00
0C00
0C00
0C00
0C00
0C00
0C00
CC00
CC00
3000
3000
ENDCHAR
STARTCHAR uni01F4
ENCODING 500
SWIDTH 500 0
DWIDTH 12 0
BBX 10 20 2 0
BITMAP
0300
0300
0C00
0C00
0000
0000
3F00
3F00
C0C0
C0C0
C000
C000
C3C0
C3C0
C0C0
C0C0
C0C0
C0C0
3F00
3F00
ENDCHAR
STARTCHAR uni01F5
ENCODING 501
SWIDTH 500 0
DWIDTH 12 0
BBX 10 24 2 -6
BITMAP
0300
0300
0C00
0C00
0000
0000
3FC0
3FC0
C0C0
C0C0
C0C0
C0C0
C0C0
C0C0
C0C0
C0C0
3FC0
3FC0
00C0
00C0
00C0
00C0
3F00
3F00
ENDCHAR
STARTCHAR uni01F6
ENCODING 502
SWIDTH 500 0
DWIDTH 12 0
BBX 10 16 2 0
BITMAP
CC00
CC00
CC00
CC00
CC00
CC00
FCC0
FCC0
CCC0
CCC0
CCC0
CCC0
CCC0
CCC0
C300
C300
ENDCHAR
STARTCHAR uni01F7
ENCODING 503
SWIDTH 500 0
DWIDTH 12 0
BBX 10 16 2 0
BITMAP
CF00
CF00
F0C0
F0C0
C0C0
C0C0
C0C0
C0C0
CF00
CF00
F000
F000
C000
C000
C000
C000
ENDCHAR
STARTCHAR uni01F8
ENCODING 504
SWIDTH 500 0
DWIDTH 12 0
BBX 10 20 2 0
BITMAP
3000
3000
0C00
0C00
C0C0
C0C0
F0C0
F0C0
F0C0
F0C0
CCC0
CCC0
CCC0
CCC0
C3C0
C3C0
C3C0
C3C0
C0C0
C0C0
ENDCHAR
STARTCHAR uni01F9
ENCODING 505
SWIDTH 500 0
DWIDTH 12 0
BBX 10 18 2 0
BITMAP
3000
3000
0C00
0C00
0000
0000
FF00
FF00
C0C0
C0C0
C0C0
C0C0
C0C0
C0C0
C0C0
C0C0
C0C0
C0C0
ENDCHAR
STARTCHAR Aringacute
ENCODING 506
SWIDTH 500 0
DWIDTH 12 0
BBX 10 20 2 0
BITMAP
3000
3000
CCC0
CCC0
3300
3300
0000
0000
3F00
3F00
C0C0
C0C0
C0C0
C0C0
FFC0
FFC0
C0C0
C0C0
C0C0
C0C0
ENDCHAR
STARTCHAR aringacute
ENCODING 507
SWIDTH 500 0
DWIDTH 12 0
BBX 10 20 2 0
BITMAP
3000
3000
CCC0
CCC0
3300
3300
0000
0000
3FC0
3FC0
C0C0
C0C0
C0C0
C0C0
C0C0
C0C0
C3C0
C3C0
3CC0
3CC0
ENDCHAR
STARTCHAR AEacute
ENCODING 508
SWIDTH 500 0
DWIDTH 12 0
BBX 10 20 2 0
BITMAP
0300
0300
0C00
0C00
0000
0000
3FC0
3FC0
CC00
CC00
CFC0
CFC0
FC00
FC00
CC00
CC00
CC00
CC00
CFC0
CFC0
ENDCHAR
STARTCHAR aeacute
ENCODING 509
SWIDTH 500 0
DWIDTH 12 0
BBX 10 18 2 0
BITMAP
0300
0300
0C00
0C00
0000
0000
3F00
3F00
CCC0
CCC0
CFC0
CFC0
CC00
CC00
CCC0
CCC0
3300
3300
ENDCHAR
STARTCHAR Oslashacute
ENCODING 510
SWIDTH 500 0
DWIDTH 12 0
BBX 10 22 2 -2
BITMAP
0300
0300
0C00
0C00
00C0
00C0
3F00
3F00
C3C0
C3C0
CCC0
CCC0
CCC0
CCC0
CCC0
CCC0
F0C0
F0C0
3F00
3F00
C000
C000
ENDCHAR
STARTCHAR oslashacute
ENCODING 511
SWIDTH 500 0
DWIDTH 12 0
BBX 10 20 2 -2
BITMAP
0300
0300
0C00
0C00
00C0
00C0
3F00
3F00
C3C0
C3C0
CCC0
CCC0
CCC0
CCC0
F0C0
F0C0
3F00
3F00
C000
C000
ENDCHAR
STARTCHAR uni0200
ENCODING 512
SWIDTH 500 0
DWIDTH 12 0
BBX 10 20 2 0
BITMAP
C300
C300
30C0
30C0
0000
0000
3F00
3F00
C0C0
C0C0
C0C0
C0C0
FFC0
FFC0
C0C0
C0C0
C0C0
C0C0
C0C0
C0C0
ENDCHAR
STARTCHAR uni0201
ENCODING 513
SWIDTH 500 0
DWIDTH 12 0
BBX 10 18 2 0
BITMAP
C300
C300
30C0
30C0
0000
0000
3FC0
3FC0
C0C0
C0C0
C0C0
C0C0
C0C0
C0C0
C3C0
C3C0
3CC0
3CC0
ENDCHAR
STARTCHAR uni0202
ENCODING 514
SWIDTH 500 0
DWIDTH 12 0
BBX 10 20 2 0
BITMAP
3F00
3F00
3300
3300
0000
0000
3F00
3F00
C0C0
C0C0
C0C0
C0C0
FFC0
FFC0
C0C0
C0C0
C0C0
C0C0
C0C0
C0C0
ENDCHAR
STARTCHAR uni0203
ENCODING 515
SWIDTH 500 0
DWIDTH 12 0
BBX 10 18 2 0
BITMAP
3F00
3F00
3300
3300
0000
0000
3FC0
3FC0
C0C0
C0C0
C0C0
C0C0
C0C0
C0C0
C3C0
C3C0
3CC0
3CC0
ENDCHAR
STARTCHAR uni0204
ENCODING 516
SWIDTH 500 0
DWIDTH 12 0
BBX 10 20 2 0
BITMAP
C300
C300
30C0
30C0
0000
0000
FFC0
FFC0
C000
C000
C000
C000
FF00
FF00
C000
C000
C000
C000
FFC0
FFC0
ENDCHAR
STARTCHAR uni0205
ENCODING 517
SWIDTH 500 0
DWIDTH 12 0
BBX 10 18 2 0
BITMAP
C300
C300
30C0
30C0
0000
0000
3F00
3F00
C0C0
C0C0
FFC0
FFC0
C000
C000
C0C0
C0C0
3F00
3F00
ENDCHAR
STARTCHAR uni0206
ENCODING 518
SWIDTH 500 0
DWIDTH 12 0
BBX 10 20 2 0
BITMAP
3F00
3F00
3300
3300
0000
0000
FFC0
FFC0
C000
C000
C000
C000
FF00
FF00
C000
C000
C000
C000
FFC0
FFC0
ENDCHAR
STARTCHAR uni0207
ENCODING 519
SWIDTH 500 0
DWIDTH 12 0
BBX 10 18 2 0
BITMAP
3F00
3F00
3300
3300
0000
0000
3F00
3F00
C0C0
C0C0
FFC0
FFC0
C000
C000
C0C0
C0C0
3F00
3F00
ENDCHAR
STARTCHAR uni0208
ENCODING 520
SWIDTH 500 0
DWIDTH 12 0
BBX 10 20 2 0
BITMAP
C300
C300
30C0
30C0
0000
0000
3F00
3F00
0C00
0C00
0C00
0C00
0C00
0C00
0C00
0C00
0C00
0C00
3F00
3F00
ENDCHAR
STARTCHAR uni0209
ENCODING 521
SWIDTH 500 0
DWIDTH 12 0
BBX 10 18 2 0
BITMAP
C300
C300
30C0
30C0
0000
0000
3C00
3C00
0C00
0C00
0C00
0C00
0C00
0C00
0C00
0C00
03C0
03C0
ENDCHAR
STARTCHAR uni020A
ENCODING 522
SWIDTH 500 0
DWIDTH 12 0
BBX 6 20 4 0
BITMAP
FC00
FC00
CC00
CC00
0000
0000
FC00
FC00
3000
3000
3000
3000
3000
3000
3000
3000
3000
3000
FC00
FC00
ENDCHAR
STARTCHAR uni020B
ENCODING 523
SWIDTH 500 0
DWIDTH 12 0
BBX 8 18 4 0
BITMAP
FC00
FC00
CC00
CC00
0000
0000
F000
F000
3000
3000
3000
3000
3000
3000
3000
3000
0F00
0F00
ENDCHAR
STARTCHAR uni020C
ENCODING 524
SWIDTH 500 0
DWIDTH 12 0
BBX 10 20 2 0
BITMAP
C300
C300
30C0
30C0
0000
0000
3F00
3F00
C0C0
C0C0
C0C0
C0C0
C0C0
C0C0
C0C0
C0C0
C0C0
C0C0
3F00
3F00
ENDCHAR
STARTCHAR uni020D
ENCODING 525
SWIDTH 500 0
DWIDTH 12 0
BBX 10 18 2 0
BITMAP
C300
C300
30C0
30C0
0000
0000
3F00
3F00
C0C0
C0C0
C0C0
C0C0
C0C0
C0C0
C0C0
C0C0
3F00
3F00
ENDCHAR
STARTCHAR uni020E
ENCODING 526
SWIDTH 500 0
DWIDTH 12 0
BBX 10 20 2 0
BITMAP
3F00
3F00
3300
3300
0000
0000
3F00
3F00
C0C0
C0C0
C0C0
C0C0
C0C0
C0C0
C0C0
C0C0
C0C0
C0C0
3F00
3F00
ENDCHAR
STARTCHAR uni020F
ENCODING 527
SWIDTH 500 0
DWIDTH 12 0
BBX 10 18 2 0
BITMAP
3F00
3F00
3300
3300
0000
0000
3F00
3F00
C0C0
C0C0
C0C0
C0C0
C0C0
C0C0
C0C0
C0C0
3F00
3F00
ENDCHAR
STARTCHAR uni0210
ENCODING 528
SWIDTH 500 0
DWIDTH 12 0
BBX 10 20 2 0
BITMAP
C300
C300
30C0
30C0
0000
0000
FF00
FF00
C0C0
C0C0
C0C0
C0C0
FF00
FF00
C300
C300
C0C0
C0C0
C0C0
C0C0
ENDCHAR
STARTCHAR uni0211
ENCODING 529
SWIDTH 500 0
DWIDTH 12 0
BBX 10 18 2 0
BITMAP
C300
C300
30C0
30C0
0000
0000
FF00
FF00
C0C0
C0C0
C000
C000
C000
C000
C000
C000
C000
C000
ENDCHAR
STARTCHAR uni0212
ENCODING 530
SWIDTH 500 0
DWIDTH 12 0
BBX 10 20 2 0
BITMAP
3F00
3F00
3300
3300
0000
0000
FF00
FF00
C0C0
C0C0
C0C0
C0C0
FF00
FF00
C300
C300
C0C0
C0C0
C0C0
C0C0
ENDCHAR
STARTCHAR uni0213
ENCODING 531
SWIDTH 500 0
DWIDTH 12 0
BBX 10 18 2 0
BITMAP
3F00
3F00
3300
3300
0000
0000
FF00
FF00
C0C0
C0C0
C000
C000
C000
C000
C000
C000
C000
C000
ENDCHAR
STARTCHAR uni0214
ENCODING 532
SWIDTH 500 0
DWIDTH 12 0
BBX 10 20 2 0
BITMAP
C300
C300
30C0
30C0
0000
0000
C0C0
C0C0
C0C0
C0C0
C0C0
C0C0
C0C0
C0C0
C0C0
C0C0
C0C0
C0C0
3F00
3F00
ENDCHAR
STARTCHAR uni0215
ENCODING 533
SWIDTH 500 0
DWIDTH 12 0
BBX 10 18 2 0
BITMAP
C300
C300
30C0
30C0
0000
0000
C0C0
C0C0
C0C0
C0C0
C0C0
C0C0
C0C0
C0C0
C0C0
C0C0
3FC0
3FC0
ENDCHAR
STARTCHAR uni0216
ENCODING 534
SWIDTH 500 0
DWIDTH 12 0
BBX 10 20 2 0
BITMAP
3F00
3F00
3300
3300
0000
0000
C0C0
C0C0
C0C0
C0C0
C0C0
C0C0
C0C0
C0C0
C0C0
C0C0
C0C0
C0C0
3F00
3F00
ENDCHAR
STARTCHAR uni0217
ENCODING 535
SWIDTH 500 0
DWIDTH 12 0
BBX 10 18 2 0
BITMAP
3F00
3F00
3300
3300
0000
0000
C0C0
C0C0
C0C0
C0C0
C0C0
C0C0
C0C0
C0C0
C0C0
C0C0
3FC0
3FC0
ENDCHAR
STARTCHAR Scommaaccent
ENCODING 536
SWIDTH 500 0
DWIDTH 12 0
BBX 10 22 2 -6
BITMAP
3F00
3F00
C0C0
C0C0
C000
C000
3F00
3F00
00C0
00C0
00C0
00C0
C0C0
C0C0
3F00
3F00
0F00
0F00
0300
0300
0C00
0C00
ENDCHAR
STARTCHAR scommaaccent
ENCODING 537
SWIDTH 500 0
DWIDTH 12 0
BBX 10 18 2 -6
BITMAP
3FC0
3FC0
C000
C000
3F00
3F00
00C0
00C0
00C0
00C0
FF00
FF00
0F00
0F00
0300
0300
0C00
0C00
ENDCHAR
STARTCHAR uni021A
ENCODING 538
SWIDTH 500 0
DWIDTH 12 0
BBX 10 22 2 -6
BITMAP
FFC0
FFC0
0C00
0C00
0C00
0C00
0C00
0C00
0C00
0C00
0C00
0C00
0C00
0C00
0C00
0C00
0F00
0F00
0300
0300
0C00
0C00
ENDCHAR
STARTCHAR uni021B
ENCODING 539
SWIDTH 500 0
DWIDTH 12 0
BBX 10 22 2 -6
BITMAP
3000
3000
3000
3000
FF00
FF00
3000
3000
3000
3000
3000
3000
3000
3000
0FC0
0FC0
0F00
0F00
0300
0300
0C00
0C00
ENDCHAR
STARTCHAR uni021C
ENCODING 540
SWIDTH 500 0
DWIDTH 12 0
BBX 10 18 2 -2
BITMAP
3F00
3F00
C0C0
C0C0
00C0
00C0
0300
0300
3CC0
3CC0
00C0
00C0
00C0
00C0
0300
0300
FC00
FC00
ENDCHAR
STARTCHAR uni021D
ENCODING 541
SWIDTH 500 0
DWIDTH 12 0
BBX 10 16 2 -4
BITMAP
3F00
3F00
C0C0
C0C0
00C0
00C0
0300
0300
3CC0
3CC0
00C0
00C0
0300
0300
FC00
FC00
ENDCHAR
STARTCHAR uni021E
ENCODING 542
SWIDTH 500 0
DWIDTH 12 0
BBX 10 20 2 0
BITMAP
3300
3300
0C00
0C00
C0C0
C0C0
C0C0
C0C0
C0C0
C0C0
FFC0
FFC0
C0C0
C0C0
C0C0
C0C0
C0C0
C0C0
C0C0
C0C0
ENDCHAR
STARTCHAR uni021F
ENCODING 543
SWIDTH 500 0
DWIDTH 12 0
BBX 8 20 4 0
BITMAP
CC00
CC00
3000
3000
0000
0000
C000
C000
C000
C000
FC00
FC00
C300
C300
C300
C300
C300
C300
C300
C300
ENDCHAR
STARTCHAR uni0220
ENCODING 544
SWIDTH 500 0
DWIDTH 12 0
BBX 10 20 2 -4
BITMAP
CF00
CF00
F0C0
F0C0
C0C0
C0C0
C0C0
C0C0
C0C0
C0C0
C0C0
C0C0
C0C0
C0C0
C0C0
C0C0
00C0
00C0
00C0
00C0
ENDCHAR
STARTCHAR uni0221
ENCODING 545
SWIDTH 500 0
DWIDTH 12 0
BBX 14 22 2 -4
BITMAP
00C0
00C0
00C0
00C0
00C0
00C0
3FC0
3FC0
C0C0
C0C0
C0C0
C0C0
C0C0
C0C0
C0C0
C0C0
3FF0
3FF0
03CC
03CC
0C30
0C30
ENDCHAR
STARTCHAR uni0224
ENCODING 548
SWIDTH 500 0
DWIDTH 12 0
BBX 10 20 2 -4
BITMAP
FFC0
FFC0
0300
0300
0C00
0C00
0C00
0C00
3000
3000
3000
3000
C000
C000
FFC0
FFC0
00C0
00C0
0F00
0F00
ENDCHAR
STARTCHAR uni0225
ENCODING 549
SWIDTH 500 0
DWIDTH 12 0
BBX 10 16 2 -4
BITMAP
FFC0
FFC0
0300
0300
0C00
0C00
3000
3000
C000
C000
FFC0
FFC0
00C0
00C0
0F00
0F00
ENDCHAR
STARTCHAR uni0226
ENCODING 550
SWIDTH 500 0
DWIDTH 12 0
BBX 10 20 2 0
BITMAP
0C00
0C00
0000
0000
3F00
3F00
C0C0
C0C0
C0C0
C0C0
C0C0
C0C0
FFC0
FFC0
C0C0
C0C0
C0C0
C0C0
C0C0
C0C0
ENDCHAR
STARTCHAR uni0227
ENCODING 551
SWIDTH 500 0
DWIDTH 12 0
BBX 10 16 2 0
BITMAP
0C00
0C00
0000
0000
3FC0
3FC0
C0C0
C0C0
C0C0
C0C0
C0C0
C0C0
C3C0
C3C0
3CC0
3CC0
ENDCHAR
STARTCHAR uni0228
ENCODING 552
SWIDTH 500 0
DWIDTH 12 0
BBX 10 22 2 -6
BITMAP
FFC0
FFC0
C000
C000
C000
C000
FF00
FF00
C000
C000
C000
C000
C000
C000
FFC0
FFC0
0C00
0C00
0300
0300
3C00
3C00
ENDCHAR
STARTCHAR uni0229
ENCODING 553
SWIDTH 500 0
DWIDTH 12 0
BBX 10 18 2 -6
BITMAP
3F00
3F00
C0C0
C0C0
FFC0
FFC0
C000
C000
C0C0
C0C0
3F00
3F00
0C00
0C00
0300
0300
3C00
3C00
ENDCHAR
STARTCHAR uni022B
ENCODING 555
SWIDTH 500 0
DWIDTH 12 0
BBX 10 20 2 0
BITMAP
3F00
3F00
0000
0000
3300
3300
0000
0000
3F00
3F00
C0C0
C0C0
C0C0
C0C0
C0C0
C0C0
C0C0
C0C0
3F00
3F00
ENDCHAR
STARTCHAR uni022D
ENCODING 557
SWIDTH 500 0
DWIDTH 12 0
BBX 10 20 2 0
BITMAP
3F00
3F00
0000
0000
3CC0
3CC0
CF00
CF00
0000
0000
3F00
3F00
C0C0
C0C0
C0C0
C0C0
C0C0
C0C0
3F00
3F00
ENDCHAR
STARTCHAR uni022E
ENCODING 558
SWIDTH 500 0
DWIDTH 12 0
BBX 10 20 2 0
BITMAP
0C00
0C00
0000
0000
3F00
3F00
C0C0
C0C0
C0C0
C0C0
C0C0
C0C0
C0C0
C0C0
C0C0
C0C0
C0C0
C0C0
3F00
3F00
ENDCHAR
STARTCHAR uni022F
ENCODING 559
SWIDTH 500 0
DWIDTH 12 0
BBX 10 16 2 0
BITMAP
0C00
0C00
0000
0000
3F00
3F00
C0C0
C0C0
C0C0
C0C0
C0C0
C0C0
C0C0
C0C0
3F00
3F00
ENDCHAR
STARTCHAR uni0231
ENCODING 561
SWIDTH 500 0
DWIDTH 12 0
BBX 10 20 2 0
BITMAP
3F00
3F00
0000
0000
0C00
0C00
0000
0000
3F00
3F00
C0C0
C0C0
C0C0
C0C0
C0C0
C0C0
C0C0
C0C0
3F00
3F00
ENDCHAR
STARTCHAR uni0232
ENCODING 562
SWIDTH 500 0
DWIDTH 12 0
BBX 10 20 2 0
BITMAP
3F00
3F00
0000
0000
C0C0
C0C0
C0C0
C0C0
C0C0
C0C0
3300
3300
0C00
0C00
0C00
0C00
0C00
0C00
0C00
0C00
ENDCHAR
STARTCHAR uni0233
ENCODING 563
SWIDTH 500 0
DWIDTH 12 0
BBX 10 22 2 -6
BITMAP
3F00
3F00
0000
0000
C0C0
C0C0
C0C0
C0C0
C0C0
C0C0
C0C0
C0C0
C0C0
C0C0
3FC0
3FC0
00C0
00C0
00C0
00C0
3F00
3F00
ENDCHAR
STARTCHAR uni0234
ENCODING 564
SWIDTH 500 0
DWIDTH 12 0
BBX 10 20 2 -2
BITMAP
F000
F000
3000
3000
3000
3000
3000
3000
3000
3000
3000
3000
3300
3300
3CC0
3CC0
3F00
3F00
C000
C000
ENDCHAR
STARTCHAR uni0235
ENCODING 565
SWIDTH 500 0
DWIDTH 12 0
BBX 14 16 2 -4
BITMAP
FF00
FF00
C0C0
C0C0
C0C0
C0C0
C0C0
C0C0
C0C0
C0C0
C0F0
C0F0
03CC
03CC
0C30
0C30
ENDCHAR
STARTCHAR uni0236
ENCODING 566
SWIDTH 500 0
DWIDTH 12 0
BBX 10 18 2 -2
BITMAP
3000
3000
3000
3000
FF00
FF00
3000
3000
3000
3000
3300
3300
3CC0
3CC0
3F00
3F00
C000
C000
ENDCHAR
STARTCHAR uni0237
ENCODING 567
SWIDTH 500 0
DWIDTH 12 0
BBX 6 16 4 -4
BITMAP
3C00
3C00
0C00
0C00
0C00
0C00
0C00
0C00
0C00
0C00
0C00
0C00
CC00
CC00
3000
3000
ENDCHAR
STARTCHAR uni0238
ENCODING 568
SWIDTH 500 0
DWIDTH 12 0
BBX 10 18 2 0
BITMAP
0C00
0C00
0C00
0C00
0C00
0C00
3F00
3F00
CCC0
CCC0
CCC0
CCC0
CCC0
CCC0
CCC0
CCC0
3F00
3F00
ENDCHAR
STARTCHAR uni0239
ENCODING 569
SWIDTH 500 0
DWIDTH 12 0
BBX 10 18 2 -6
BITMAP
3F00
3F00
CCC0
CCC0
CCC0
CCC0
CCC0
CCC0
CCC0
CCC0
3F00
3F00
0C00
0C00
0C00
0C00
0C00
0C00
ENDCHAR
STARTCHAR uni023A
ENCODING 570
SWIDTH 500 0
DWIDTH 12 0
BBX 10 20 2 -2
BITMAP
0300
0300
3F00
3F00
C3C0
C3C0
CCC0
CCC0
CCC0
CCC0
FFC0
FFC0
CCC0
CCC0
F0C0
F0C0
F0C0
F0C0
3000
3000
ENDCHAR
STARTCHAR uni023B
ENCODING 571
SWIDTH 500 0
DWIDTH 12 0
BBX 10 20 2 -2
BITMAP
0300
0300
3F00
3F00
C3C0
C3C0
CC00
CC00
CC00
CC00
CC00
CC00
CC00
CC00
F0C0
F0C0
3F00
3F00
3000
3000
ENDCHAR
STARTCHAR uni023C
ENCODING 572
SWIDTH 500 0
DWIDTH 12 0
BBX 10 16 2 -2
BITMAP
0300
0300
3F00
3F00
C3C0
C3C0
CC00
CC00
CC00
CC00
F0C0
F0C0
3F00
3F00
3000
3000
ENDCHAR
STARTCHAR uni023D
ENCODING 573
SWIDTH 500 0
DWIDTH 12 0
BBX 10 16 2 0
BITMAP
3000
3000
3000
3000
3000
3000
FC00
FC00
3000
3000
3000
3000
3000
3000
3FC0
3FC0
ENDCHAR
STARTCHAR uni023E
ENCODING 574
SWIDTH 500 0
DWIDTH 12 0
BBX 10 16 2 0
BITMAP
FFC0
FFC0
0C00
0C00
0CC0
0CC0
0F00
0F00
0C00
0C00
3C00
3C00
CC00
CC00
0C00
0C00
ENDCHAR
STARTCHAR uni0241
ENCODING 577
SWIDTH 500 0
DWIDTH 12 0
BBX 10 16 2 0
BITMAP
3F00
3F00
C0C0
C0C0
00C0
00C0
0300
0300
0C00
0C00
0C00
0C00
0C00
0C00
0C00
0C00
ENDCHAR
STARTCHAR uni0242
ENCODING 578
SWIDTH 500 0
DWIDTH 12 0
BBX 10 12 2 0
BITMAP
3F00
3F00
C0C0
C0C0
00C0
00C0
0300
0300
0C00
0C00
0C00
0C00
ENDCHAR
STARTCHAR uni0243
ENCODING 579
SWIDTH 500 0
DWIDTH 12 0
BBX 10 16 2 0
BITMAP
3F00
3F00
30C0
30C0
30C0
30C0
3F00
3F00
30C0
30C0
FCC0
FCC0
30C0
30C0
3F00
3F00
ENDCHAR
STARTCHAR uni0245
ENCODING 581
SWIDTH 500 0
DWIDTH 12 0
BBX 10 16 2 0
BITMAP
0C00
0C00
0C00
0C00
3300
3300
3300
3300
3300
3300
C0C0
C0C0
C0C0
C0C0
C0C0
C0C0
ENDCHAR
STARTCHAR uni0246
ENCODING 582
SWIDTH 500 0
DWIDTH 12 0
BBX 10 20 2 -2
BITMAP
0300
0300
FFC0
FFC0
C300
C300
CC00
CC00
FFC0
FFC0
CC00
CC00
CC00
CC00
F000
F000
FFC0
FFC0
3000
3000
ENDCHAR
STARTCHAR uni0247
ENCODING 583
SWIDTH 500 0
DWIDTH 12 0
BBX 10 18 2 -2
BITMAP
0300
0300
0300
0300
3F00
3F00
CCC0
CCC0
FFC0
FFC0
CC00
CC00
F0C0
F0C0
3F00
3F00
3000
3000
ENDCHAR
STARTCHAR uni0250
ENCODING 592
SWIDTH 500 0
DWIDTH 12 0
BBX 10 12 2 0
BITMAP
CF00
CF00
F0C0
F0C0
C0C0
C0C0
FF00
FF00
C000
C000
3F00
3F00
ENDCHAR
STARTCHAR uni0251
ENCODING 593
SWIDTH 500 0
DWIDTH 12 0
BBX 10 12 2 0
BITMAP
3CC0
3CC0
C3C0
C3C0
C0C0
C0C0
C0C0
C0C0
C3C0
C3C0
3CC0
3CC0
ENDCHAR
STARTCHAR uni0252
ENCODING 594
SWIDTH 500 0
DWIDTH 12 0
BBX 10 12 2 0
BITMAP
CF00
CF00
F0C0
F0C0
C0C0
C0C0
C0C0
C0C0
F0C0
F0C0
CF00
CF00
ENDCHAR
STARTCHAR uni0253
ENCODING 595
SWIDTH 500 0
DWIDTH 12 0
BBX 10 18 2 0
BITMAP
3C00
3C00
C000
C000
C000
C000
FF00
FF00
C0C0
C0C0
C0C0
C0C0
C0C0
C0C0
C0C0
C0C0
FF00
FF00
ENDCHAR
STARTCHAR uni0254
ENCODING 596
SWIDTH 500 0
DWIDTH 12 0
BBX 10 12 2 0
BITMAP
3F00
3F00
C0C0
C0C0
00C0
00C0
00C0
00C0
C0C0
C0C0
3F00
3F00
ENDCHAR
STARTCHAR uni0255
ENCODING 597
SWIDTH 500 0
DWIDTH 12 0
BBX 10 12 2 0
BITMAP
3F00
3F00
C0C0
C0C0
C000
C000
CF00
CF00
30C0
30C0
CF00
CF00
ENDCHAR
STARTCHAR uni0256
ENCODING 598
SWIDTH 500 0
DWIDTH 12 0
BBX 14 24 2 -6
BITMAP
00C0
00C0
00C0
00C0
00C0
00C0
3FC0
3FC0
C0C0
C0C0
C0C0
C0C0
C0C0
C0C0
C0C0
C0C0
3FC0
3FC0
00C0
00C0
00C0
00C0
003C
003C
ENDCHAR
STARTCHAR uni0257
ENCODING 599
SWIDTH 500 0
DWIDTH 12 0
BBX 12 18 2 0
BITMAP
00F0
00F0
0300
0300
0300
0300
3F00
3F00
C300
C300
C300
C300
C300
C300
C300
C300
3F00
3F00
ENDCHAR
STARTCHAR uni0258
ENCODING 600
SWIDTH 500 0
DWIDTH 12 0
BBX 10 12 2 0
BITMAP
3F00
3F00
C0C0
C0C0
FFC0
FFC0
00C0
00C0
C0C0
C0C0
3F00
3F00
ENDCHAR
STARTCHAR uni0259
ENCODING 601
SWIDTH 500 0
DWIDTH 12 0
BBX 10 12 2 0
BITMAP
3F00
3F00
C0C0
C0C0
00C0
00C0
FFC0
FFC0
C0C0
C0C0
3F00
3F00
ENDCHAR
STARTCHAR uni025A
ENCODING 602
SWIDTH 500 0
DWIDTH 12 0
BBX 14 12 2 0
BITMAP
3F00
3F00
C0C0
C0C0
00FC
00FC
FFCC
FFCC
C0C0
C0C0
3F00
3F00
ENDCHAR
STARTCHAR uni025B
ENCODING 603
SWIDTH 500 0
DWIDTH 12 0
BBX 10 12 2 0
BITMAP
3FC0
3FC0
C000
C000
3F00
3F00
C000
C000
C000
C000
3FC0
3FC0
ENDCHAR
STARTCHAR uni025C
ENCODING 604
SWIDTH 500 0
DWIDTH 12 0
BBX 10 12 2 0
BITMAP
FF00
FF00
00C0
00C0
3F00
3F00
00C0
00C0
00C0
00C0
FF00
FF00
ENDCHAR
STARTCHAR uni025D
ENCODING 605
SWIDTH 500 0
DWIDTH 12 0
BBX 14 12 2 0
BITMAP
FF00
FF00
00FC
00FC
3F0C
3F0C
00C0
00C0
00C0
00C0
FF00
FF00
ENDCHAR
STARTCHAR uni025E
ENCODING 606
SWIDTH 500 0
DWIDTH 12 0
BBX 10 12 2 0
BITMAP
3F00
3F00
C0C0
C0C0
CF00
CF00
C0C0
C0C0
C0C0
C0C0
3F00
3F00
ENDCHAR
STARTCHAR uni025F
ENCODING 607
SWIDTH 500 0
DWIDTH 12 0
BBX 8 16 4 -4
BITMAP
3C00
3C00
0C00
0C00
3F00
3F00
0C00
0C00
0C00
0C00
0C00
0C00
CC00
CC00
3000
3000
ENDCHAR
STARTCHAR uni0260
ENCODING 608
SWIDTH 500 0
DWIDTH 12 0
BBX 12 24 2 -6
BITMAP
00C0
00C0
0330
0330
0300
0300
3F00
3F00
C300
C300
C300
C300
C300
C300
C300
C300
3F00
3F00
0300
0300
0300
0300
3C00
3C00
ENDCHAR
STARTCHAR uni0261
ENCODING 609
SWIDTH 500 0
DWIDTH 12 0
BBX 10 18 2 -6
BITMAP
3FC0
3FC0
C0C0
C0C0
C0C0
C0C0
C0C0
C0C0
C0C0
C0C0
3FC0
3FC0
00C0
00C0
00C0
00C0
3F00
3F00
ENDCHAR
STARTCHAR uni0262
ENCODING 610
SWIDTH 500 0
DWIDTH 12 0
BBX 10 12 2 0
BITMAP
3F00
3F00
C0C0
C0C0
C000
C000
C3C0
C3C0
C0C0
C0C0
3F00
3F00
ENDCHAR
STARTCHAR uni0263
ENCODING 611
SWIDTH 500 0
DWIDTH 12 0
BBX 10 18 2 -6
BITMAP
C0C0
C0C0
C0C0
C0C0
3300
3300
3300
3300
0C00
0C00
0C00
0C00
3300
3300
3300
3300
0C00
0C00
ENDCHAR
STARTCHAR uni0264
ENCODING 612
SWIDTH 500 0
DWIDTH 12 0
BBX 10 14 2 -2
BITMAP
C0C0
C0C0
C0C0
C0C0
3300
3300
3300
3300
0C00
0C00
3300
3300
0C00
0C00
ENDCHAR
STARTCHAR uni0265
ENCODING 613
SWIDTH 500 0
DWIDTH 12 0
BBX 10 18 2 -6
BITMAP
C0C0
C0C0
C0C0
C0C0
C0C0
C0C0
C0C0
C0C0
C0C0
C0C0
3FC0
3FC0
00C0
00C0
00C0
00C0
00C0
00C0
ENDCHAR
STARTCHAR uni0266
ENCODING 614
SWIDTH 500 0
DWIDTH 12 0
BBX 10 18 2 0
BITMAP
3C00
3C00
C000
C000
C000
C000
FF00
FF00
C0C0
C0C0
C0C0
C0C0
C0C0
C0C0
C0C0
C0C0
C0C0
C0C0
ENDCHAR
STARTCHAR uni0267
ENCODING 615
SWIDTH 500 0
DWIDTH 12 0
BBX 10 24 2 -6
BITMAP
3C00
3C00
C000
C000
C000
C000
FF00
FF00
C0C0
C0C0
C0C0
C0C0
C0C0
C0C0
C0C0
C0C0
C0C0
C0C0
00C0
00C0
00C0
00C0
0F00
0F00
ENDCHAR
STARTCHAR uni0268
ENCODING 616
SWIDTH 500 0
DWIDTH 12 0
BBX 8 16 4 0
BITMAP
3000
3000
0000
0000
F000
F000
3000
3000
FC00
FC00
3000
3000
3000
3000
0F00
0F00
ENDCHAR
STARTCHAR uni0269
ENCODING 617
SWIDTH 500 0
DWIDTH 12 0
BBX 8 12 4 0
BITMAP
F000
F000
3000
3000
3000
3000
3000
3000
3000
3000
0F00
0F00
ENDCHAR
STARTCHAR uni026A
ENCODING 618
SWIDTH 500 0
DWIDTH 12 0
BBX 6 12 4 0
BITMAP
FC00
FC00
3000
3000
3000
3000
3000
3000
3000
3000
FC00
FC00
ENDCHAR
STARTCHAR uni026B
ENCODING 619
SWIDTH 500 0
DWIDTH 12 0
BBX 10 18 2 0
BITMAP
3C00
3C00
0C00
0C00
0C00
0C00
0C00
0C00
3CC0
3CC0
CF00
CF00
0C00
0C00
0C00
0C00
0F00
0F00
ENDCHAR
STARTCHAR uni026C
ENCODING 620
SWIDTH 500 0
DWIDTH 12 0
BBX 8 18 2 0
BITMAP
3C00
3C00
0C00
0C00
0C00
0C00
3C00
3C00
CC00
CC00
3F00
3F00
0C00
0C00
0C00
0C00
0F00
0F00
ENDCHAR
STARTCHAR uni026D
ENCODING 621
SWIDTH 500 0
DWIDTH 12 0
BBX 8 24 4 -6
BITMAP
F000
F000
3000
3000
3000
3000
3000
3000
3000
3000
3000
3000
3000
3000
3000
3000
3000
3000
3000
3000
3000
3000
0F00
0F00
ENDCHAR
STARTCHAR uni026E
ENCODING 622
SWIDTH 500 0
DWIDTH 12 0
BBX 12 22 2 -4
BITMAP
F000
F000
3000
3000
3000
3000
3FF0
3FF0
30C0
30C0
3300
3300
33C0
33C0
3030
3030
3030
3030
0030
0030
0FC0
0FC0
ENDCHAR
STARTCHAR uni026F
ENCODING 623
SWIDTH 500 0
DWIDTH 12 0
BBX 10 12 2 0
BITMAP
CCC0
CCC0
CCC0
CCC0
CCC0
CCC0
CCC0
CCC0
CCC0
CCC0
33C0
33C0
ENDCHAR
STARTCHAR uni0270
ENCODING 624
SWIDTH 500 0
DWIDTH 12 0
BBX 10 16 2 -4
BITMAP
CCC0
CCC0
CCC0
CCC0
CCC0
CCC0
CCC0
CCC0
CCC0
CCC0
33C0
33C0
00C0
00C0
00C0
00C0
ENDCHAR
STARTCHAR uni0271
ENCODING 625
SWIDTH 500 0
DWIDTH 12 0
BBX 10 18 2 -6
BITMAP
F300
F300
CCC0
CCC0
CCC0
CCC0
CCC0
CCC0
CCC0
CCC0
CCC0
CCC0
00C0
00C0
00C0
00C0
0300
0300
ENDCHAR
STARTCHAR uni0272
ENCODING 626
SWIDTH 500 0
DWIDTH 12 0
BBX 14 18 -2 -6
BITMAP
0FF0
0FF0
0C0C
0C0C
0C0C
0C0C
0C0C
0C0C
0C0C
0C0C
0C0C
0C0C
0C00
0C00
0C00
0C00
F000
F000
ENDCHAR
STARTCHAR uni0273
ENCODING 627
SWIDTH 500 0
DWIDTH 12 0
BBX 14 18 2 -6
BITMAP
FF00
FF00
C0C0
C0C0
C0C0
C0C0
C0C0
C0C0
C0C0
C0C0
C0C0
C0C0
00C0
00C0
00C0
00C0
003C
003C
ENDCHAR
STARTCHAR uni0274
ENCODING 628
SWIDTH 500 0
DWIDTH 12 0
BBX 10 12 2 0
BITMAP
C0C0
C0C0
F0C0
F0C0
CCC0
CCC0
C3C0
C3C0
C0C0
C0C0
C0C0
C0C0
ENDCHAR
STARTCHAR uni0275
ENCODING 629
SWIDTH 500 0
DWIDTH 12 0
BBX 10 12 2 0
BITMAP
3F00
3F00
C0C0
C0C0
FFC0
FFC0
C0C0
C0C0
C0C0
C0C0
3F00
3F00
ENDCHAR
STARTCHAR uni0276
ENCODING 630
SWIDTH 500 0
DWIDTH 12 0
BBX 10 12 2 0
BITMAP
3FC0
3FC0
CC00
CC00
CFC0
CFC0
CC00
CC00
CC00
CC00
3FC0
3FC0
ENDCHAR
STARTCHAR uni0277
ENCODING 631
SWIDTH 500 0
DWIDTH 12 0
BBX 10 12 2 0
BITMAP
3F00
3F00
C0C0
C0C0
C0C0
C0C0
CCC0
CCC0
CCC0
CCC0
3300
3300
ENDCHAR
STARTCHAR uni0278
ENCODING 632
SWIDTH 500 0
DWIDTH 12 0
BBX 10 20 2 -4
BITMAP
0C00
0C00
0C00
0C00
3F00
3F00
CCC0
CCC0
CCC0
CCC0
CCC0
CCC0
CCC0
CCC0
3F00
3F00
0C00
0C00
0C00
0C00
ENDCHAR
STARTCHAR uni0279
ENCODING 633
SWIDTH 500 0
DWIDTH 12 0
BBX 10 12 2 0
BITMAP
00C0
00C0
00C0
00C0
00C0
00C0
00C0
00C0
C0C0
C0C0
3FC0
3FC0
ENDCHAR
STARTCHAR uni027A
ENCODING 634
SWIDTH 500 0
DWIDTH 12 0
BBX 10 18 2 0
BITMAP
00C0
00C0
00C0
00C0
00C0
00C0
00C0
00C0
00C0
00C0
00C0
00C0
00C0
00C0
C0C0
C0C0
3FC0
3FC0
ENDCHAR
STARTCHAR uni027B
ENCODING 635
SWIDTH 500 0
DWIDTH 12 0
BBX 14 18 2 -6
BITMAP
00C0
00C0
00C0
00C0
00C0
00C0
00C0
00C0
C0C0
C0C0
3FC0
3FC0
00C0
00C0
00C0
00C0
003C
003C
ENDCHAR
STARTCHAR uni027C
ENCODING 636
SWIDTH 500 0
DWIDTH 12 0
BBX 10 16 2 -4
BITMAP
FF00
FF00
C0C0
C0C0
C000
C000
C000
C000
C000
C000
C000
C000
C000
C000
C000
C000
ENDCHAR
STARTCHAR uni027D
ENCODING 637
SWIDTH 500 0
DWIDTH 12 0
BBX 10 18 2 -6
BITMAP
FF00
FF00
C0C0
C0C0
C000
C000
C000
C000
C000
C000
C000
C000
C000
C000
C000
C000
3C00
3C00
ENDCHAR
STARTCHAR uni027E
ENCODING 638
SWIDTH 500 0
DWIDTH 12 0
BBX 8 12 2 0
BITMAP
3F00
3F00
C000
C000
C000
C000
C000
C000
C000
C000
C000
C000
ENDCHAR
STARTCHAR uni027F
ENCODING 639
SWIDTH 500 0
DWIDTH 12 0
BBX 8 12 4 0
BITMAP
FC00
FC00
0300
0300
0300
0300
0300
0300
0300
0300
0300
0300
ENDCHAR
STARTCHAR uni0280
ENCODING 640
SWIDTH 500 0
DWIDTH 12 0
BBX 10 12 2 0
BITMAP
FF00
FF00
C0C0
C0C0
FF00
FF00
C0C0
C0C0
C0C0
C0C0
C0C0
C0C0
ENDCHAR
STARTCHAR uni0281
ENCODING 641
SWIDTH 500 0
DWIDTH 12 0
BBX 10 12 2 0
BITMAP
C0C0
C0C0
C0C0
C0C0
C0C0
C0C0
FF00
FF00
C0C0
C0C0
FF00
FF00
ENDCHAR
STARTCHAR uni0282
ENCODING 642
SWIDTH 500 0
DWIDTH 12 0
BBX 10 18 2 -6
BITMAP
3FC0
3FC0
C000
C000
3F00
3F00
00C0
00C0
00C0
00C0
FF00
FF00
C000
C000
C000
C000
3C00
3C00
ENDCHAR
STARTCHAR uni0283
ENCODING 643
SWIDTH 500 0
DWIDTH 12 0
BBX 10 24 4 -6
BITMAP
03C0
03C0
0C00
0C00
0C00
0C00
0C00
0C00
0C00
0C00
0C00
0C00
0C00
0C00
0C00
0C00
0C00
0C00
0C00
0C00
0C00
0C00
F000
F000
ENDCHAR
STARTCHAR uni0284
ENCODING 644
SWIDTH 500 0
DWIDTH 12 0
BBX 10 22 2 -4
BITMAP
03C0
03C0
0C00
0C00
0C00
0C00
0C00
0C00
0C00
0C00
0C00
0C00
3F00
3F00
0C00
0C00
0C00
0C00
CC00
CC00
3000
3000
ENDCHAR
STARTCHAR uni0285
ENCODING 645
SWIDTH 500 0
DWIDTH 12 0
BBX 10 18 2 -6
BITMAP
F000
F000
0C00
0C00
0C00
0C00
0C00
0C00
0C00
0C00
0C00
0C00
0C00
0C00
0C00
0C00
03C0
03C0
ENDCHAR
STARTCHAR uni0286
ENCODING 646
SWIDTH 500 0
DWIDTH 12 0
BBX 10 24 2 -6
BITMAP
03C0
03C0
0C00
0C00
0C00
0C00
0C00
0C00
0C00
0C00
0C00
0C00
0C00
0C00
0C00
0C00
0C00
0C00
3F00
3F00
CC00
CC00
3000
3000
ENDCHAR
STARTCHAR uni0287
ENCODING 647
SWIDTH 500 0
DWIDTH 12 0
BBX 10 16 2 0
BITMAP
FC00
FC00
0300
0300
0300
0300
0300
0300
0300
0300
3FC0
3FC0
0300
0300
0300
0300
ENDCHAR
STARTCHAR uni0288
ENCODING 648
SWIDTH 500 0
DWIDTH 12 0
BBX 10 20 2 -4
BITMAP
3000
3000
3000
3000
FF00
FF00
3000
3000
3000
3000
3000
3000
3000
3000
3000
3000
3000
3000
0FC0
0FC0
ENDCHAR
STARTCHAR uni0289
ENCODING 649
SWIDTH 500 0
DWIDTH 12 0
BBX 14 12 0 0
BITMAP
3030
3030
3030
3030
FFFC
FFFC
3030
3030
3030
3030
0FF0
0FF0
ENDCHAR
STARTCHAR uni028A
ENCODING 650
SWIDTH 500 0
DWIDTH 12 0
BBX 10 12 2 0
BITMAP
F3C0
F3C0
3300
3300
C0C0
C0C0
C0C0
C0C0
C0C0
C0C0
3F00
3F00
ENDCHAR
STARTCHAR uni028B
ENCODING 651
SWIDTH 500 0
DWIDTH 12 0
BBX 10 12 2 0
BITMAP
C300
C300
C0C0
C0C0
C0C0
C0C0
C0C0
C0C0
C0C0
C0C0
3F00
3F00
ENDCHAR
STARTCHAR uni028C
ENCODING 652
SWIDTH 500 0
DWIDTH 12 0
BBX 10 12 2 0
BITMAP
0C00
0C00
0C00
0C00
3300
3300
3300
3300
C0C0
C0C0
C0C0
C0C0
ENDCHAR
STARTCHAR uni028D
ENCODING 653
SWIDTH 500 0
DWIDTH 12 0
BBX 10 12 2 0
BITMAP
3300
3300
3300
3300
CCC0
CCC0
C0C0
C0C0
C0C0
C0C0
C0C0
C0C0
ENDCHAR
STARTCHAR uni028E
ENCODING 654
SWIDTH 500 0
DWIDTH 12 0
BBX 10 16 2 0
BITMAP
03C0
03C0
0C00
0C00
0C00
0C00
0C00
0C00
3300
3300
3300
3300
C0C0
C0C0
C0C0
C0C0
ENDCHAR
STARTCHAR uni028F
ENCODING 655
SWIDTH 500 0
DWIDTH 12 0
BBX 10 12 2 0
BITMAP
C0C0
C0C0
C0C0
C0C0
3300
3300
0C00
0C00
0C00
0C00
0C00
0C00
ENDCHAR
STARTCHAR uni0290
ENCODING 656
SWIDTH 500 0
DWIDTH 12 0
BBX 14 18 2 -6
BITMAP
FFC0
FFC0
0300
0300
0C00
0C00
3000
3000
C000
C000
FFC0
FFC0
00C0
00C0
00C0
00C0
003C
003C
ENDCHAR
STARTCHAR uni0291
ENCODING 657
SWIDTH 500 0
DWIDTH 12 0
BBX 12 14 2 -2
BITMAP
FFC0
FFC0
0300
0300
0C00
0C00
30C0
30C0
C330
C330
FFC0
FFC0
0C00
0C00
ENDCHAR
STARTCHAR uni0292
ENCODING 658
SWIDTH 500 0
DWIDTH 12 0
BBX 10 16 2 -4
BITMAP
FFC0
FFC0
0300
0300
0C00
0C00
3F00
3F00
00C0
00C0
00C0
00C0
C0C0
C0C0
3F00
3F00
ENDCHAR
STARTCHAR uni0293
ENCODING 659
SWIDTH 500 0
DWIDTH 12 0
BBX 10 16 2 -4
BITMAP
FFC0
FFC0
0300
0300
0C00
0C00
3F00
3F00
00C0
00C0
3CC0
3CC0
C300
C300
3CC0
3CC0
ENDCHAR
STARTCHAR uni0294
ENCODING 660
SWIDTH 500 0
DWIDTH 12 0
BBX 10 16 2 0
BITMAP
3F00
3F00
C0C0
C0C0
00C0
00C0
00C0
00C0
0F00
0F00
0C00
0C00
0C00
0C00
0C00
0C00
ENDCHAR
STARTCHAR uni0295
ENCODING 661
SWIDTH 500 0
DWIDTH 12 0
BBX 10 16 2 0
BITMAP
3F00
3F00
C0C0
C0C0
C000
C000
C000
C000
3C00
3C00
0C00
0C00
0C00
0C00
0C00
0C00
ENDCHAR
STARTCHAR uni0296
ENCODING 662
SWIDTH 500 0
DWIDTH 12 0
BBX 10 16 2 0
BITMAP
0C00
0C00
0C00
0C00
0C00
0C00
0F00
0F00
00C0
00C0
00C0
00C0
C0C0
C0C0
3F00
3F00
ENDCHAR
STARTCHAR uni0297
ENCODING 663
SWIDTH 500 0
DWIDTH 12 0
BBX 10 18 2 -6
BITMAP
3F00
3F00
C0C0
C0C0
C000
C000
C000
C000
C000
C000
C000
C000
C000
C000
C0C0
C0C0
3F00
3F00
ENDCHAR
STARTCHAR uni0298
ENCODING 664
SWIDTH 500 0
DWIDTH 12 0
BBX 10 16 2 0
BITMAP
3F00
3F00
C0C0
C0C0
C0C0
C0C0
CCC0
CCC0
C0C0
C0C0
C0C0
C0C0
C0C0
C0C0
3F00
3F00
ENDCHAR
STARTCHAR uni0299
ENCODING 665
SWIDTH 500 0
DWIDTH 12 0
BBX 10 12 2 0
BITMAP
FF00
FF00
C0C0
C0C0
FF00
FF00
C0C0
C0C0
C0C0
C0C0
FF00
FF00
ENDCHAR
STARTCHAR uni029A
ENCODING 666
SWIDTH 500 0
DWIDTH 12 0
BBX 10 12 2 0
BITMAP
3F00
3F00
C0C0
C0C0
3CC0
3CC0
C0C0
C0C0
C0C0
C0C0
3F00
3F00
ENDCHAR
STARTCHAR uni029B
ENCODING 667
SWIDTH 500 0
DWIDTH 12 0
BBX 12 18 2 0
BITMAP
00F0
00F0
0300
0300
0300
0300
3F00
3F00
C000
C000
C000
C000
CF00
CF00
C300
C300
3C00
3C00
ENDCHAR
STARTCHAR uni029C
ENCODING 668
SWIDTH 500 0
DWIDTH 12 0
BBX 10 12 2 0
BITMAP
C0C0
C0C0
C0C0
C0C0
FFC0
FFC0
C0C0
C0C0
C0C0
C0C0
C0C0
C0C0
ENDCHAR
STARTCHAR uni029D
ENCODING 669
SWIDTH 500 0
DWIDTH 12 0
BBX 8 20 4 -4
BITMAP
0C00
0C00
0000
0000
3C00
3C00
0C00
0C00
0C00
0C00
0C00
0C00
0C00
0C00
3F00
3F00
CC00
CC00
3000
3000
ENDCHAR
STARTCHAR uni029E
ENCODING 670
SWIDTH 500 0
DWIDTH 12 0
BBX 10 18 2 -6
BITMAP
C0C0
C0C0
30C0
30C0
0FC0
0FC0
0CC0
0CC0
30C0
30C0
C0C0
C0C0
00C0
00C0
00C0
00C0
00C0
00C0
ENDCHAR
STARTCHAR uni029F
ENCODING 671
SWIDTH 500 0
DWIDTH 12 0
BBX 8 12 2 0
BITMAP
C000
C000
C000
C000
C000
C000
C000
C000
C000
C000
FF00
FF00
ENDCHAR
STARTCHAR uni02A0
ENCODING 672
SWIDTH 500 0
DWIDTH 12 0
BBX 12 24 2 -6
BITMAP
00F0
00F0
0300
0300
0300
0300
3F00
3F00
C300
C300
C300
C300
C300
C300
C300
C300
3F00
3F00
0300
0300
0300
0300
03C0
03C0
ENDCHAR
STARTCHAR uni02A1
ENCODING 673
SWIDTH 500 0
DWIDTH 12 0
BBX 10 16 2 0
BITMAP
3F00
3F00
C0C0
C0C0
00C0
00C0
0300
0300
0C00
0C00
3F00
3F00
0C00
0C00
0C00
0C00
ENDCHAR
STARTCHAR uni02A2
ENCODING 674
SWIDTH 500 0
DWIDTH 12 0
BBX 10 16 2 0
BITMAP
3F00
3F00
C0C0
C0C0
C000
C000
3000
3000
0C00
0C00
3F00
3F00
0C00
0C00
0C00
0C00
ENDCHAR
STARTCHAR uni02A3
ENCODING 675
SWIDTH 500 0
DWIDTH 12 0
BBX 10 18 2 0
BITMAP
0C00
0C00
0C00
0C00
0C00
0C00
3FC0
3FC0
CCC0
CCC0
CCC0
CCC0
CF00
CF00
CF00
CF00
3FC0
3FC0
ENDCHAR
STARTCHAR uni02A4
ENCODING 676
SWIDTH 500 0
DWIDTH 12 0
BBX 12 22 2 -4
BITMAP
0C00
0C00
0C00
0C00
0C00
0C00
3FF0
3FF0
CC30
CC30
CCC0
CCC0
CFF0
CFF0
CC30
CC30
3C30
3C30
0030
0030
03C0
03C0
ENDCHAR
STARTCHAR uni02A5
ENCODING 677
SWIDTH 500 0
DWIDTH 12 0
BBX 14 22 2 -4
BITMAP
0C00
0C00
0C00
0C00
0C00
0C00
3FC0
3FC0
CCC0
CCC0
CCC0
CCC0
CF00
CF00
CF30
CF30
3FCC
3FCC
03F0
03F0
0C00
0C00
ENDCHAR
STARTCHAR uni02A6
ENCODING 678
SWIDTH 500 0
DWIDTH 12 0
BBX 10 16 2 0
BITMAP
3000
3000
3000
3000
FFC0
FFC0
3300
3300
3300
3300
30C0
30C0
30C0
30C0
0FC0
0FC0
ENDCHAR
STARTCHAR uni02A7
ENCODING 679
SWIDTH 500 0
DWIDTH 12 0
BBX 10 20 2 -4
BITMAP
30C0
30C0
3300
3300
FF00
FF00
3300
3300
3300
3300
3300
3300
3300
3300
0F00
0F00
0300
0300
0C00
0C00
ENDCHAR
STARTCHAR uni02A8
ENCODING 680
SWIDTH 500 0
DWIDTH 12 0
BBX 14 22 2 -4
BITMAP
3000
3000
3000
3000
FC00
FC00
30C0
30C0
3330
3330
3300
3300
3300
3300
3330
3330
0CCC
0CCC
00F0
00F0
0300
0300
ENDCHAR
STARTCHAR uni02AE
ENCODING 686
SWIDTH 500 0
DWIDTH 12 0
BBX 10 16 2 -4
BITMAP
C0C0
C0C0
30C0
30C0
30C0
30C0
30C0
30C0
30C0
30C0
0FC0
0FC0
00C0
00C0
00C0
00C0
ENDCHAR
STARTCHAR uni02AF
ENCODING 687
SWIDTH 500 0
DWIDTH 12 0
BBX 14 18 2 -6
BITMAP
C0C0
C0C0
30C0
30C0
30C0
30C0
30C0
30C0
30C0
30C0
0FC0
0FC0
00C0
00C0
00C0
00C0
003C
003C
ENDCHAR
STARTCHAR uni02B0
ENCODING 688
SWIDTH 500 0
DWIDTH 12 0
BBX 6 12 4 8
BITMAP
C000
C000
C000
C000
F000
F000
CC00
CC00
CC00
CC00
CC00
CC00
ENDCHAR
STARTCHAR uni02B1
ENCODING 689
SWIDTH 500 0
DWIDTH 12 0
BBX 6 12 4 8
BITMAP
3000
3000
C000
C000
F000
F000
CC00
CC00
CC00
CC00
CC00
CC00
ENDCHAR
STARTCHAR uni02B2
ENCODING 690
SWIDTH 500 0
DWIDTH 12 0
BBX 4 12 4 6
BITMAP
3000
3000
0000
0000
F000
F000
3000
3000
3000
3000
C000
C000
ENDCHAR
STARTCHAR uni02B3
ENCODING 691
SWIDTH 500 0
DWIDTH 12 0
BBX 6 10 4 8
BITMAP
3C00
3C00
C000
C000
C000
C000
C000
C000
C000
C000
ENDCHAR
STARTCHAR uni02B4
ENCODING 692
SWIDTH 500 0
DWIDTH 12 0
BBX 6 10 4 8
BITMAP
0C00
0C00
0C00
0C00
0C00
0C00
0C00
0C00
F000
F000
ENDCHAR
STARTCHAR uni02B5
ENCODING 693
SWIDTH 500 0
DWIDTH 12 0
BBX 8 12 2 6
BITMAP
0C00
0C00
0C00
0C00
0C00
0C00
FC00
FC00
0C00
0C00
0300
0300
ENDCHAR
STARTCHAR uni02B6
ENCODING 694
SWIDTH 500 0
DWIDTH 12 0
BBX 8 10 2 8
BITMAP
C300
C300
CC00
CC00
FC00
FC00
C300
C300
FC00
FC00
ENDCHAR
STARTCHAR uni02B7
ENCODING 695
SWIDTH 500 0
DWIDTH 12 0
BBX 8 10 2 8
BITMAP
C300
C300
C300
C300
F300
F300
F300
F300
3C00
3C00
ENDCHAR
STARTCHAR uni02B8
ENCODING 696
SWIDTH 500 0
DWIDTH 12 0
BBX 6 10 4 6
BITMAP
CC00
CC00
CC00
CC00
3C00
3C00
0C00
0C00
F000
F000
ENDCHAR
STARTCHAR uni02B9
ENCODING 697
SWIDTH 500 0
DWIDTH 12 0
BBX 4 6 6 14
BITMAP
3000
3000
C000
C000
C000
C000
ENDCHAR
STARTCHAR uni02BA
ENCODING 698
SWIDTH 500 0
DWIDTH 12 0
BBX 8 6 4 14
BITMAP
3300
3300
CC00
CC00
CC00
CC00
ENDCHAR
STARTCHAR uni02BB
ENCODING 699
SWIDTH 500 0
DWIDTH 12 0
BBX 4 6 6 14
BITMAP
3000
3000
C000
C000
F000
F000
ENDCHAR
STARTCHAR afii57929
ENCODING 700
SWIDTH 500 0
DWIDTH 12 0
BBX 4 6 4 14
BITMAP
F000
F000
3000
3000
C000
C000
ENDCHAR
STARTCHAR afii64937
ENCODING 701
SWIDTH 500 0
DWIDTH 12 0
BBX 4 6 6 14
BITMAP
F000
F000
C000
C000
3000
3000
ENDCHAR
STARTCHAR uni02BE
ENCODING 702
SWIDTH 500 0
DWIDTH 12 0
BBX 4 8 6 12
BITMAP
C000
C000
3000
3000
3000
3000
C000
C000
ENDCHAR
STARTCHAR uni02BF
ENCODING 703
SWIDTH 500 0
DWIDTH 12 0
BBX 4 8 6 12
BITMAP
3000
3000
C000
C000
C000
C000
3000
3000
ENDCHAR
STARTCHAR uni02C0
ENCODING 704
SWIDTH 500 0
DWIDTH 12 0
BBX 6 10 4 8
BITMAP
F000
F000
0C00
0C00
0C00
0C00
3000
3000
3000
3000
ENDCHAR
STARTCHAR uni02C1
ENCODING 705
SWIDTH 500 0
DWIDTH 12 0
BBX 6 10 4 8
BITMAP
3C00
3C00
C000
C000
C000
C000
3000
3000
3000
3000
ENDCHAR
STARTCHAR uni02C2
ENCODING 706
SWIDTH 500 0
DWIDTH 12 0
BBX 6 10 4 8
BITMAP
0C00
0C00
3000
3000
C000
C000
3000
3000
0C00
0C00
ENDCHAR
STARTCHAR uni02C3
ENCODING 707
SWIDTH 500 0
DWIDTH 12 0
BBX 6 10 4 8
BITMAP
C000
C000
3000
3000
0C00
0C00
3000
3000
C000
C000
ENDCHAR
STARTCHAR uni02C4
ENCODING 708
SWIDTH 500 0
DWIDTH 12 0
BBX 10 6 2 10
BITMAP
0C00
0C00
3300
3300
C0C0
C0C0
ENDCHAR
STARTCHAR uni02C5
ENCODING 709
SWIDTH 500 0
DWIDTH 12 0
BBX 10 6 2 10
BITMAP
C0C0
C0C0
3300
3300
0C00
0C00
ENDCHAR
STARTCHAR circumflex
ENCODING 710
SWIDTH 500 0
DWIDTH 12 0
BBX 6 4 4 14
BITMAP
3000
3000
CC00
CC00
ENDCHAR
STARTCHAR caron
ENCODING 711
SWIDTH 500 0
DWIDTH 12 0
BBX 6 4 4 14
BITMAP
CC00
CC00
3000
3000
ENDCHAR
STARTCHAR uni02C8
ENCODING 712
SWIDTH 500 0
DWIDTH 12 0
BBX 2 4 6 14
BITMAP
C000
C000
C000
C000
ENDCHAR
STARTCHAR uni02C9
ENCODING 713
SWIDTH 500 0
DWIDTH 12 0
BBX 6 2 4 14
BITMAP
FC00
FC00
ENDCHAR
STARTCHAR uni02CA
ENCODING 714
SWIDTH 500 0
DWIDTH 12 0
BBX 4 4 6 14
BITMAP
3000
3000
C000
C000
ENDCHAR
STARTCHAR uni02CB
ENCODING 715
SWIDTH 500 0
DWIDTH 12 0
BBX 4 4 4 14
BITMAP
C000
C000
3000
3000
ENDCHAR
STARTCHAR uni02CC
ENCODING 716
SWIDTH 500 0
DWIDTH 12 0
BBX 2 6 6 -2
BITMAP
C000
C000
C000
C000
C000
C000
ENDCHAR
STARTCHAR uni02CD
ENCODING 717
SWIDTH 500 0
DWIDTH 12 0
BBX 6 2 4 -2
BITMAP
FC00
FC00
ENDCHAR
STARTCHAR uni02CE
ENCODING 718
SWIDTH 500 0
DWIDTH 12 0
BBX 4 4 4 0
BITMAP
C000
C000
3000
3000
ENDCHAR
STARTCHAR uni02CF
ENCODING 719
SWIDTH 500 0
DWIDTH 12 0
BBX 4 4 6 0
BITMAP
3000
3000
C000
C000
ENDCHAR
STARTCHAR uni02D0
ENCODING 720
SWIDTH 500 0
DWIDTH 12 0
BBX 6 16 4 0
BITMAP
FC00
FC00
FC00
FC00
3000
3000
0000
0000
0000
0000
3000
3000
FC00
FC00
FC00
FC00
ENDCHAR
STARTCHAR uni02D1
ENCODING 721
SWIDTH 500 0
DWIDTH 12 0
BBX 6 6 4 10
BITMAP
FC00
FC00
FC00
FC00
3000
3000
ENDCHAR
STARTCHAR uni02D2
ENCODING 722
SWIDTH 500 0
DWIDTH 12 0
BBX 4 10 4 2
BITMAP
C000
C000
3000
3000
3000
3000
3000
3000
C000
C000
ENDCHAR
STARTCHAR uni02D3
ENCODING 723
SWIDTH 500 0
DWIDTH 12 0
BBX 4 10 4 2
BITMAP
3000
3000
C000
C000
C000
C000
C000
C000
3000
3000
ENDCHAR
STARTCHAR uni02D4
ENCODING 724
SWIDTH 500 0
DWIDTH 12 0
BBX 6 4 4 2
BITMAP
3000
3000
FC00
FC00
ENDCHAR
STARTCHAR uni02D5
ENCODING 725
SWIDTH 500 0
DWIDTH 12 0
BBX 6 4 4 2
BITMAP
FC00
FC00
3000
3000
ENDCHAR
STARTCHAR uni02D6
ENCODING 726
SWIDTH 500 0
DWIDTH 12 0
BBX 6 6 4 2
BITMAP
3000
3000
FC00
FC00
3000
3000
ENDCHAR
STARTCHAR uni02D7
ENCODING 727
SWIDTH 500 0
DWIDTH 12 0
BBX 6 2 4 4
BITMAP
FC00
FC00
ENDCHAR
STARTCHAR breve
ENCODING 728
SWIDTH 500 0
DWIDTH 12 0
BBX 6 4 4 14
BITMAP
CC00
CC00
FC00
FC00
ENDCHAR
STARTCHAR dotaccent
ENCODING 729
SWIDTH 500 0
DWIDTH 12 0
BBX 2 2 6 14
BITMAP
C000
C000
ENDCHAR
STARTCHAR ring
ENCODING 730
SWIDTH 500 0
DWIDTH 12 0
BBX 6 6 4 14
BITMAP
3000
3000
CC00
CC00
3000
3000
ENDCHAR
STARTCHAR ogonek
ENCODING 731
SWIDTH 500 0
DWIDTH 12 0
BBX 4 4 6 -4
BITMAP
C000
C000
F000
F000
ENDCHAR
STARTCHAR tilde
ENCODING 732
SWIDTH 500 0
DWIDTH 12 0
BBX 10 4 2 12
BITMAP
3CC0
3CC0
CF00
CF00
ENDCHAR
STARTCHAR hungarumlaut
ENCODING 733
SWIDTH 500 0
DWIDTH 12 0
BBX 10 4 4 14
BITMAP
30C0
30C0
C300
C300
ENDCHAR
STARTCHAR uni02DE
ENCODING 734
SWIDTH 500 0
DWIDTH 12 0
BBX 8 6 0 2
BITMAP
F000
F000
3300
3300
0C00
0C00
ENDCHAR
STARTCHAR uni02DF
ENCODING 735
SWIDTH 500 0
DWIDTH 12 0
BBX 6 6 4 14
BITMAP
CC00
CC00
3000
3000
CC00
CC00
ENDCHAR
STARTCHAR uni02E0
ENCODING 736
SWIDTH 500 0
DWIDTH 12 0
BBX 6 10 4 8
BITMAP
CC00
CC00
CC00
CC00
3000
3000
CC00
CC00
3000
3000
ENDCHAR
STARTCHAR uni02E1
ENCODING 737
SWIDTH 500 0
DWIDTH 12 0
BBX 6 10 4 8
BITMAP
F000
F000
3000
3000
3000
3000
3000
3000
3C00
3C00
ENDCHAR
STARTCHAR uni02E2
ENCODING 738
SWIDTH 500 0
DWIDTH 12 0
BBX 6 10 4 8
BITMAP
3C00
3C00
C000
C000
FC00
FC00
0C00
0C00
F000
F000
ENDCHAR
STARTCHAR uni02E3
ENCODING 739
SWIDTH 500 0
DWIDTH 12 0
BBX 6 10 4 8
BITMAP
CC00
CC00
CC00
CC00
3000
3000
CC00
CC00
CC00
CC00
ENDCHAR
STARTCHAR uni02E4
ENCODING 740
SWIDTH 500 0
DWIDTH 12 0
BBX 6 10 4 8
BITMAP
3C00
3C00
C000
C000
C000
C000
3000
3000
3000
3000
ENDCHAR
STARTCHAR uni02E5
ENCODING 741
SWIDTH 500 0
DWIDTH 12 0
BBX 6 18 4 0
BITMAP
FC00
FC00
0C00
0C00
0C00
0C00
0C00
0C00
0C00
0C00
0C00
0C00
0C00
0C00
0C00
0C00
0C00
0C00
ENDCHAR
STARTCHAR uni02E6
ENCODING 742
SWIDTH 500 0
DWIDTH 12 0
BBX 6 18 4 0
BITMAP
0C00
0C00
0C00
0C00
FC00
FC00
0C00
0C00
0C00
0C00
0C00
0C00
0C00
0C00
0C00
0C00
0C00
0C00
ENDCHAR
STARTCHAR uni02E7
ENCODING 743
SWIDTH 500 0
DWIDTH 12 0
BBX 6 18 4 0
BITMAP
0C00
0C00
0C00
0C00
0C00
0C00
0C00
0C00
FC00
FC00
0C00
0C00
0C00
0C00
0C00
0C00
0C00
0C00
ENDCHAR
STARTCHAR uni02E8
ENCODING 744
SWIDTH 500 0
DWIDTH 12 0
BBX 6 18 4 0
BITMAP
0C00
0C00
0C00
0C00
0C00
0C00
0C00
0C00
0C00
0C00
0C00
0C00
FC00
FC00
0C00
0C00
0C00
0C00
ENDCHAR
STARTCHAR uni02E9
ENCODING 745
SWIDTH 500 0
DWIDTH 12 0
BBX 6 18 4 0
BITMAP
0C00
0C00
0C00
0C00
0C00
0C00
0C00
0C00
0C00
0C00
0C00
0C00
0C00
0C00
0C00
0C00
FC00
FC00
ENDCHAR
STARTCHAR uni02EC
ENCODING 748
SWIDTH 500 0
DWIDTH 12 0
BBX 6 6 4 -4
BITMAP
CC00
CC00
CC00
CC00
3000
3000
ENDCHAR
STARTCHAR uni02ED
ENCODING 749
SWIDTH 500 0
DWIDTH 12 0
BBX 6 6 4 10
BITMAP
FC00
FC00
0000
0000
FC00
FC00
ENDCHAR
STARTCHAR uni02EF
ENCODING 751
SWIDTH 500 0
DWIDTH 12 0
BBX 10 6 2 -2
BITMAP
C0C0
C0C0
3300
3300
0C00
0C00
ENDCHAR
STARTCHAR uni02F0
ENCODING 752
SWIDTH 500 0
DWIDTH 12 0
BBX 10 6 2 -2
BITMAP
0C00
0C00
3300
3300
C0C0
C0C0
ENDCHAR
STARTCHAR uni02F1
ENCODING 753
SWIDTH 500 0
DWIDTH 12 0
BBX 6 10 4 -4
BITMAP
0C00
0C00
3000
3000
C000
C000
3000
3000
0C00
0C00
ENDCHAR
STARTCHAR uni02F2
ENCODING 754
SWIDTH 500 0
DWIDTH 12 0
BBX 6 10 4 -4
BITMAP
C000
C000
3000
3000
0C00
0C00
3000
3000
C000
C000
ENDCHAR
STARTCHAR uni02F3
ENCODING 755
SWIDTH 500 0
DWIDTH 12 0
BBX 6 6 4 -6
BITMAP
3000
3000
CC00
CC00
3000
3000
ENDCHAR
STARTCHAR uni02F4
ENCODING 756
SWIDTH 500 0
DWIDTH 12 0
BBX 4 4 4 10
BITMAP
C000
C000
3000
3000
ENDCHAR
STARTCHAR uni02F5
ENCODING 757
SWIDTH 500 0
DWIDTH 12 0
BBX 10 4 2 10
BITMAP
C300
C300
30C0
30C0
ENDCHAR
STARTCHAR uni02F6
ENCODING 758
SWIDTH 500 0
DWIDTH 12 0
BBX 10 4 2 10
BITMAP
30C0
30C0
C300
C300
ENDCHAR
STARTCHAR uni02F7
ENCODING 759
SWIDTH 500 0
DWIDTH 12 0
BBX 10 4 2 -4
BITMAP
3CC0
3CC0
CF00
CF00
ENDCHAR
STARTCHAR uni02F9
ENCODING 761
SWIDTH 500 0
DWIDTH 12 0
BBX 6 6 2 12
BITMAP
FC00
FC00
C000
C000
C000
C000
ENDCHAR
STARTCHAR uni02FA
ENCODING 762
SWIDTH 500 0
DWIDTH 12 0
BBX 6 6 6 12
BITMAP
FC00
FC00
0C00
0C00
0C00
0C00
ENDCHAR
STARTCHAR uni02FB
ENCODING 763
SWIDTH 500 0
DWIDTH 12 0
BBX 6 6 2 -2
BITMAP
C000
C000
C000
C000
FC00
FC00
ENDCHAR
STARTCHAR uni02FC
ENCODING 764
SWIDTH 500 0
DWIDTH 12 0
BBX 6 6 6 -2
BITMAP
0C00
0C00
0C00
0C00
FC00
FC00
ENDCHAR
STARTCHAR uni02FD
ENCODING 765
SWIDTH 500 0
DWIDTH 12 0
BBX 10 4 2 -4
BITMAP
C0C0
C0C0
FFC0
FFC0
ENDCHAR
STARTCHAR uni02FE
ENCODING 766
SWIDTH 500 0
DWIDTH 12 0
BBX 10 4 2 -4
BITMAP
C000
C000
FFC0
FFC0
ENDCHAR
STARTCHAR gravecomb
ENCODING 768
SWIDTH 500 0
DWIDTH 12 0
BBX 4 4 4 14
BITMAP
C000
C000
3000
3000
ENDCHAR
STARTCHAR acutecomb
ENCODING 769
SWIDTH 500 0
DWIDTH 12 0
BBX 4 4 6 14
BITMAP
3000
3000
C000
C000
ENDCHAR
STARTCHAR uni0302
ENCODING 770
SWIDTH 500 0
DWIDTH 12 0
BBX 6 4 4 14
BITMAP
3000
3000
CC00
CC00
ENDCHAR
STARTCHAR tildecomb
ENCODING 771
SWIDTH 500 0
DWIDTH 12 0
BBX 10 4 2 14
BITMAP
3CC0
3CC0
CF00
CF00
ENDCHAR
STARTCHAR uni0304
ENCODING 772
SWIDTH 500 0
DWIDTH 12 0
BBX 6 2 4 14
BITMAP
FC00
FC00
ENDCHAR
STARTCHAR uni0305
ENCODING 773
SWIDTH 500 0
DWIDTH 12 0
BBX 10 2 2 14
BITMAP
FFC0
FFC0
ENDCHAR
STARTCHAR uni0306
ENCODING 774
SWIDTH 500 0
DWIDTH 12 0
BBX 6 4 4 14
BITMAP
CC00
CC00
FC00
FC00
ENDCHAR
STARTCHAR uni0307
ENCODING 775
SWIDTH 500 0
DWIDTH 12 0
BBX 2 2 6 14
BITMAP
C000
C000
ENDCHAR
STARTCHAR uni0308
ENCODING 776
SWIDTH 500 0
DWIDTH 12 0
BBX 6 2 4 14
BITMAP
CC00
CC00
ENDCHAR
STARTCHAR hookabovecomb
ENCODING 777
SWIDTH 500 0
DWIDTH 12 0
BBX 6 6 4 14
BITMAP
FC00
FC00
0C00
0C00
3000
3000
ENDCHAR
STARTCHAR uni030A
ENCODING 778
SWIDTH 500 0
DWIDTH 12 0
BBX 6 6 4 14
BITMAP
3000
3000
CC00
CC00
3000
3000
ENDCHAR
STARTCHAR uni030B
ENCODING 779
SWIDTH 500 0
DWIDTH 12 0
BBX 10 4 4 14
BITMAP
30C0
30C0
C300
C300
ENDCHAR
STARTCHAR uni030C
ENCODING 780
SWIDTH 500 0
DWIDTH 12 0
BBX 6 4 4 14
BITMAP
CC00
CC00
3000
3000
ENDCHAR
STARTCHAR uni030D
ENCODING 781
SWIDTH 500 0
DWIDTH 12 0
BBX 2 4 6 14
BITMAP
C000
C000
C000
C000
ENDCHAR
STARTCHAR uni030E
ENCODING 782
SWIDTH 500 0
DWIDTH 12 0
BBX 6 4 4 14
BITMAP
CC00
CC00
CC00
CC00
ENDCHAR
STARTCHAR uni030F
ENCODING 783
SWIDTH 500 0
DWIDTH 12 0
BBX 10 4 2 14
BITMAP
C300
C300
30C0
30C0
ENDCHAR
STARTCHAR uni0310
ENCODING 784
SWIDTH 500 0
DWIDTH 12 0
BBX 10 6 2 14
BITMAP
0C00
0C00
C0C0
C0C0
3F00
3F00
ENDCHAR
STARTCHAR uni0311
ENCODING 785
SWIDTH 500 0
DWIDTH 12 0
BBX 6 4 4 14
BITMAP
FC00
FC00
CC00
CC00
ENDCHAR
STARTCHAR uni0312
ENCODING 786
SWIDTH 500 0
DWIDTH 12 0
BBX 4 6 6 14
BITMAP
3000
3000
C000
C000
F000
F000
ENDCHAR
STARTCHAR uni0313
ENCODING 787
SWIDTH 500 0
DWIDTH 12 0
BBX 4 6 4 14
BITMAP
F000
F000
3000
3000
C000
C000
ENDCHAR
STARTCHAR uni0314
ENCODING 788
SWIDTH 500 0
DWIDTH 12 0
BBX 4 6 6 14
BITMAP
F000
F000
C000
C000
3000
3000
ENDCHAR
STARTCHAR uni0315
ENCODING 789
SWIDTH 500 0
DWIDTH 12 0
BBX 4 6 10 14
BITMAP
F000
F000
3000
3000
C000
C000
ENDCHAR
STARTCHAR uni0316
ENCODING 790
SWIDTH 500 0
DWIDTH 12 0
BBX 4 4 6 -6
BITMAP
C000
C000
3000
3000
ENDCHAR
STARTCHAR uni0317
ENCODING 791
SWIDTH 500 0
DWIDTH 12 0
BBX 4 4 4 -6
BITMAP
3000
3000
C000
C000
ENDCHAR
STARTCHAR uni0318
ENCODING 792
SWIDTH 500 0
DWIDTH 12 0
BBX 4 6 4 -6
BITMAP
3000
3000
F000
F000
3000
3000
ENDCHAR
STARTCHAR uni0319
ENCODING 793
SWIDTH 500 0
DWIDTH 12 0
BBX 4 6 6 -6
BITMAP
C000
C000
F000
F000
C000
C000
ENDCHAR
STARTCHAR uni031A
ENCODING 794
SWIDTH 500 0
DWIDTH 12 0
BBX 6 4 4 14
BITMAP
FC00
FC00
0C00
0C00
ENDCHAR
STARTCHAR uni031B
ENCODING 795
SWIDTH 500 0
DWIDTH 12 0
BBX 6 6 8 12
BITMAP
0C00
0C00
0C00
0C00
F000
F000
ENDCHAR
STARTCHAR uni031C
ENCODING 796
SWIDTH 500 0
DWIDTH 12 0
BBX 4 6 4 -6
BITMAP
3000
3000
C000
C000
3000
3000
ENDCHAR
STARTCHAR uni031D
ENCODING 797
SWIDTH 500 0
DWIDTH 12 0
BBX 6 4 4 -6
BITMAP
3000
3000
FC00
FC00
ENDCHAR
STARTCHAR uni031E
ENCODING 798
SWIDTH 500 0
DWIDTH 12 0
BBX 6 4 4 -6
BITMAP
FC00
FC00
3000
3000
ENDCHAR
STARTCHAR uni031F
ENCODING 799
SWIDTH 500 0
DWIDTH 12 0
BBX 6 6 4 -6
BITMAP
3000
3000
FC00
FC00
3000
3000
ENDCHAR
STARTCHAR uni0320
ENCODING 800
SWIDTH 500 0
DWIDTH 12 0
BBX 6 2 4 -4
BITMAP
FC00
FC00
ENDCHAR
STARTCHAR dotbelowcomb
ENCODING 803
SWIDTH 500 0
DWIDTH 12 0
BBX 2 2 6 -4
BITMAP
C000
C000
ENDCHAR
STARTCHAR uni0324
ENCODING 804
SWIDTH 500 0
DWIDTH 12 0
BBX 6 2 4 -4
BITMAP
CC00
CC00
ENDCHAR
STARTCHAR uni0325
ENCODING 805
SWIDTH 500 0
DWIDTH 12 0
BBX 6 6 4 -6
BITMAP
3000
3000
CC00
CC00
3000
3000
ENDCHAR
STARTCHAR uni0326
ENCODING 806
SWIDTH 500 0
DWIDTH 12 0
BBX 4 6 6 -6
BITMAP
F000
F000
3000
3000
C000
C000
ENDCHAR
STARTCHAR uni0327
ENCODING 807
SWIDTH 500 0
DWIDTH 12 0
BBX 6 6 4 -6
BITMAP
3000
3000
0C00
0C00
F000
F000
ENDCHAR
STARTCHAR uni0328
ENCODING 808
SWIDTH 500 0
DWIDTH 12 0
BBX 4 4 6 -4
BITMAP
C000
C000
F000
F000
ENDCHAR
STARTCHAR uni0329
ENCODING 809
SWIDTH 500 0
DWIDTH 12 0
BBX 2 6 6 -6
BITMAP
C000
C000
C000
C000
C000
C000
ENDCHAR
STARTCHAR uni032A
ENCODING 810
SWIDTH 500 0
DWIDTH 12 0
BBX 10 4 2 -6
BITMAP
FFC0
FFC0
C0C0
C0C0
ENDCHAR
STARTCHAR uni032B
ENCODING 811
SWIDTH 500 0
DWIDTH 12 0
BBX 10 4 2 -6
BITMAP
CCC0
CCC0
3300
3300
ENDCHAR
STARTCHAR uni032C
ENCODING 812
SWIDTH 500 0
DWIDTH 12 0
BBX 6 4 4 -6
BITMAP
CC00
CC00
3000
3000
ENDCHAR
STARTCHAR uni032D
ENCODING 813
SWIDTH 500 0
DWIDTH 12 0
BBX 6 4 4 -6
BITMAP
3000
3000
CC00
CC00
ENDCHAR
STARTCHAR uni032E
ENCODING 814
SWIDTH 500 0
DWIDTH 12 0
BBX 6 4 4 -6
BITMAP
CC00
CC00
FC00
FC00
ENDCHAR
STARTCHAR uni032F
ENCODING 815
SWIDTH 500 0
DWIDTH 12 0
BBX 6 4 4 -6
BITMAP
FC00
FC00
CC00
CC00
ENDCHAR
STARTCHAR uni0330
ENCODING 816
SWIDTH 500 0
DWIDTH 12 0
BBX 10 4 2 -6
BITMAP
3CC0
3CC0
CF00
CF00
ENDCHAR
STARTCHAR uni0331
ENCODING 817
SWIDTH 500 0
DWIDTH 12 0
BBX 6 2 4 -4
BITMAP
FC00
FC00
ENDCHAR
STARTCHAR uni0332
ENCODING 818
SWIDTH 500 0
DWIDTH 12 0
BBX 10 2 2 -4
BITMAP
FFC0
FFC0
ENDCHAR
STARTCHAR uni0333
ENCODING 819
SWIDTH 500 0
DWIDTH 12 0
BBX 10 6 2 -6
BITMAP
FFC0
FFC0
0000
0000
FFC0
FFC0
ENDCHAR
STARTCHAR uni0339
ENCODING 825
SWIDTH 500 0
DWIDTH 12 0
BBX 4 6 4 -6
BITMAP
C000
C000
3000
3000
C000
C000
ENDCHAR
STARTCHAR uni033A
ENCODING 826
SWIDTH 500 0
DWIDTH 12 0
BBX 10 4 2 -6
BITMAP
C0C0
C0C0
FFC0
FFC0
ENDCHAR
STARTCHAR uni033B
ENCODING 827
SWIDTH 500 0
DWIDTH 12 0
BBX 6 6 4 -6
BITMAP
FC00
FC00
CC00
CC00
FC00
FC00
ENDCHAR
STARTCHAR uni033C
ENCODING 828
SWIDTH 500 0
DWIDTH 12 0
BBX 4 6 6 -6
BITMAP
C000
C000
3000
3000
C000
C000
ENDCHAR
STARTCHAR uni033D
ENCODING 829
SWIDTH 500 0
DWIDTH 12 0
BBX 6 6 4 14
BITMAP
CC00
CC00
3000
3000
CC00
CC00
ENDCHAR
STARTCHAR uni033E
ENCODING 830
SWIDTH 500 0
DWIDTH 12 0
BBX 6 6 4 14
BITMAP
3C00
3C00
3000
3000
F000
F000
ENDCHAR
STARTCHAR uni033F
ENCODING 831
SWIDTH 500 0
DWIDTH 12 0
BBX 10 6 2 14
BITMAP
FFC0
FFC0
0000
0000
FFC0
FFC0
ENDCHAR
STARTCHAR uni0340
ENCODING 832
SWIDTH 500 0
DWIDTH 12 0
BBX 4 4 4 14
BITMAP
C000
C000
3000
3000
ENDCHAR
STARTCHAR uni0341
ENCODING 833
SWIDTH 500 0
DWIDTH 12 0
BBX 4 4 6 14
BITMAP
3000
3000
C000
C000
ENDCHAR
STARTCHAR uni0342
ENCODING 834
SWIDTH 500 0
DWIDTH 12 0
BBX 10 4 2 14
BITMAP
3CC0
3CC0
CF00
CF00
ENDCHAR
STARTCHAR uni0343
ENCODING 835
SWIDTH 500 0
DWIDTH 12 0
BBX 4 6 4 14
BITMAP
F000
F000
3000
3000
C000
C000
ENDCHAR
STARTCHAR uni0346
ENCODING 838
SWIDTH 500 0
DWIDTH 12 0
BBX 10 4 2 14
BITMAP
FFC0
FFC0
C0C0
C0C0
ENDCHAR
STARTCHAR uni0347
ENCODING 839
SWIDTH 500 0
DWIDTH 12 0
BBX 6 6 4 -6
BITMAP
FC00
FC00
0000
0000
FC00
FC00
ENDCHAR
STARTCHAR uni0348
ENCODING 840
SWIDTH 500 0
DWIDTH 12 0
BBX 6 6 4 -6
BITMAP
CC00
CC00
CC00
CC00
CC00
CC00
ENDCHAR
STARTCHAR uni0351
ENCODING 849
SWIDTH 500 0
DWIDTH 12 0
BBX 4 6 4 14
BITMAP
C000
C000
3000
3000
C000
C000
ENDCHAR
STARTCHAR uni0357
ENCODING 855
SWIDTH 500 0
DWIDTH 12 0
BBX 4 6 4 14
BITMAP
3000
3000
C000
C000
3000
3000
ENDCHAR
STARTCHAR uni035C
ENCODING 860
SWIDTH 500 0
DWIDTH 12 0
BBX 18 4 4 -6
BITMAP
C000C000
C000C000
3FFF0000
3FFF0000
ENDCHAR
STARTCHAR uni035D
ENCODING 861
SWIDTH 500 0
DWIDTH 12 0
BBX 18 4 4 16
BITMAP
C000C000
C000C000
3FFF0000
3FFF0000
ENDCHAR
STARTCHAR uni0361
ENCODING 865
SWIDTH 500 0
DWIDTH 12 0
BBX 18 4 4 16
BITMAP
3FFF0000
3FFF0000
C000C000
C000C000
ENDCHAR
STARTCHAR uni0374
ENCODING 884
SWIDTH 500 0
DWIDTH 12 0
BBX 4 6 4 12
BITMAP
3000
3000
3000
3000
C000
C000
ENDCHAR
STARTCHAR uni0375
ENCODING 885
SWIDTH 500 0
DWIDTH 12 0
BBX 4 6 4 -2
BITMAP
3000
3000
3000
3000
C000
C000
ENDCHAR
STARTCHAR uni037E
ENCODING 894
SWIDTH 500 0
DWIDTH 12 0
BBX 4 16 4 -4
BITMAP
F000
F000
F000
F000
0000
0000
0000
0000
F000
F000
F000
F000
3000
3000
C000
C000
ENDCHAR
STARTCHAR tonos
ENCODING 900
SWIDTH 500 0
DWIDTH 12 0
BBX 4 4 6 12
BITMAP
3000
3000
C000
C000
ENDCHAR
STARTCHAR dieresistonos
ENCODING 901
SWIDTH 500 0
DWIDTH 12 0
BBX 6 8 4 12
BITMAP
0C00
0C00
3000
3000
0000
0000
CC00
CC00
ENDCHAR
STARTCHAR Alphatonos
ENCODING 902
SWIDTH 500 0
DWIDTH 12 0
BBX 12 16 0 0
BITMAP
3300
3300
C300
C300
0CC0
0CC0
0CC0
0CC0
0FC0
0FC0
3030
3030
3030
3030
3030
3030
ENDCHAR
STARTCHAR anoteleia
ENCODING 903
SWIDTH 500 0
DWIDTH 12 0
BBX 6 6 4 6
BITMAP
3000
3000
FC00
FC00
3000
3000
ENDCHAR
STARTCHAR Epsilontonos
ENCODING 904
SWIDTH 500 0
DWIDTH 12 0
BBX 12 16 0 0
BITMAP
33F0
33F0
C300
C300
0300
0300
03C0
03C0
0300
0300
0300
0300
0300
0300
03F0
03F0
ENDCHAR
STARTCHAR Etatonos
ENCODING 905
SWIDTH 500 0
DWIDTH 12 0
BBX 12 18 0 0
BITMAP
3000
3000
CC30
CC30
0C30
0C30
0C30
0C30
0FF0
0FF0
0C30
0C30
0C30
0C30
0C30
0C30
0C30
0C30
ENDCHAR
STARTCHAR Iotatonos
ENCODING 906
SWIDTH 500 0
DWIDTH 12 0
BBX 10 18 0 0
BITMAP
3000
3000
CFC0
CFC0
0300
0300
0300
0300
0300
0300
0300
0300
0300
0300
0300
0300
0FC0
0FC0
ENDCHAR
STARTCHAR Omicrontonos
ENCODING 908
SWIDTH 500 0
DWIDTH 12 0
BBX 12 16 0 0
BITMAP
33C0
33C0
CC30
CC30
0C30
0C30
0C30
0C30
0C30
0C30
0C30
0C30
0C30
0C30
03C0
03C0
ENDCHAR
STARTCHAR Upsilontonos
ENCODING 910
SWIDTH 500 0
DWIDTH 12 0
BBX 12 16 0 0
BITMAP
3330
3330
C330
C330
0330
0330
0330
0330
00C0
00C0
00C0
00C0
00C0
00C0
00C0
00C0
ENDCHAR
STARTCHAR Omegatonos
ENCODING 911
SWIDTH 500 0
DWIDTH 12 0
BBX 12 16 0 0
BITMAP
3000
3000
CFC0
CFC0
0CC0
0CC0
3030
3030
3030
3030
0CC0
0CC0
0CC0
0CC0
3CF0
3CF0
ENDCHAR
STARTCHAR iotadieresistonos
ENCODING 912
SWIDTH 500 0
DWIDTH 12 0
BBX 6 20 4 0
BITMAP
0C00
0C00
3000
3000
0000
0000
CC00
CC00
0000
0000
F000
F000
3000
3000
3000
3000
3000
3000
0C00
0C00
ENDCHAR
STARTCHAR Alpha
ENCODING 913
SWIDTH 500 0
DWIDTH 12 0
BBX 10 16 2 0
BITMAP
0C00
0C00
0C00
0C00
3300
3300
3300
3300
3F00
3F00
C0C0
C0C0
C0C0
C0C0
C0C0
C0C0
ENDCHAR
STARTCHAR Beta
ENCODING 914
SWIDTH 500 0
DWIDTH 12 0
BBX 10 16 2 0
BITMAP
FF00
FF00
C0C0
C0C0
C0C0
C0C0
FF00
FF00
C0C0
C0C0
C0C0
C0C0
C0C0
C0C0
FF00
FF00
ENDCHAR
STARTCHAR Gamma
ENCODING 915
SWIDTH 500 0
DWIDTH 12 0
BBX 10 16 2 0
BITMAP
FFC0
FFC0
C000
C000
C000
C000
C000
C000
C000
C000
C000
C000
C000
C000
C000
C000
ENDCHAR
STARTCHAR uni0394
ENCODING 916
SWIDTH 500 0
DWIDTH 12 0
BBX 10 16 2 0
BITMAP
0C00
0C00
0C00
0C00
3300
3300
3300
3300
3300
3300
C0C0
C0C0
C0C0
C0C0
FFC0
FFC0
ENDCHAR
STARTCHAR Epsilon
ENCODING 917
SWIDTH 500 0
DWIDTH 12 0
BBX 10 16 2 0
BITMAP
FFC0
FFC0
C000
C000
C000
C000
FFC0
FFC0
C000
C000
C000
C000
C000
C000
FFC0
FFC0
ENDCHAR
STARTCHAR Zeta
ENCODING 918
SWIDTH 500 0
DWIDTH 12 0
BBX 10 16 2 0
BITMAP
FFC0
FFC0
0300
0300
0C00
0C00
0C00
0C00
3000
3000
3000
3000
C000
C000
FFC0
FFC0
ENDCHAR
STARTCHAR Eta
ENCODING 919
SWIDTH 500 0
DWIDTH 12 0
BBX 10 16 2 0
BITMAP
C0C0
C0C0
C0C0
C0C0
C0C0
C0C0
FFC0
FFC0
C0C0
C0C0
C0C0
C0C0
C0C0
C0C0
C0C0
C0C0
ENDCHAR
STARTCHAR Theta
ENCODING 920
SWIDTH 500 0
DWIDTH 12 0
BBX 10 16 2 0
BITMAP
3F00
3F00
C0C0
C0C0
C0C0
C0C0
C0C0
C0C0
FFC0
FFC0
C0C0
C0C0
C0C0
C0C0
3F00
3F00
ENDCHAR
STARTCHAR Iota
ENCODING 921
SWIDTH 500 0
DWIDTH 12 0
BBX 6 16 4 0
BITMAP
FC00
FC00
3000
3000
3000
3000
3000
3000
3000
3000
3000
3000
3000
3000
FC00
FC00
ENDCHAR
STARTCHAR Kappa
ENCODING 922
SWIDTH 500 0
DWIDTH 12 0
BBX 10 16 2 0
BITMAP
C0C0
C0C0
C300
C300
CC00
CC00
F000
F000
F000
F000
CC00
CC00
C300
C300
C0C0
C0C0
ENDCHAR
STARTCHAR Lambda
ENCODING 923
SWIDTH 500 0
DWIDTH 12 0
BBX 10 16 2 0
BITMAP
0C00
0C00
0C00
0C00
3300
3300
3300
3300
3300
3300
C0C0
C0C0
C0C0
C0C0
C0C0
C0C0
ENDCHAR
STARTCHAR Mu
ENCODING 924
SWIDTH 500 0
DWIDTH 12 0
BBX 10 16 2 0
BITMAP
C0C0
C0C0
C0C0
C0C0
F3C0
F3C0
F3C0
F3C0
CCC0
CCC0
CCC0
CCC0
C0C0
C0C0
C0C0
C0C0
ENDCHAR
STARTCHAR Nu
ENCODING 925
SWIDTH 500 0
DWIDTH 12 0
BBX 10 16 2 0
BITMAP
C0C0
C0C0
F0C0
F0C0
F0C0
F0C0
CCC0
CCC0
CCC0
CCC0
C3C0
C3C0
C3C0
C3C0
C0C0
C0C0
ENDCHAR
STARTCHAR Xi
ENCODING 926
SWIDTH 500 0
DWIDTH 12 0
BBX 10 16 2 0
BITMAP
FFC0
FFC0
0000
0000
0000
0000
3F00
3F00
0000
0000
0000
0000
0000
0000
FFC0
FFC0
ENDCHAR
STARTCHAR Omicron
ENCODING 927
SWIDTH 500 0
DWIDTH 12 0
BBX 10 16 2 0
BITMAP
3F00
3F00
C0C0
C0C0
C0C0
C0C0
C0C0
C0C0
C0C0
C0C0
C0C0
C0C0
C0C0
C0C0
3F00
3F00
ENDCHAR
STARTCHAR Pi
ENCODING 928
SWIDTH 500 0
DWIDTH 12 0
BBX 10 16 2 0
BITMAP
FFC0
FFC0
C0C0
C0C0
C0C0
C0C0
C0C0
C0C0
C0C0
C0C0
C0C0
C0C0
C0C0
C0C0
C0C0
C0C0
ENDCHAR
STARTCHAR Rho
ENCODING 929
SWIDTH 500 0
DWIDTH 12 0
BBX 10 16 2 0
BITMAP
FF00
FF00
C0C0
C0C0
C0C0
C0C0
C0C0
C0C0
FF00
FF00
C000
C000
C000
C000
C000
C000
ENDCHAR
STARTCHAR Sigma
ENCODING 931
SWIDTH 500 0
DWIDTH 12 0
BBX 10 16 2 0
BITMAP
FFC0
FFC0
C0C0
C0C0
3000
3000
0C00
0C00
0C00
0C00
3000
3000
C0C0
C0C0
FFC0
FFC0
ENDCHAR
STARTCHAR Tau
ENCODING 932
SWIDTH 500 0
DWIDTH 12 0
BBX 10 16 2 0
BITMAP
FFC0
FFC0
0C00
0C00
0C00
0C00
0C00
0C00
0C00
0C00
0C00
0C00
0C00
0C00
0C00
0C00
ENDCHAR
STARTCHAR Upsilon
ENCODING 933
SWIDTH 500 0
DWIDTH 12 0
BBX 10 16 2 0
BITMAP
C0C0
C0C0
C0C0
C0C0
C0C0
C0C0
3300
3300
0C00
0C00
0C00
0C00
0C00
0C00
0C00
0C00
ENDCHAR
STARTCHAR Phi
ENCODING 934
SWIDTH 500 0
DWIDTH 12 0
BBX 10 18 2 -2
BITMAP
0C00
0C00
0C00
0C00
3F00
3F00
CCC0
CCC0
CCC0
CCC0
CCC0
CCC0
3F00
3F00
0C00
0C00
0C00
0C00
ENDCHAR
STARTCHAR Chi
ENCODING 935
SWIDTH 500 0
DWIDTH 12 0
BBX 10 16 2 0
BITMAP
C0C0
C0C0
C0C0
C0C0
3300
3300
0C00
0C00
0C00
0C00
3300
3300
C0C0
C0C0
C0C0
C0C0
ENDCHAR
STARTCHAR Psi
ENCODING 936
SWIDTH 500 0
DWIDTH 12 0
BBX 10 16 2 0
BITMAP
CCC0
CCC0
CCC0
CCC0
CCC0
CCC0
CCC0
CCC0
CCC0
CCC0
3F00
3F00
0C00
0C00
0C00
0C00
ENDCHAR
STARTCHAR uni03A9
ENCODING 937
SWIDTH 500 0
DWIDTH 12 0
BBX 10 16 2 0
BITMAP
3F00
3F00
C0C0
C0C0
C0C0
C0C0
C0C0
C0C0
C0C0
C0C0
F3C0
F3C0
3300
3300
F3C0
F3C0
ENDCHAR
STARTCHAR Iotadieresis
ENCODING 938
SWIDTH 500 0
DWIDTH 12 0
BBX 6 18 4 0
BITMAP
CC00
CC00
0000
0000
FC00
FC00
3000
3000
3000
3000
3000
3000
3000
3000
3000
3000
FC00
FC00
ENDCHAR
STARTCHAR Upsilondieresis
ENCODING 939
SWIDTH 500 0
DWIDTH 12 0
BBX 10 18 2 0
BITMAP
3300
3300
0000
0000
C0C0
C0C0
C0C0
C0C0
3300
3300
0C00
0C00
0C00
0C00
0C00
0C00
0C00
0C00
ENDCHAR
STARTCHAR alphatonos
ENCODING 940
SWIDTH 500 0
DWIDTH 12 0
BBX 10 18 2 0
BITMAP
0300
0300
0C00
0C00
0000
0000
3CC0
3CC0
C3C0
C3C0
C300
C300
C300
C300
C300
C300
3CC0
3CC0
ENDCHAR
STARTCHAR epsilontonos
ENCODING 941
SWIDTH 500 0
DWIDTH 12 0
BBX 10 18 2 0
BITMAP
0300
0300
0C00
0C00
0000
0000
3F00
3F00
C0C0
C0C0
3C00
3C00
C000
C000
C0C0
C0C0
3F00
3F00
ENDCHAR
STARTCHAR etatonos
ENCODING 942
SWIDTH 500 0
DWIDTH 12 0
BBX 10 22 2 -4
BITMAP
0300
0300
0C00
0C00
0000
0000
FF00
FF00
C0C0
C0C0
C0C0
C0C0
C0C0
C0C0
C0C0
C0C0
C0C0
C0C0
00C0
00C0
00C0
00C0
ENDCHAR
STARTCHAR iotatonos
ENCODING 943
SWIDTH 500 0
DWIDTH 12 0
BBX 6 18 4 0
BITMAP
0C00
0C00
3000
3000
0000
0000
F000
F000
3000
3000
3000
3000
3000
3000
3000
3000
0C00
0C00
ENDCHAR
STARTCHAR upsilondieresistonos
ENCODING 944
SWIDTH 500 0
DWIDTH 12 0
BBX 10 16 2 0
BITMAP
3300
3300
0000
0000
C300
C300
C0C0
C0C0
C0C0
C0C0
C0C0
C0C0
C300
C300
3C00
3C00
ENDCHAR
STARTCHAR alpha
ENCODING 945
SWIDTH 500 0
DWIDTH 12 0
BBX 10 12 2 0
BITMAP
3CC0
3CC0
C3C0
C3C0
C300
C300
C300
C300
C300
C300
3CC0
3CC0
ENDCHAR
STARTCHAR beta
ENCODING 946
SWIDTH 500 0
DWIDTH 12 0
BBX 10 22 2 -6
BITMAP
FF00
FF00
C0C0
C0C0
C0C0
C0C0
CF00
CF00
C0C0
C0C0
C0C0
C0C0
C0C0
C0C0
FF00
FF00
C000
C000
C000
C000
C000
C000
ENDCHAR
STARTCHAR gamma
ENCODING 947
SWIDTH 500 0
DWIDTH 12 0
BBX 10 20 2 -6
BITMAP
00C0
00C0
00C0
00C0
3F00
3F00
C300
C300
0F00
0F00
0F00
0F00
3300
3300
3300
3300
3300
3300
0C00
0C00
ENDCHAR
STARTCHAR delta
ENCODING 948
SWIDTH 500 0
DWIDTH 12 0
BBX 10 14 2 0
BITMAP
FFC0
FFC0
C000
C000
3F00
3F00
C0C0
C0C0
C0C0
C0C0
C0C0
C0C0
3F00
3F00
ENDCHAR
STARTCHAR epsilon
ENCODING 949
SWIDTH 500 0
DWIDTH 12 0
BBX 10 12 2 0
BITMAP
3F00
3F00
C0C0
C0C0
3C00
3C00
C000
C000
C0C0
C0C0
3F00
3F00
ENDCHAR
STARTCHAR zeta
ENCODING 950
SWIDTH 500 0
DWIDTH 12 0
BBX 10 18 2 -4
BITMAP
FFC0
FFC0
0F00
0F00
3000
3000
C000
C000
C000
C000
C000
C000
3FC0
3FC0
00C0
00C0
0300
0300
ENDCHAR
STARTCHAR eta
ENCODING 951
SWIDTH 500 0
DWIDTH 12 0
BBX 10 16 2 -4
BITMAP
FF00
FF00
C0C0
C0C0
C0C0
C0C0
C0C0
C0C0
C0C0
C0C0
C0C0
C0C0
00C0
00C0
00C0
00C0
ENDCHAR
STARTCHAR theta
ENCODING 952
SWIDTH 500 0
DWIDTH 12 0
BBX 10 12 2 0
BITMAP
3F00
3F00
C0C0
C0C0
C0C0
C0C0
FFC0
FFC0
C0C0
C0C0
3F00
3F00
ENDCHAR
STARTCHAR iota
ENCODING 953
SWIDTH 500 0
DWIDTH 12 0
BBX 6 12 4 0
BITMAP
F000
F000
3000
3000
3000
3000
3000
3000
3000
3000
0C00
0C00
ENDCHAR
STARTCHAR kappa
ENCODING 954
SWIDTH 500 0
DWIDTH 12 0
BBX 10 12 2 0
BITMAP
C0C0
C0C0
C300
C300
CC00
CC00
FC00
FC00
C300
C300
C0C0
C0C0
ENDCHAR
STARTCHAR lambda
ENCODING 955
SWIDTH 500 0
DWIDTH 12 0
BBX 10 16 2 0
BITMAP
F000
F000
0C00
0C00
0C00
0C00
0C00
0C00
3300
3300
3300
3300
C0C0
C0C0
C0C0
C0C0
ENDCHAR
STARTCHAR uni03BC
ENCODING 956
SWIDTH 500 0
DWIDTH 12 0
BBX 10 18 2 -6
BITMAP
C0C0
C0C0
C0C0
C0C0
C0C0
C0C0
C0C0
C0C0
C3C0
C3C0
FCC0
FCC0
C000
C000
C000
C000
C000
C000
ENDCHAR
STARTCHAR nu
ENCODING 957
SWIDTH 500 0
DWIDTH 12 0
BBX 10 12 2 0
BITMAP
CF00
CF00
C0C0
C0C0
30C0
30C0
30C0
30C0
0F00
0F00
0C00
0C00
ENDCHAR
STARTCHAR xi
ENCODING 958
SWIDTH 500 0
DWIDTH 12 0
BBX 10 18 2 -4
BITMAP
FFC0
FFC0
3000
3000
3FC0
3FC0
C000
C000
C000
C000
C000
C000
3FC0
3FC0
00C0
00C0
0300
0300
ENDCHAR
STARTCHAR omicron
ENCODING 959
SWIDTH 500 0
DWIDTH 12 0
BBX 10 12 2 0
BITMAP
3F00
3F00
C0C0
C0C0
C0C0
C0C0
C0C0
C0C0
C0C0
C0C0
3F00
3F00
ENDCHAR
STARTCHAR pi
ENCODING 960
SWIDTH 500 0
DWIDTH 12 0
BBX 10 12 2 0
BITMAP
FFC0
FFC0
3300
3300
3300
3300
3300
3300
3300
3300
30C0
30C0
ENDCHAR
STARTCHAR rho
ENCODING 961
SWIDTH 500 0
DWIDTH 12 0
BBX 10 18 2 -6
BITMAP
3F00
3F00
C0C0
C0C0
C0C0
C0C0
C0C0
C0C0
F0C0
F0C0
CF00
CF00
C000
C000
C000
C000
C000
C000
ENDCHAR
STARTCHAR sigma1
ENCODING 962
SWIDTH 500 0
DWIDTH 12 0
BBX 10 18 2 -6
BITMAP
3F00
3F00
C0C0
C0C0
C000
C000
C000
C000
C000
C000
3FC0
3FC0
00C0
00C0
00C0
00C0
0300
0300
ENDCHAR
STARTCHAR sigma
ENCODING 963
SWIDTH 500 0
DWIDTH 12 0
BBX 10 12 2 0
BITMAP
3FC0
3FC0
C300
C300
C0C0
C0C0
C0C0
C0C0
C0C0
C0C0
3F00
3F00
ENDCHAR
STARTCHAR tau
ENCODING 964
SWIDTH 500 0
DWIDTH 12 0
BBX 10 12 2 0
BITMAP
FFC0
FFC0
0C00
0C00
0C00
0C00
0C00
0C00
0C00
0C00
03C0
03C0
ENDCHAR
STARTCHAR upsilon
ENCODING 965
SWIDTH 500 0
DWIDTH 12 0
BBX 10 12 2 0
BITMAP
C300
C300
C0C0
C0C0
C0C0
C0C0
C0C0
C0C0
C300
C300
3C00
3C00
ENDCHAR
STARTCHAR phi
ENCODING 966
SWIDTH 500 0
DWIDTH 12 0
BBX 10 18 2 -6
BITMAP
0F00
0F00
CCC0
CCC0
CCC0
CCC0
CCC0
CCC0
CCC0
CCC0
3F00
3F00
0C00
0C00
0C00
0C00
0C00
0C00
ENDCHAR
STARTCHAR chi
ENCODING 967
SWIDTH 500 0
DWIDTH 12 0
BBX 10 16 2 -4
BITMAP
C0C0
C0C0
30C0
30C0
3300
3300
0C00
0C00
0C00
0C00
3300
3300
C300
C300
C0C0
C0C0
ENDCHAR
STARTCHAR psi
ENCODING 968
SWIDTH 500 0
DWIDTH 12 0
BBX 10 18 2 -6
BITMAP
CCC0
CCC0
CCC0
CCC0
CCC0
CCC0
CCC0
CCC0
CCC0
CCC0
3F00
3F00
0C00
0C00
0C00
0C00
0C00
0C00
ENDCHAR
STARTCHAR omega
ENCODING 969
SWIDTH 500 0
DWIDTH 12 0
BBX 10 12 2 0
BITMAP
3300
3300
C0C0
C0C0
C0C0
C0C0
CCC0
CCC0
CCC0
CCC0
3300
3300
ENDCHAR
STARTCHAR iotadieresis
ENCODING 970
SWIDTH 500 0
DWIDTH 12 0
BBX 6 16 4 0
BITMAP
CC00
CC00
0000
0000
F000
F000
3000
3000
3000
3000
3000
3000
3000
3000
0C00
0C00
ENDCHAR
STARTCHAR upsilondieresis
ENCODING 971
SWIDTH 500 0
DWIDTH 12 0
BBX 10 20 2 0
BITMAP
0300
0300
0C00
0C00
0000
0000
3300
3300
0000
0000
C300
C300
C0C0
C0C0
C0C0
C0C0
C300
C300
3C00
3C00
ENDCHAR
STARTCHAR omicrontonos
ENCODING 972
SWIDTH 500 0
DWIDTH 12 0
BBX 10 18 2 0
BITMAP
0300
0300
0C00
0C00
0000
0000
3F00
3F00
C0C0
C0C0
C0C0
C0C0
C0C0
C0C0
C0C0
C0C0
3F00
3F00
ENDCHAR
STARTCHAR upsilontonos
ENCODING 973
SWIDTH 500 0
DWIDTH 12 0
BBX 10 18 2 0
BITMAP
0300
0300
0C00
0C00
0000
0000
C300
C300
C0C0
C0C0
C0C0
C0C0
C0C0
C0C0
C300
C300
3C00
3C00
ENDCHAR
STARTCHAR omegatonos
ENCODING 974
SWIDTH 500 0
DWIDTH 12 0
BBX 10 18 2 0
BITMAP
0300
0300
0C00
0C00
0000
0000
3300
3300
C0C0
C0C0
C0C0
C0C0
CCC0
CCC0
CCC0
CCC0
3300
3300
ENDCHAR
STARTCHAR uni03CF
ENCODING 975
SWIDTH 500 0
DWIDTH 12 0
BBX 10 20 2 -4
BITMAP
C0C0
C0C0
C300
C300
CC00
CC00
F000
F000
F000
F000
CC00
CC00
C300
C300
C0C0
C0C0
0300
0300
0C00
0C00
ENDCHAR
STARTCHAR phi1
ENCODING 981
SWIDTH 500 0
DWIDTH 12 0
BBX 10 20 2 -4
BITMAP
0C00
0C00
0C00
0C00
3F00
3F00
CCC0
CCC0
CCC0
CCC0
CCC0
CCC0
CCC0
CCC0
3F00
3F00
0C00
0C00
0C00
0C00
ENDCHAR
STARTCHAR uni03D7
ENCODING 983
SWIDTH 500 0
DWIDTH 12 0
BBX 10 16 2 -4
BITMAP
C0C0
C0C0
C300
C300
CC00
CC00
FC00
FC00
C300
C300
C0C0
C0C0
0300
0300
0C00
0C00
ENDCHAR
STARTCHAR uni03DA
ENCODING 986
SWIDTH 500 0
DWIDTH 12 0
BBX 10 24 2 -6
BITMAP
3FC0
3FC0
C000
C000
C000
C000
C000
C000
C000
C000
C000
C000
C000
C000
C000
C000
3FC0
3FC0
00C0
00C0
00C0
00C0
0300
0300
ENDCHAR
STARTCHAR uni03DB
ENCODING 987
SWIDTH 500 0
DWIDTH 12 0
BBX 10 18 2 -6
BITMAP
3FC0
3FC0
C000
C000
C000
C000
C000
C000
C000
C000
3FC0
3FC0
00C0
00C0
00C0
00C0
0300
0300
ENDCHAR
STARTCHAR uni03DC
ENCODING 988
SWIDTH 500 0
DWIDTH 12 0
BBX 10 16 2 0
BITMAP
FFC0
FFC0
C000
C000
C000
C000
FF00
FF00
C000
C000
C000
C000
C000
C000
C000
C000
ENDCHAR
STARTCHAR uni03DD
ENCODING 989
SWIDTH 500 0
DWIDTH 12 0
BBX 10 22 2 -6
BITMAP
03C0
03C0
0C00
0C00
0C00
0C00
0C00
0C00
0FC0
0FC0
0C00
0C00
0C00
0C00
0C00
0C00
0C00
0C00
0C00
0C00
F000
F000
ENDCHAR
STARTCHAR uni03F4
ENCODING 1012
SWIDTH 500 0
DWIDTH 12 0
BBX 10 16 2 0
BITMAP
3F00
3F00
C0C0
C0C0
C0C0
C0C0
C0C0
C0C0
FFC0
FFC0
C0C0
C0C0
C0C0
C0C0
3F00
3F00
ENDCHAR
STARTCHAR uni03F7
ENCODING 1015
SWIDTH 500 0
DWIDTH 12 0
BBX 10 16 2 0
BITMAP
C000
C000
C000
C000
FF00
FF00
C0C0
C0C0
C0C0
C0C0
FF00
FF00
C000
C000
C000
C000
ENDCHAR
STARTCHAR uni03F8
ENCODING 1016
SWIDTH 500 0
DWIDTH 12 0
BBX 10 20 2 -4
BITMAP
C000
C000
C000
C000
FF00
FF00
C0C0
C0C0
C0C0
C0C0
C0C0
C0C0
C0C0
C0C0
FF00
FF00
C000
C000
C000
C000
ENDCHAR
STARTCHAR uni03F9
ENCODING 1017
SWIDTH 500 0
DWIDTH 12 0
BBX 10 16 2 0
BITMAP
3F00
3F00
C0C0
C0C0
C000
C000
C000
C000
C000
C000
C000
C000
C0C0
C0C0
3F00
3F00
ENDCHAR
STARTCHAR uni0400
ENCODING 1024
SWIDTH 500 0
DWIDTH 12 0
BBX 10 20 2 0
BITMAP
3000
3000
0C00
0C00
0000
0000
FFC0
FFC0
C000
C000
C000
C000
FF00
FF00
C000
C000
C000
C000
FFC0
FFC0
ENDCHAR
STARTCHAR afii10023
ENCODING 1025
SWIDTH 500 0
DWIDTH 12 0
BBX 10 20 2 0
BITMAP
3300
3300
0000
0000
FFC0
FFC0
C000
C000
C000
C000
FF00
FF00
C000
C000
C000
C000
C000
C000
FFC0
FFC0
ENDCHAR
STARTCHAR afii10051
ENCODING 1026
SWIDTH 500 0
DWIDTH 12 0
BBX 10 20 2 -4
BITMAP
FF00
FF00
3000
3000
3000
3000
33C0
33C0
3CC0
3CC0
30C0
30C0
30C0
30C0
30C0
30C0
00C0
00C0
0F00
0F00
ENDCHAR
STARTCHAR afii10052
ENCODING 1027
SWIDTH 500 0
DWIDTH 12 0
BBX 8 20 4 0
BITMAP
0C00
0C00
3000
3000
0000
0000
FF00
FF00
C000
C000
C000
C000
C000
C000
C000
C000
C000
C000
C000
C000
ENDCHAR
STARTCHAR afii10053
ENCODING 1028
SWIDTH 500 0
DWIDTH 12 0
BBX 10 16 2 0
BITMAP
0F00
0F00
30C0
30C0
C000
C000
FF00
FF00
C000
C000
C000
C000
30C0
30C0
0F00
0F00
ENDCHAR
STARTCHAR afii10054
ENCODING 1029
SWIDTH 500 0
DWIDTH 12 0
BBX 10 16 2 0
BITMAP
3F00
3F00
C0C0
C0C0
C000
C000
3F00
3F00
00C0
00C0
00C0
00C0
C0C0
C0C0
3F00
3F00
ENDCHAR
STARTCHAR afii10055
ENCODING 1030
SWIDTH 500 0
DWIDTH 12 0
BBX 6 16 4 0
BITMAP
FC00
FC00
3000
3000
3000
3000
3000
3000
3000
3000
3000
3000
3000
3000
FC00
FC00
ENDCHAR
STARTCHAR afii10056
ENCODING 1031
SWIDTH 500 0
DWIDTH 12 0
BBX 6 20 4 0
BITMAP
CC00
CC00
0000
0000
FC00
FC00
3000
3000
3000
3000
3000
3000
3000
3000
3000
3000
3000
3000
FC00
FC00
ENDCHAR
STARTCHAR afii10057
ENCODING 1032
SWIDTH 500 0
DWIDTH 12 0
BBX 8 16 4 0
BITMAP
3F00
3F00
0C00
0C00
0C00
0C00
0C00
0C00
0C00
0C00
0C00
0C00
0C00
0C00
F000
F000
ENDCHAR
STARTCHAR afii10058
ENCODING 1033
SWIDTH 500 0
DWIDTH 12 0
BBX 12 16 0 0
BITMAP
3F00
3F00
3300
3300
3300
3300
33C0
33C0
3330
3330
3330
3330
3330
3330
C3C0
C3C0
ENDCHAR
STARTCHAR afii10059
ENCODING 1034
SWIDTH 500 0
DWIDTH 12 0
BBX 10 16 2 0
BITMAP
CC00
CC00
CC00
CC00
CC00
CC00
FF00
FF00
CCC0
CCC0
CCC0
CCC0
CCC0
CCC0
CF00
CF00
ENDCHAR
STARTCHAR afii10060
ENCODING 1035
SWIDTH 500 0
DWIDTH 12 0
BBX 10 16 2 0
BITMAP
FF00
FF00
3000
3000
3000
3000
33C0
33C0
3CC0
3CC0
30C0
30C0
30C0
30C0
30C0
30C0
ENDCHAR
STARTCHAR afii10061
ENCODING 1036
SWIDTH 500 0
DWIDTH 12 0
BBX 10 20 2 0
BITMAP
0300
0300
0C00
0C00
C0C0
C0C0
C0C0
C0C0
C300
C300
CC00
CC00
F300
F300
C300
C300
C0C0
C0C0
C0C0
C0C0
ENDCHAR
STARTCHAR uni040D
ENCODING 1037
SWIDTH 500 0
DWIDTH 12 0
BBX 10 20 2 0
BITMAP
3000
3000
0C00
0C00
C0C0
C0C0
C3C0
C3C0
C3C0
C3C0
CCC0
CCC0
CCC0
CCC0
F0C0
F0C0
F0C0
F0C0
C0C0
C0C0
ENDCHAR
STARTCHAR afii10062
ENCODING 1038
SWIDTH 500 0
DWIDTH 12 0
BBX 10 20 2 0
BITMAP
3300
3300
0C00
0C00
C0C0
C0C0
C0C0
C0C0
C0C0
C0C0
3300
3300
3300
3300
0C00
0C00
0C00
0C00
F000
F000
ENDCHAR
STARTCHAR afii10145
ENCODING 1039
SWIDTH 500 0
DWIDTH 12 0
BBX 10 20 2 -4
BITMAP
C0C0
C0C0
C0C0
C0C0
C0C0
C0C0
C0C0
C0C0
C0C0
C0C0
C0C0
C0C0
C0C0
C0C0
FFC0
FFC0
0C00
0C00
0C00
0C00
ENDCHAR
STARTCHAR afii10017
ENCODING 1040
SWIDTH 500 0
DWIDTH 12 0
BBX 10 16 2 0
BITMAP
0C00
0C00
0C00
0C00
3300
3300
3300
3300
3F00
3F00
C0C0
C0C0
C0C0
C0C0
C0C0
C0C0
ENDCHAR
STARTCHAR afii10018
ENCODING 1041
SWIDTH 500 0
DWIDTH 12 0
BBX 10 16 2 0
BITMAP
FF00
FF00
C000
C000
C000
C000
FF00
FF00
C0C0
C0C0
C0C0
C0C0
C0C0
C0C0
FF00
FF00
ENDCHAR
STARTCHAR afii10019
ENCODING 1042
SWIDTH 500 0
DWIDTH 12 0
BBX 10 16 2 0
BITMAP
FF00
FF00
C0C0
C0C0
C0C0
C0C0
FF00
FF00
C0C0
C0C0
C0C0
C0C0
C0C0
C0C0
FF00
FF00
ENDCHAR
STARTCHAR afii10020
ENCODING 1043
SWIDTH 500 0
DWIDTH 12 0
BBX 8 16 4 0
BITMAP
FF00
FF00
C000
C000
C000
C000
C000
C000
C000
C000
C000
C000
C000
C000
C000
C000
ENDCHAR
STARTCHAR afii10021
ENCODING 1044
SWIDTH 500 0
DWIDTH 12 0
BBX 12 18 2 -2
BITMAP
0FC0
0FC0
30C0
30C0
30C0
30C0
30C0
30C0
30C0
30C0
30C0
30C0
C0C0
C0C0
FFF0
FFF0
C030
C030
ENDCHAR
STARTCHAR afii10022
ENCODING 1045
SWIDTH 500 0
DWIDTH 12 0
BBX 10 16 2 0
BITMAP
FFC0
FFC0
C000
C000
C000
C000
FF00
FF00
C000
C000
C000
C000
C000
C000
FFC0
FFC0
ENDCHAR
STARTCHAR afii10024
ENCODING 1046
SWIDTH 500 0
DWIDTH 12 0
BBX 10 16 2 0
BITMAP
CCC0
CCC0
CCC0
CCC0
CCC0
CCC0
3F00
3F00
3F00
3F00
CCC0
CCC0
CCC0
CCC0
CCC0
CCC0
ENDCHAR
STARTCHAR afii10025
ENCODING 1047
SWIDTH 500 0
DWIDTH 12 0
BBX 10 16 2 0
BITMAP
FF00
FF00
C0C0
C0C0
00C0
00C0
0F00
0F00
00C0
00C0
00C0
00C0
C0C0
C0C0
3F00
3F00
ENDCHAR
STARTCHAR afii10026
ENCODING 1048
SWIDTH 500 0
DWIDTH 12 0
BBX 10 16 2 0
BITMAP
C0C0
C0C0
C3C0
C3C0
C3C0
C3C0
CCC0
CCC0
CCC0
CCC0
F0C0
F0C0
F0C0
F0C0
C0C0
C0C0
ENDCHAR
STARTCHAR afii10027
ENCODING 1049
SWIDTH 500 0
DWIDTH 12 0
BBX 10 20 2 0
BITMAP
3300
3300
0C00
0C00
C0C0
C0C0
C3C0
C3C0
C3C0
C3C0
CCC0
CCC0
CCC0
CCC0
F0C0
F0C0
F0C0
F0C0
C0C0
C0C0
ENDCHAR
STARTCHAR afii10028
ENCODING 1050
SWIDTH 500 0
DWIDTH 12 0
BBX 10 16 2 0
BITMAP
C0C0
C0C0
C0C0
C0C0
C300
C300
CC00
CC00
F300
F300
C300
C300
C0C0
C0C0
C0C0
C0C0
ENDCHAR
STARTCHAR afii10029
ENCODING 1051
SWIDTH 500 0
DWIDTH 12 0
BBX 10 16 2 0
BITMAP
3FC0
3FC0
30C0
30C0
30C0
30C0
30C0
30C0
30C0
30C0
30C0
30C0
30C0
30C0
C0C0
C0C0
ENDCHAR
STARTCHAR afii10030
ENCODING 1052
SWIDTH 500 0
DWIDTH 12 0
BBX 10 16 2 0
BITMAP
C0C0
C0C0
C0C0
C0C0
F3C0
F3C0
F3C0
F3C0
CCC0
CCC0
CCC0
CCC0
C0C0
C0C0
C0C0
C0C0
ENDCHAR
STARTCHAR afii10031
ENCODING 1053
SWIDTH 500 0
DWIDTH 12 0
BBX 10 16 2 0
BITMAP
C0C0
C0C0
C0C0
C0C0
C0C0
C0C0
FFC0
FFC0
C0C0
C0C0
C0C0
C0C0
C0C0
C0C0
C0C0
C0C0
ENDCHAR
STARTCHAR afii10032
ENCODING 1054
SWIDTH 500 0
DWIDTH 12 0
BBX 10 16 2 0
BITMAP
3F00
3F00
C0C0
C0C0
C0C0
C0C0
C0C0
C0C0
C0C0
C0C0
C0C0
C0C0
C0C0
C0C0
3F00
3F00
ENDCHAR
STARTCHAR afii10033
ENCODING 1055
SWIDTH 500 0
DWIDTH 12 0
BBX 10 16 2 0
BITMAP
FFC0
FFC0
C0C0
C0C0
C0C0
C0C0
C0C0
C0C0
C0C0
C0C0
C0C0
C0C0
C0C0
C0C0
C0C0
C0C0
ENDCHAR
STARTCHAR afii10034
ENCODING 1056
SWIDTH 500 0
DWIDTH 12 0
BBX 10 16 2 0
BITMAP
FF00
FF00
C0C0
C0C0
C0C0
C0C0
C0C0
C0C0
FF00
FF00
C000
C000
C000
C000
C000
C000
ENDCHAR
STARTCHAR afii10035
ENCODING 1057
SWIDTH 500 0
DWIDTH 12 0
BBX 10 16 2 0
BITMAP
3F00
3F00
C0C0
C0C0
C000
C000
C000
C000
C000
C000
C000
C000
C0C0
C0C0
3F00
3F00
ENDCHAR
STARTCHAR afii10036
ENCODING 1058
SWIDTH 500 0
DWIDTH 12 0
BBX 10 16 2 0
BITMAP
FFC0
FFC0
0C00
0C00
0C00
0C00
0C00
0C00
0C00
0C00
0C00
0C00
0C00
0C00
0C00
0C00
ENDCHAR
STARTCHAR afii10037
ENCODING 1059
SWIDTH 500 0
DWIDTH 12 0
BBX 10 16 2 0
BITMAP
C0C0
C0C0
C0C0
C0C0
C0C0
C0C0
C0C0
C0C0
3300
3300
3300
3300
0C00
0C00
F000
F000
ENDCHAR
STARTCHAR afii10038
ENCODING 1060
SWIDTH 500 0
DWIDTH 12 0
BBX 10 16 2 0
BITMAP
0C00
0C00
3F00
3F00
CCC0
CCC0
CCC0
CCC0
CCC0
CCC0
CCC0
CCC0
3F00
3F00
0C00
0C00
ENDCHAR
STARTCHAR afii10039
ENCODING 1061
SWIDTH 500 0
DWIDTH 12 0
BBX 10 16 2 0
BITMAP
C0C0
C0C0
C0C0
C0C0
3300
3300
0C00
0C00
0C00
0C00
3300
3300
C0C0
C0C0
C0C0
C0C0
ENDCHAR
STARTCHAR afii10040
ENCODING 1062
SWIDTH 500 0
DWIDTH 12 0
BBX 10 18 2 -2
BITMAP
C300
C300
C300
C300
C300
C300
C300
C300
C300
C300
C300
C300
C300
C300
FFC0
FFC0
00C0
00C0
ENDCHAR
STARTCHAR afii10041
ENCODING 1063
SWIDTH 500 0
DWIDTH 12 0
BBX 10 16 2 0
BITMAP
C0C0
C0C0
C0C0
C0C0
C0C0
C0C0
C0C0
C0C0
3FC0
3FC0
00C0
00C0
00C0
00C0
00C0
00C0
ENDCHAR
STARTCHAR afii10042
ENCODING 1064
SWIDTH 500 0
DWIDTH 12 0
BBX 10 16 2 0
BITMAP
CCC0
CCC0
CCC0
CCC0
CCC0
CCC0
CCC0
CCC0
CCC0
CCC0
CCC0
CCC0
CCC0
CCC0
FFC0
FFC0
ENDCHAR
STARTCHAR afii10043
ENCODING 1065
SWIDTH 500 0
DWIDTH 12 0
BBX 12 20 2 -4
BITMAP
CCC0
CCC0
CCC0
CCC0
CCC0
CCC0
CCC0
CCC0
CCC0
CCC0
CCC0
CCC0
CCC0
CCC0
FFC0
FFC0
0030
0030
03F0
03F0
ENDCHAR
STARTCHAR afii10044
ENCODING 1066
SWIDTH 500 0
DWIDTH 12 0
BBX 12 16 0 0
BITMAP
FC00
FC00
0C00
0C00
0C00
0C00
0FC0
0FC0
0C30
0C30
0C30
0C30
0C30
0C30
0FC0
0FC0
ENDCHAR
STARTCHAR afii10045
ENCODING 1067
SWIDTH 500 0
DWIDTH 12 0
BBX 10 16 2 0
BITMAP
C0C0
C0C0
C0C0
C0C0
C0C0
C0C0
F0C0
F0C0
CCC0
CCC0
CCC0
CCC0
CCC0
CCC0
F0C0
F0C0
ENDCHAR
STARTCHAR afii10046
ENCODING 1068
SWIDTH 500 0
DWIDTH 12 0
BBX 10 16 2 0
BITMAP
C000
C000
C000
C000
C000
C000
FF00
FF00
C0C0
C0C0
C0C0
C0C0
C0C0
C0C0
FF00
FF00
ENDCHAR
STARTCHAR afii10047
ENCODING 1069
SWIDTH 500 0
DWIDTH 12 0
BBX 10 16 2 0
BITMAP
3C00
3C00
C300
C300
00C0
00C0
3FC0
3FC0
00C0
00C0
00C0
00C0
C300
C300
3C00
3C00
ENDCHAR
STARTCHAR afii10048
ENCODING 1070
SWIDTH 500 0
DWIDTH 12 0
BBX 10 16 2 0
BITMAP
C300
C300
CCC0
CCC0
CCC0
CCC0
FCC0
FCC0
CCC0
CCC0
CCC0
CCC0
CCC0
CCC0
C300
C300
ENDCHAR
STARTCHAR afii10049
ENCODING 1071
SWIDTH 500 0
DWIDTH 12 0
BBX 10 16 2 0
BITMAP
3FC0
3FC0
C0C0
C0C0
C0C0
C0C0
C0C0
C0C0
3FC0
3FC0
0CC0
0CC0
30C0
30C0
C0C0
C0C0
ENDCHAR
STARTCHAR afii10065
ENCODING 1072
SWIDTH 500 0
DWIDTH 12 0
BBX 10 12 2 0
BITMAP
3F00
3F00
00C0
00C0
3FC0
3FC0
C0C0
C0C0
C3C0
C3C0
3CC0
3CC0
ENDCHAR
STARTCHAR afii10066
ENCODING 1073
SWIDTH 500 0
DWIDTH 12 0
BBX 10 18 2 0
BITMAP
00C0
00C0
3F00
3F00
C000
C000
CF00
CF00
F0C0
F0C0
C0C0
C0C0
C0C0
C0C0
C0C0
C0C0
3F00
3F00
ENDCHAR
STARTCHAR afii10067
ENCODING 1074
SWIDTH 500 0
DWIDTH 12 0
BBX 10 12 2 0
BITMAP
FF00
FF00
C0C0
C0C0
FF00
FF00
C0C0
C0C0
C0C0
C0C0
FF00
FF00
ENDCHAR
STARTCHAR afii10068
ENCODING 1075
SWIDTH 500 0
DWIDTH 12 0
BBX 8 12 4 0
BITMAP
FF00
FF00
C000
C000
C000
C000
C000
C000
C000
C000
C000
C000
ENDCHAR
STARTCHAR afii10069
ENCODING 1076
SWIDTH 500 0
DWIDTH 12 0
BBX 12 14 2 -2
BITMAP
3FC0
3FC0
30C0
30C0
30C0
30C0
30C0
30C0
C0C0
C0C0
FFF0
FFF0
C030
C030
ENDCHAR
STARTCHAR afii10070
ENCODING 1077
SWIDTH 500 0
DWIDTH 12 0
BBX 10 12 2 0
BITMAP
3F00
3F00
C0C0
C0C0
FFC0
FFC0
C000
C000
C0C0
C0C0
3F00
3F00
ENDCHAR
STARTCHAR afii10072
ENCODING 1078
SWIDTH 500 0
DWIDTH 12 0
BBX 10 12 2 0
BITMAP
CCC0
CCC0
CCC0
CCC0
3F00
3F00
3F00
3F00
CCC0
CCC0
CCC0
CCC0
ENDCHAR
STARTCHAR afii10073
ENCODING 1079
SWIDTH 500 0
DWIDTH 12 0
BBX 10 12 2 0
BITMAP
3F00
3F00
C0C0
C0C0
0F00
0F00
00C0
00C0
C0C0
C0C0
3F00
3F00
ENDCHAR
STARTCHAR afii10074
ENCODING 1080
SWIDTH 500 0
DWIDTH 12 0
BBX 10 12 2 0
BITMAP
C3C0
C3C0
C3C0
C3C0
CCC0
CCC0
CCC0
CCC0
F0C0
F0C0
F0C0
F0C0
ENDCHAR
STARTCHAR afii10075
ENCODING 1081
SWIDTH 500 0
DWIDTH 12 0
BBX 10 18 2 0
BITMAP
3300
3300
0C00
0C00
0000
0000
C3C0
C3C0
C3C0
C3C0
CCC0
CCC0
CCC0
CCC0
F0C0
F0C0
F0C0
F0C0
ENDCHAR
STARTCHAR afii10076
ENCODING 1082
SWIDTH 500 0
DWIDTH 12 0
BBX 10 12 2 0
BITMAP
C0C0
C0C0
C300
C300
CC00
CC00
FC00
FC00
C300
C300
C0C0
C0C0
ENDCHAR
STARTCHAR afii10077
ENCODING 1083
SWIDTH 500 0
DWIDTH 12 0
BBX 10 12 2 0
BITMAP
3FC0
3FC0
30C0
30C0
30C0
30C0
30C0
30C0
30C0
30C0
C0C0
C0C0
ENDCHAR
STARTCHAR afii10078
ENCODING 1084
SWIDTH 500 0
DWIDTH 12 0
BBX 10 12 2 0
BITMAP
C0C0
C0C0
F3C0
F3C0
F3C0
F3C0
CCC0
CCC0
CCC0
CCC0
C0C0
C0C0
ENDCHAR
STARTCHAR afii10079
ENCODING 1085
SWIDTH 500 0
DWIDTH 12 0
BBX 10 12 2 0
BITMAP
C0C0
C0C0
C0C0
C0C0
C0C0
C0C0
FFC0
FFC0
C0C0
C0C0
C0C0
C0C0
ENDCHAR
STARTCHAR afii10080
ENCODING 1086
SWIDTH 500 0
DWIDTH 12 0
BBX 10 12 2 0
BITMAP
3F00
3F00
C0C0
C0C0
C0C0
C0C0
C0C0
C0C0
C0C0
C0C0
3F00
3F00
ENDCHAR
STARTCHAR afii10081
ENCODING 1087
SWIDTH 500 0
DWIDTH 12 0
BBX 10 12 2 0
BITMAP
FFC0
FFC0
C0C0
C0C0
C0C0
C0C0
C0C0
C0C0
C0C0
C0C0
C0C0
C0C0
ENDCHAR
STARTCHAR afii10082
ENCODING 1088
SWIDTH 500 0
DWIDTH 12 0
BBX 10 18 2 -6
BITMAP
CF00
CF00
F0C0
F0C0
C0C0
C0C0
C0C0
C0C0
F0C0
F0C0
CF00
CF00
C000
C000
C000
C000
C000
C000
ENDCHAR
STARTCHAR afii10083
ENCODING 1089
SWIDTH 500 0
DWIDTH 12 0
BBX 10 12 2 0
BITMAP
3F00
3F00
C0C0
C0C0
C000
C000
C000
C000
C0C0
C0C0
3F00
3F00
ENDCHAR
STARTCHAR afii10084
ENCODING 1090
SWIDTH 500 0
DWIDTH 12 0
BBX 10 12 2 0
BITMAP
FFC0
FFC0
0C00
0C00
0C00
0C00
0C00
0C00
0C00
0C00
0C00
0C00
ENDCHAR
STARTCHAR afii10085
ENCODING 1091
SWIDTH 500 0
DWIDTH 12 0
BBX 10 16 2 -4
BITMAP
C0C0
C0C0
C0C0
C0C0
C0C0
C0C0
3300
3300
3300
3300
0C00
0C00
0C00
0C00
F000
F000
ENDCHAR
STARTCHAR afii10086
ENCODING 1092
SWIDTH 500 0
DWIDTH 12 0
BBX 10 20 2 -4
BITMAP
0C00
0C00
0C00
0C00
3F00
3F00
CCC0
CCC0
CCC0
CCC0
CCC0
CCC0
CCC0
CCC0
3F00
3F00
0C00
0C00
0C00
0C00
ENDCHAR
STARTCHAR afii10087
ENCODING 1093
SWIDTH 500 0
DWIDTH 12 0
BBX 10 12 2 0
BITMAP
C0C0
C0C0
3300
3300
0C00
0C00
0C00
0C00
3300
3300
C0C0
C0C0
ENDCHAR
STARTCHAR afii10088
ENCODING 1094
SWIDTH 500 0
DWIDTH 12 0
BBX 10 14 2 -2
BITMAP
C300
C300
C300
C300
C300
C300
C300
C300
C300
C300
FFC0
FFC0
00C0
00C0
ENDCHAR
STARTCHAR afii10089
ENCODING 1095
SWIDTH 500 0
DWIDTH 12 0
BBX 10 12 2 0
BITMAP
C0C0
C0C0
C0C0
C0C0
C0C0
C0C0
3FC0
3FC0
00C0
00C0
00C0
00C0
ENDCHAR
STARTCHAR afii10090
ENCODING 1096
SWIDTH 500 0
DWIDTH 12 0
BBX 10 12 2 0
BITMAP
CCC0
CCC0
CCC0
CCC0
CCC0
CCC0
CCC0
CCC0
CCC0
CCC0
FFC0
FFC0
ENDCHAR
STARTCHAR afii10091
ENCODING 1097
SWIDTH 500 0
DWIDTH 12 0
BBX 12 16 2 -4
BITMAP
CCC0
CCC0
CCC0
CCC0
CCC0
CCC0
CCC0
CCC0
CCC0
CCC0
FFC0
FFC0
0030
0030
03F0
03F0
ENDCHAR
STARTCHAR afii10092
ENCODING 1098
SWIDTH 500 0
DWIDTH 12 0
BBX 12 12 0 0
BITMAP
FC00
FC00
0C00
0C00
0FC0
0FC0
0C30
0C30
0C30
0C30
0FC0
0FC0
ENDCHAR
STARTCHAR afii10093
ENCODING 1099
SWIDTH 500 0
DWIDTH 12 0
BBX 10 12 2 0
BITMAP
C0C0
C0C0
C0C0
C0C0
F0C0
F0C0
CCC0
CCC0
CCC0
CCC0
F0C0
F0C0
ENDCHAR
STARTCHAR afii10094
ENCODING 1100
SWIDTH 500 0
DWIDTH 12 0
BBX 10 12 2 0
BITMAP
C000
C000
C000
C000
FF00
FF00
C0C0
C0C0
C0C0
C0C0
FF00
FF00
ENDCHAR
STARTCHAR afii10095
ENCODING 1101
SWIDTH 500 0
DWIDTH 12 0
BBX 10 12 2 0
BITMAP
FF00
FF00
00C0
00C0
3FC0
3FC0
00C0
00C0
00C0
00C0
FF00
FF00
ENDCHAR
STARTCHAR afii10096
ENCODING 1102
SWIDTH 500 0
DWIDTH 12 0
BBX 10 12 2 0
BITMAP
C300
C300
CCC0
CCC0
FCC0
FCC0
CCC0
CCC0
CCC0
CCC0
C300
C300
ENDCHAR
STARTCHAR afii10097
ENCODING 1103
SWIDTH 500 0
DWIDTH 12 0
BBX 10 12 2 0
BITMAP
3FC0
3FC0
C0C0
C0C0
C0C0
C0C0
3FC0
3FC0
30C0
30C0
C0C0
C0C0
ENDCHAR
STARTCHAR uni0450
ENCODING 1104
SWIDTH 500 0
DWIDTH 12 0
BBX 10 18 2 0
BITMAP
3000
3000
0C00
0C00
0000
0000
3F00
3F00
C0C0
C0C0
FFC0
FFC0
C000
C000
C0C0
C0C0
3F00
3F00
ENDCHAR
STARTCHAR afii10071
ENCODING 1105
SWIDTH 500 0
DWIDTH 12 0
BBX 10 16 2 0
BITMAP
3300
3300
0000
0000
3F00
3F00
C0C0
C0C0
FFC0
FFC0
C000
C000
C0C0
C0C0
3F00
3F00
ENDCHAR
STARTCHAR afii10099
ENCODING 1106
SWIDTH 500 0
DWIDTH 12 0
BBX 10 20 2 -4
BITMAP
3000
3000
3000
3000
FF00
FF00
3000
3000
33C0
33C0
3CC0
3CC0
30C0
30C0
30C0
30C0
00C0
00C0
0F00
0F00
ENDCHAR
STARTCHAR afii10100
ENCODING 1107
SWIDTH 500 0
DWIDTH 12 0
BBX 8 18 4 0
BITMAP
0C00
0C00
3000
3000
0000
0000
FF00
FF00
C000
C000
C000
C000
C000
C000
C000
C000
C000
C000
ENDCHAR
STARTCHAR afii10101
ENCODING 1108
SWIDTH 500 0
DWIDTH 12 0
BBX 10 12 2 0
BITMAP
3F00
3F00
C0C0
C0C0
FC00
FC00
C000
C000
C0C0
C0C0
3F00
3F00
ENDCHAR
STARTCHAR afii10102
ENCODING 1109
SWIDTH 500 0
DWIDTH 12 0
BBX 10 12 2 0
BITMAP
3F00
3F00
C0C0
C0C0
3C00
3C00
0300
0300
C0C0
C0C0
3F00
3F00
ENDCHAR
STARTCHAR afii10103
ENCODING 1110
SWIDTH 500 0
DWIDTH 12 0
BBX 6 16 4 0
BITMAP
3000
3000
0000
0000
3000
3000
F000
F000
3000
3000
3000
3000
3000
3000
FC00
FC00
ENDCHAR
STARTCHAR afii10104
ENCODING 1111
SWIDTH 500 0
DWIDTH 12 0
BBX 6 16 4 0
BITMAP
CC00
CC00
0000
0000
3000
3000
F000
F000
3000
3000
3000
3000
3000
3000
FC00
FC00
ENDCHAR
STARTCHAR afii10105
ENCODING 1112
SWIDTH 500 0
DWIDTH 12 0
BBX 6 20 4 -4
BITMAP
0C00
0C00
0000
0000
3C00
3C00
0C00
0C00
0C00
0C00
0C00
0C00
0C00
0C00
0C00
0C00
CC00
CC00
3000
3000
ENDCHAR
STARTCHAR afii10106
ENCODING 1113
SWIDTH 500 0
DWIDTH 12 0
BBX 12 12 0 0
BITMAP
3F00
3F00
3300
3300
33C0
33C0
3330
3330
3330
3330
C3C0
C3C0
ENDCHAR
STARTCHAR afii10107
ENCODING 1114
SWIDTH 500 0
DWIDTH 12 0
BBX 10 12 2 0
BITMAP
CC00
CC00
CC00
CC00
FF00
FF00
CCC0
CCC0
CCC0
CCC0
CF00
CF00
ENDCHAR
STARTCHAR afii10108
ENCODING 1115
SWIDTH 500 0
DWIDTH 12 0
BBX 10 16 2 0
BITMAP
3000
3000
3000
3000
FF00
FF00
3000
3000
33C0
33C0
3CC0
3CC0
30C0
30C0
30C0
30C0
ENDCHAR
STARTCHAR afii10109
ENCODING 1116
SWIDTH 500 0
DWIDTH 12 0
BBX 10 18 2 0
BITMAP
0300
0300
0C00
0C00
0000
0000
C0C0
C0C0
C300
C300
CC00
CC00
F300
F300
C300
C300
C0C0
C0C0
ENDCHAR
STARTCHAR uni045D
ENCODING 1117
SWIDTH 500 0
DWIDTH 12 0
BBX 10 18 2 0
BITMAP
3000
3000
0C00
0C00
0000
0000
C3C0
C3C0
C3C0
C3C0
CCC0
CCC0
CCC0
CCC0
F0C0
F0C0
F0C0
F0C0
ENDCHAR
STARTCHAR afii10110
ENCODING 1118
SWIDTH 500 0
DWIDTH 12 0
BBX 10 22 2 -4
BITMAP
3300
3300
0C00
0C00
0000
0000
C0C0
C0C0
C0C0
C0C0
C0C0
C0C0
3300
3300
3300
3300
0C00
0C00
0C00
0C00
F000
F000
ENDCHAR
STARTCHAR afii10193
ENCODING 1119
SWIDTH 500 0
DWIDTH 12 0
BBX 10 16 2 -4
BITMAP
C0C0
C0C0
C0C0
C0C0
C0C0
C0C0
C0C0
C0C0
C0C0
C0C0
FFC0
FFC0
0C00
0C00
0C00
0C00
ENDCHAR
STARTCHAR uni0460
ENCODING 1120
SWIDTH 500 0
DWIDTH 12 0
BBX 10 16 2 0
BITMAP
3300
3300
C0C0
C0C0
C0C0
C0C0
CCC0
CCC0
CCC0
CCC0
CCC0
CCC0
CCC0
CCC0
3300
3300
ENDCHAR
STARTCHAR uni0461
ENCODING 1121
SWIDTH 500 0
DWIDTH 12 0
BBX 10 12 2 0
BITMAP
3300
3300
C0C0
C0C0
C0C0
C0C0
CCC0
CCC0
CCC0
CCC0
3300
3300
ENDCHAR
STARTCHAR afii10146
ENCODING 1122
SWIDTH 500 0
DWIDTH 12 0
BBX 10 16 2 0
BITMAP
3000
3000
FF00
FF00
3000
3000
3F00
3F00
30C0
30C0
30C0
30C0
30C0
30C0
FF00
FF00
ENDCHAR
STARTCHAR afii10194
ENCODING 1123
SWIDTH 500 0
DWIDTH 12 0
BBX 10 16 2 0
BITMAP
3000
3000
3000
3000
FF00
FF00
3000
3000
3F00
3F00
30C0
30C0
30C0
30C0
3F00
3F00
ENDCHAR
STARTCHAR uni0464
ENCODING 1124
SWIDTH 500 0
DWIDTH 12 0
BBX 10 16 2 0
BITMAP
C3C0
C3C0
CC00
CC00
CC00
CC00
FF00
FF00
CC00
CC00
CC00
CC00
CC00
CC00
C3C0
C3C0
ENDCHAR
STARTCHAR uni0465
ENCODING 1125
SWIDTH 500 0
DWIDTH 12 0
BBX 10 12 2 0
BITMAP
C3C0
C3C0
CC00
CC00
FF00
FF00
CC00
CC00
CC00
CC00
C3C0
C3C0
ENDCHAR
STARTCHAR uni0466
ENCODING 1126
SWIDTH 500 0
DWIDTH 12 0
BBX 10 16 2 0
BITMAP
0C00
0C00
0C00
0C00
3300
3300
3300
3300
3F00
3F00
CCC0
CCC0
CCC0
CCC0
CCC0
CCC0
ENDCHAR
STARTCHAR uni0467
ENCODING 1127
SWIDTH 500 0
DWIDTH 12 0
BBX 10 12 2 0
BITMAP
0C00
0C00
3300
3300
3300
3300
FFC0
FFC0
CCC0
CCC0
CCC0
CCC0
ENDCHAR
STARTCHAR uni0468
ENCODING 1128
SWIDTH 500 0
DWIDTH 12 0
BBX 10 16 2 0
BITMAP
CC00
CC00
CC00
CC00
F300
F300
F300
F300
FF00
FF00
CCC0
CCC0
CCC0
CCC0
CCC0
CCC0
ENDCHAR
STARTCHAR uni0469
ENCODING 1129
SWIDTH 500 0
DWIDTH 12 0
BBX 10 12 2 0
BITMAP
CC00
CC00
CC00
CC00
F300
F300
FF00
FF00
CCC0
CCC0
CCC0
CCC0
ENDCHAR
STARTCHAR uni046A
ENCODING 1130
SWIDTH 500 0
DWIDTH 12 0
BBX 10 16 2 0
BITMAP
FFC0
FFC0
C0C0
C0C0
3300
3300
3300
3300
3F00
3F00
CCC0
CCC0
CCC0
CCC0
CCC0
CCC0
ENDCHAR
STARTCHAR uni046B
ENCODING 1131
SWIDTH 500 0
DWIDTH 12 0
BBX 10 12 2 0
BITMAP
FFC0
FFC0
C0C0
C0C0
3300
3300
3F00
3F00
CCC0
CCC0
CCC0
CCC0
ENDCHAR
STARTCHAR uni046C
ENCODING 1132
SWIDTH 500 0
DWIDTH 12 0
BBX 10 16 2 0
BITMAP
FFC0
FFC0
C0C0
C0C0
F300
F300
F300
F300
FF00
FF00
CCC0
CCC0
CCC0
CCC0
CCC0
CCC0
ENDCHAR
STARTCHAR uni046D
ENCODING 1133
SWIDTH 500 0
DWIDTH 12 0
BBX 10 12 2 0
BITMAP
FFC0
FFC0
C0C0
C0C0
F300
F300
FF00
FF00
CCC0
CCC0
CCC0
CCC0
ENDCHAR
STARTCHAR uni046E
ENCODING 1134
SWIDTH 500 0
DWIDTH 12 0
BBX 10 24 2 -4
BITMAP
3300
3300
0C00
0C00
3F00
3F00
C0C0
C0C0
00C0
00C0
0F00
0F00
00C0
00C0
00C0
00C0
00C0
00C0
3F00
3F00
C000
C000
3F00
3F00
ENDCHAR
STARTCHAR uni046F
ENCODING 1135
SWIDTH 500 0
DWIDTH 12 0
BBX 10 20 2 -4
BITMAP
3300
3300
0C00
0C00
3F00
3F00
C0C0
C0C0
0F00
0F00
00C0
00C0
00C0
00C0
3F00
3F00
C000
C000
3F00
3F00
ENDCHAR
STARTCHAR uni0470
ENCODING 1136
SWIDTH 500 0
DWIDTH 12 0
BBX 12 16 2 0
BITMAP
CCF0
CCF0
CCC0
CCC0
CCC0
CCC0
CCC0
CCC0
CCC0
CCC0
CCC0
CCC0
3F00
3F00
0C00
0C00
ENDCHAR
STARTCHAR uni0471
ENCODING 1137
SWIDTH 500 0
DWIDTH 12 0
BBX 10 16 2 -4
BITMAP
CCC0
CCC0
CCC0
CCC0
CCC0
CCC0
CCC0
CCC0
CCC0
CCC0
3F00
3F00
0C00
0C00
0C00
0C00
ENDCHAR
STARTCHAR afii10147
ENCODING 1138
SWIDTH 500 0
DWIDTH 12 0
BBX 10 16 2 0
BITMAP
3F00
3F00
C0C0
C0C0
C0C0
C0C0
FFC0
FFC0
C0C0
C0C0
C0C0
C0C0
C0C0
C0C0
3F00
3F00
ENDCHAR
STARTCHAR afii10195
ENCODING 1139
SWIDTH 500 0
DWIDTH 12 0
BBX 10 12 2 0
BITMAP
3F00
3F00
C0C0
C0C0
FFC0
FFC0
C0C0
C0C0
C0C0
C0C0
3F00
3F00
ENDCHAR
STARTCHAR afii10148
ENCODING 1140
SWIDTH 500 0
DWIDTH 12 0
BBX 12 16 2 0
BITMAP
C0F0
C0F0
C0C0
C0C0
C0C0
C0C0
3300
3300
3300
3300
3300
3300
0C00
0C00
0C00
0C00
ENDCHAR
STARTCHAR afii10196
ENCODING 1141
SWIDTH 500 0
DWIDTH 12 0
BBX 10 12 2 0
BITMAP
C0C0
C0C0
C0C0
C0C0
3300
3300
3300
3300
0C00
0C00
0C00
0C00
ENDCHAR
STARTCHAR uni0476
ENCODING 1142
SWIDTH 500 0
DWIDTH 12 0
BBX 12 20 2 0
BITMAP
CC00
CC00
3300
3300
0000
0000
C0F0
C0F0
C0C0
C0C0
3300
3300
3300
3300
3300
3300
0C00
0C00
0C00
0C00
ENDCHAR
STARTCHAR uni0477
ENCODING 1143
SWIDTH 500 0
DWIDTH 12 0
BBX 10 18 2 0
BITMAP
CC00
CC00
3300
3300
0000
0000
C0C0
C0C0
C0C0
C0C0
3300
3300
3300
3300
0C00
0C00
0C00
0C00
ENDCHAR
STARTCHAR uni0478
ENCODING 1144
SWIDTH 500 0
DWIDTH 12 0
BBX 10 16 2 0
BITMAP
C0C0
C0C0
C0C0
C0C0
3300
3300
0C00
0C00
3F00
3F00
CCC0
CCC0
C0C0
C0C0
3F00
3F00
ENDCHAR
STARTCHAR uni0479
ENCODING 1145
SWIDTH 500 0
DWIDTH 12 0
BBX 10 12 2 0
BITMAP
C0C0
C0C0
C0C0
C0C0
3F00
3F00
C0C0
C0C0
C0C0
C0C0
3F00
3F00
ENDCHAR
STARTCHAR uni047A
ENCODING 1146
SWIDTH 500 0
DWIDTH 12 0
BBX 10 16 2 0
BITMAP
3F00
3F00
CCC0
CCC0
C0C0
C0C0
C0C0
C0C0
C0C0
C0C0
C0C0
C0C0
CCC0
CCC0
3F00
3F00
ENDCHAR
STARTCHAR uni047B
ENCODING 1147
SWIDTH 500 0
DWIDTH 12 0
BBX 10 12 2 0
BITMAP
3F00
3F00
CCC0
CCC0
C0C0
C0C0
C0C0
C0C0
CCC0
CCC0
3F00
3F00
ENDCHAR
STARTCHAR uni047C
ENCODING 1148
SWIDTH 500 0
DWIDTH 12 0
BBX 10 20 2 0
BITMAP
3F00
3F00
0000
0000
0C00
0C00
C0C0
C0C0
C0C0
C0C0
C0C0
C0C0
C0C0
C0C0
C0C0
C0C0
CCC0
CCC0
3300
3300
ENDCHAR
STARTCHAR uni047D
ENCODING 1149
SWIDTH 500 0
DWIDTH 12 0
BBX 10 16 2 0
BITMAP
3F00
3F00
0000
0000
CCC0
CCC0
C0C0
C0C0
C0C0
C0C0
C0C0
C0C0
CCC0
CCC0
3300
3300
ENDCHAR
STARTCHAR uni047E
ENCODING 1150
SWIDTH 500 0
DWIDTH 12 0
BBX 10 20 2 0
BITMAP
FFC0
FFC0
CCC0
CCC0
0000
0000
C0C0
C0C0
C0C0
C0C0
C0C0
C0C0
C0C0
C0C0
CCC0
CCC0
CCC0
CCC0
3300
3300
ENDCHAR
STARTCHAR uni047F
ENCODING 1151
SWIDTH 500 0
DWIDTH 12 0
BBX 10 18 2 0
BITMAP
FFC0
FFC0
CCC0
CCC0
0000
0000
CCC0
CCC0
CCC0
CCC0
CCC0
CCC0
CCC0
CCC0
3F00
3F00
3300
3300
ENDCHAR
STARTCHAR uni0480
ENCODING 1152
SWIDTH 500 0
DWIDTH 12 0
BBX 10 20 2 -4
BITMAP
3F00
3F00
C0C0
C0C0
C000
C000
C000
C000
C000
C000
C000
C000
C000
C000
3F00
3F00
0300
0300
0300
0300
ENDCHAR
STARTCHAR uni0481
ENCODING 1153
SWIDTH 500 0
DWIDTH 12 0
BBX 10 16 2 -4
BITMAP
3F00
3F00
C0C0
C0C0
C000
C000
C000
C000
C000
C000
3F00
3F00
0300
0300
0300
0300
ENDCHAR
STARTCHAR uni0482
ENCODING 1154
SWIDTH 500 0
DWIDTH 12 0
BBX 10 16 2 0
BITMAP
0300
0300
0300
0300
FC00
FC00
0FC0
0FC0
FC00
FC00
0FC0
0FC0
3000
3000
3000
3000
ENDCHAR
STARTCHAR uni048A
ENCODING 1162
SWIDTH 500 0
DWIDTH 12 0
BBX 10 24 2 -4
BITMAP
3300
3300
0C00
0C00
C0C0
C0C0
C3C0
C3C0
C3C0
C3C0
CCC0
CCC0
CCC0
CCC0
F0C0
F0C0
F0C0
F0C0
C0C0
C0C0
00C0
00C0
0300
0300
ENDCHAR
STARTCHAR uni048B
ENCODING 1163
SWIDTH 500 0
DWIDTH 12 0
BBX 10 22 2 -4
BITMAP
3300
3300
0C00
0C00
0000
0000
C3C0
C3C0
C3C0
C3C0
CCC0
CCC0
CCC0
CCC0
F0C0
F0C0
F0C0
F0C0
00C0
00C0
0300
0300
ENDCHAR
STARTCHAR uni048C
ENCODING 1164
SWIDTH 500 0
DWIDTH 12 0
BBX 10 16 2 0
BITMAP
3000
3000
3000
3000
FC00
FC00
3000
3000
3F00
3F00
30C0
30C0
30C0
30C0
FF00
FF00
ENDCHAR
STARTCHAR uni048D
ENCODING 1165
SWIDTH 500 0
DWIDTH 12 0
BBX 10 16 2 0
BITMAP
3000
3000
3000
3000
3000
3000
FC00
FC00
3000
3000
3F00
3F00
30C0
30C0
3F00
3F00
ENDCHAR
STARTCHAR uni048E
ENCODING 1166
SWIDTH 500 0
DWIDTH 12 0
BBX 10 16 2 0
BITMAP
FF00
FF00
C0C0
C0C0
C0C0
C0C0
CCC0
CCC0
FF00
FF00
C0C0
C0C0
C000
C000
C000
C000
ENDCHAR
STARTCHAR uni048F
ENCODING 1167
SWIDTH 500 0
DWIDTH 12 0
BBX 10 18 2 -6
BITMAP
CF00
CF00
F0C0
F0C0
C0C0
C0C0
C0C0
C0C0
CCC0
CCC0
FF00
FF00
C0C0
C0C0
C000
C000
C000
C000
ENDCHAR
STARTCHAR afii10050
ENCODING 1168
SWIDTH 500 0
DWIDTH 12 0
BBX 8 18 4 0
BITMAP
0300
0300
FF00
FF00
C000
C000
C000
C000
C000
C000
C000
C000
C000
C000
C000
C000
C000
C000
ENDCHAR
STARTCHAR afii10098
ENCODING 1169
SWIDTH 500 0
DWIDTH 12 0
BBX 8 14 4 0
BITMAP
0300
0300
FF00
FF00
C000
C000
C000
C000
C000
C000
C000
C000
C000
C000
ENDCHAR
STARTCHAR uni0492
ENCODING 1170
SWIDTH 500 0
DWIDTH 12 0
BBX 10 16 2 0
BITMAP
3FC0
3FC0
3000
3000
3000
3000
3000
3000
FF00
FF00
3000
3000
3000
3000
3000
3000
ENDCHAR
STARTCHAR uni0493
ENCODING 1171
SWIDTH 500 0
DWIDTH 12 0
BBX 10 12 2 0
BITMAP
3FC0
3FC0
3000
3000
FF00
FF00
3000
3000
3000
3000
3000
3000
ENDCHAR
STARTCHAR uni0494
ENCODING 1172
SWIDTH 500 0
DWIDTH 12 0
BBX 8 20 4 -4
BITMAP
FF00
FF00
C000
C000
C000
C000
C000
C000
FC00
FC00
C300
C300
C300
C300
C300
C300
0300
0300
0C00
0C00
ENDCHAR
STARTCHAR uni0495
ENCODING 1173
SWIDTH 500 0
DWIDTH 12 0
BBX 8 16 4 -4
BITMAP
FF00
FF00
C000
C000
C000
C000
FC00
FC00
C300
C300
C300
C300
0300
0300
0C00
0C00
ENDCHAR
STARTCHAR uni0496
ENCODING 1174
SWIDTH 500 0
DWIDTH 12 0
BBX 10 20 2 -4
BITMAP
CCC0
CCC0
CCC0
CCC0
CCC0
CCC0
3F00
3F00
3F00
3F00
CCC0
CCC0
CCC0
CCC0
CCC0
CCC0
00C0
00C0
00C0
00C0
ENDCHAR
STARTCHAR uni0497
ENCODING 1175
SWIDTH 500 0
DWIDTH 12 0
BBX 10 16 2 -4
BITMAP
CCC0
CCC0
CCC0
CCC0
3F00
3F00
3F00
3F00
CCC0
CCC0
CCC0
CCC0
00C0
00C0
00C0
00C0
ENDCHAR
STARTCHAR uni0498
ENCODING 1176
SWIDTH 500 0
DWIDTH 12 0
BBX 10 20 2 -4
BITMAP
FF00
FF00
C0C0
C0C0
00C0
00C0
0F00
0F00
00C0
00C0
00C0
00C0
C0C0
C0C0
3F00
3F00
0C00
0C00
3C00
3C00
ENDCHAR
STARTCHAR uni0499
ENCODING 1177
SWIDTH 500 0
DWIDTH 12 0
BBX 10 16 2 -4
BITMAP
3F00
3F00
C0C0
C0C0
0F00
0F00
00C0
00C0
C0C0
C0C0
3F00
3F00
0C00
0C00
3C00
3C00
ENDCHAR
STARTCHAR uni049A
ENCODING 1178
SWIDTH 500 0
DWIDTH 12 0
BBX 10 20 2 -4
BITMAP
C300
C300
C300
C300
C300
C300
CC00
CC00
FC00
FC00
CC00
CC00
C300
C300
C3C0
C3C0
00C0
00C0
00C0
00C0
ENDCHAR
STARTCHAR uni049B
ENCODING 1179
SWIDTH 500 0
DWIDTH 12 0
BBX 10 16 2 -4
BITMAP
C300
C300
C300
C300
CC00
CC00
FC00
FC00
C300
C300
C3C0
C3C0
00C0
00C0
00C0
00C0
ENDCHAR
STARTCHAR uni049C
ENCODING 1180
SWIDTH 500 0
DWIDTH 12 0
BBX 10 16 2 0
BITMAP
C0C0
C0C0
CCC0
CCC0
CF00
CF00
CC00
CC00
FF00
FF00
CF00
CF00
CCC0
CCC0
C0C0
C0C0
ENDCHAR
STARTCHAR uni049D
ENCODING 1181
SWIDTH 500 0
DWIDTH 12 0
BBX 10 12 2 0
BITMAP
C0C0
C0C0
CCC0
CCC0
CF00
CF00
FF00
FF00
CCC0
CCC0
C0C0
C0C0
ENDCHAR
STARTCHAR uni049E
ENCODING 1182
SWIDTH 500 0
DWIDTH 12 0
BBX 12 16 0 0
BITMAP
3030
3030
FC30
FC30
30C0
30C0
3300
3300
3CC0
3CC0
30C0
30C0
3030
3030
3030
3030
ENDCHAR
STARTCHAR uni049F
ENCODING 1183
SWIDTH 500 0
DWIDTH 12 0
BBX 12 16 0 0
BITMAP
3000
3000
FF00
FF00
3030
3030
30C0
30C0
3300
3300
3CC0
3CC0
30C0
30C0
3030
3030
ENDCHAR
STARTCHAR uni04A0
ENCODING 1184
SWIDTH 500 0
DWIDTH 12 0
BBX 12 16 0 0
BITMAP
FC30
FC30
0C30
0C30
0CC0
0CC0
0CC0
0CC0
0FC0
0FC0
0C30
0C30
0C30
0C30
0C30
0C30
ENDCHAR
STARTCHAR uni04A1
ENCODING 1185
SWIDTH 500 0
DWIDTH 12 0
BBX 12 12 0 0
BITMAP
FC30
FC30
0CC0
0CC0
0CC0
0CC0
0FC0
0FC0
0C30
0C30
0C30
0C30
ENDCHAR
STARTCHAR uni04A2
ENCODING 1186
SWIDTH 500 0
DWIDTH 12 0
BBX 10 20 2 -4
BITMAP
C300
C300
C300
C300
C300
C300
FF00
FF00
C300
C300
C300
C300
C300
C300
C3C0
C3C0
00C0
00C0
00C0
00C0
ENDCHAR
STARTCHAR uni04A3
ENCODING 1187
SWIDTH 500 0
DWIDTH 12 0
BBX 10 16 2 -4
BITMAP
C300
C300
C300
C300
FF00
FF00
C300
C300
C300
C300
C3C0
C3C0
00C0
00C0
00C0
00C0
ENDCHAR
STARTCHAR uni04A4
ENCODING 1188
SWIDTH 500 0
DWIDTH 12 0
BBX 12 16 2 0
BITMAP
C3F0
C3F0
C300
C300
C300
C300
FF00
FF00
C300
C300
C300
C300
C300
C300
C300
C300
ENDCHAR
STARTCHAR uni04A5
ENCODING 1189
SWIDTH 500 0
DWIDTH 12 0
BBX 12 12 2 0
BITMAP
C3F0
C3F0
C300
C300
FF00
FF00
C300
C300
C300
C300
C300
C300
ENDCHAR
STARTCHAR uni04A6
ENCODING 1190
SWIDTH 500 0
DWIDTH 12 0
BBX 10 20 2 -4
BITMAP
FC00
FC00
CC00
CC00
CC00
CC00
CC00
CC00
CF00
CF00
CCC0
CCC0
CCC0
CCC0
CCC0
CCC0
00C0
00C0
0300
0300
ENDCHAR
STARTCHAR uni04A7
ENCODING 1191
SWIDTH 500 0
DWIDTH 12 0
BBX 10 16 2 -4
BITMAP
FC00
FC00
CC00
CC00
CC00
CC00
CF00
CF00
CCC0
CCC0
CCC0
CCC0
00C0
00C0
0300
0300
ENDCHAR
STARTCHAR uni04A8
ENCODING 1192
SWIDTH 500 0
DWIDTH 12 0
BBX 10 16 2 0
BITMAP
3000
3000
C300
C300
CCC0
CCC0
CCC0
CCC0
CCC0
CCC0
CCC0
CCC0
C300
C300
3CC0
3CC0
ENDCHAR
STARTCHAR uni04A9
ENCODING 1193
SWIDTH 500 0
DWIDTH 12 0
BBX 10 12 2 0
BITMAP
3000
3000
C300
C300
CCC0
CCC0
CCC0
CCC0
C300
C300
3CC0
3CC0
ENDCHAR
STARTCHAR uni04AA
ENCODING 1194
SWIDTH 500 0
DWIDTH 12 0
BBX 10 20 2 -4
BITMAP
3F00
3F00
C0C0
C0C0
C000
C000
C000
C000
C000
C000
C000
C000
C0C0
C0C0
3F00
3F00
0300
0300
0F00
0F00
ENDCHAR
STARTCHAR uni04AB
ENCODING 1195
SWIDTH 500 0
DWIDTH 12 0
BBX 10 16 2 -4
BITMAP
3F00
3F00
C0C0
C0C0
C000
C000
C000
C000
C0C0
C0C0
3F00
3F00
0300
0300
0F00
0F00
ENDCHAR
STARTCHAR uni04AC
ENCODING 1196
SWIDTH 500 0
DWIDTH 12 0
BBX 10 20 2 -4
BITMAP
FFC0
FFC0
0C00
0C00
0C00
0C00
0C00
0C00
0C00
0C00
0C00
0C00
0C00
0C00
0F00
0F00
0300
0300
0300
0300
ENDCHAR
STARTCHAR uni04AD
ENCODING 1197
SWIDTH 500 0
DWIDTH 12 0
BBX 10 16 2 -4
BITMAP
FFC0
FFC0
0C00
0C00
0C00
0C00
0C00
0C00
0C00
0C00
0F00
0F00
0300
0300
0300
0300
ENDCHAR
STARTCHAR uni04AE
ENCODING 1198
SWIDTH 500 0
DWIDTH 12 0
BBX 10 16 2 0
BITMAP
C0C0
C0C0
C0C0
C0C0
3300
3300
3300
3300
0C00
0C00
0C00
0C00
0C00
0C00
0C00
0C00
ENDCHAR
STARTCHAR uni04AF
ENCODING 1199
SWIDTH 500 0
DWIDTH 12 0
BBX 10 16 2 -4
BITMAP
C0C0
C0C0
C0C0
C0C0
3300
3300
3300
3300
0C00
0C00
0C00
0C00
0C00
0C00
0C00
0C00
ENDCHAR
STARTCHAR uni04B0
ENCODING 1200
SWIDTH 500 0
DWIDTH 12 0
BBX 10 16 2 0
BITMAP
C0C0
C0C0
C0C0
C0C0
3300
3300
3300
3300
0C00
0C00
3F00
3F00
0C00
0C00
0C00
0C00
ENDCHAR
STARTCHAR uni04B1
ENCODING 1201
SWIDTH 500 0
DWIDTH 12 0
BBX 10 16 2 -4
BITMAP
C0C0
C0C0
C0C0
C0C0
3300
3300
3300
3300
0C00
0C00
3F00
3F00
0C00
0C00
0C00
0C00
ENDCHAR
STARTCHAR uni04B2
ENCODING 1202
SWIDTH 500 0
DWIDTH 12 0
BBX 10 20 2 -4
BITMAP
C0C0
C0C0
C0C0
C0C0
3300
3300
0C00
0C00
0C00
0C00
3300
3300
C0C0
C0C0
C0C0
C0C0
00C0
00C0
00C0
00C0
ENDCHAR
STARTCHAR uni04B3
ENCODING 1203
SWIDTH 500 0
DWIDTH 12 0
BBX 10 16 2 -4
BITMAP
C0C0
C0C0
3300
3300
0C00
0C00
0C00
0C00
3300
3300
C0C0
C0C0
00C0
00C0
00C0
00C0
ENDCHAR
STARTCHAR uni04B4
ENCODING 1204
SWIDTH 500 0
DWIDTH 12 0
BBX 12 18 2 -2
BITMAP
FCC0
FCC0
30C0
30C0
30C0
30C0
30C0
30C0
30C0
30C0
30C0
30C0
30C0
30C0
3FF0
3FF0
0030
0030
ENDCHAR
STARTCHAR uni04B5
ENCODING 1205
SWIDTH 500 0
DWIDTH 12 0
BBX 12 14 2 -2
BITMAP
FCC0
FCC0
30C0
30C0
30C0
30C0
30C0
30C0
30C0
30C0
3FF0
3FF0
0030
0030
ENDCHAR
STARTCHAR uni04B6
ENCODING 1206
SWIDTH 500 0
DWIDTH 12 0
BBX 10 20 2 -4
BITMAP
C300
C300
C300
C300
C300
C300
C300
C300
3F00
3F00
0300
0300
0300
0300
03C0
03C0
00C0
00C0
00C0
00C0
ENDCHAR
STARTCHAR uni04B7
ENCODING 1207
SWIDTH 500 0
DWIDTH 12 0
BBX 10 16 2 -4
BITMAP
C300
C300
C300
C300
C300
C300
3F00
3F00
0300
0300
03C0
03C0
00C0
00C0
00C0
00C0
ENDCHAR
STARTCHAR uni04B8
ENCODING 1208
SWIDTH 500 0
DWIDTH 12 0
BBX 10 16 2 0
BITMAP
C0C0
C0C0
C0C0
C0C0
C0C0
C0C0
CCC0
CCC0
3FC0
3FC0
0CC0
0CC0
00C0
00C0
00C0
00C0
ENDCHAR
STARTCHAR uni04B9
ENCODING 1209
SWIDTH 500 0
DWIDTH 12 0
BBX 10 12 2 0
BITMAP
C0C0
C0C0
C0C0
C0C0
CCC0
CCC0
3FC0
3FC0
0CC0
0CC0
00C0
00C0
ENDCHAR
STARTCHAR uni04BA
ENCODING 1210
SWIDTH 500 0
DWIDTH 12 0
BBX 10 16 2 0
BITMAP
C000
C000
C000
C000
C000
C000
FF00
FF00
C0C0
C0C0
C0C0
C0C0
C0C0
C0C0
C0C0
C0C0
ENDCHAR
STARTCHAR uni04BB
ENCODING 1211
SWIDTH 500 0
DWIDTH 12 0
BBX 10 12 2 0
BITMAP
C000
C000
C000
C000
FF00
FF00
C0C0
C0C0
C0C0
C0C0
C0C0
C0C0
ENDCHAR
STARTCHAR uni04BC
ENCODING 1212
SWIDTH 500 0
DWIDTH 12 0
BBX 10 16 2 0
BITMAP
0300
0300
0CC0
0CC0
CCC0
CCC0
3FC0
3FC0
0C00
0C00
0C00
0C00
0CC0
0CC0
0300
0300
ENDCHAR
STARTCHAR uni04BD
ENCODING 1213
SWIDTH 500 0
DWIDTH 12 0
BBX 10 12 2 0
BITMAP
0300
0300
CCC0
CCC0
3FC0
3FC0
0C00
0C00
0CC0
0CC0
0300
0300
ENDCHAR
STARTCHAR uni04BE
ENCODING 1214
SWIDTH 500 0
DWIDTH 12 0
BBX 10 20 2 -4
BITMAP
0300
0300
0CC0
0CC0
CCC0
CCC0
3FC0
3FC0
0C00
0C00
0C00
0C00
0CC0
0CC0
0300
0300
0300
0300
0300
0300
ENDCHAR
STARTCHAR uni04BF
ENCODING 1215
SWIDTH 500 0
DWIDTH 12 0
BBX 10 16 2 -4
BITMAP
0300
0300
CCC0
CCC0
3FC0
3FC0
0C00
0C00
0CC0
0CC0
0300
0300
0300
0300
0300
0300
ENDCHAR
STARTCHAR uni04C0
ENCODING 1216
SWIDTH 500 0
DWIDTH 12 0
BBX 6 16 4 0
BITMAP
FC00
FC00
3000
3000
3000
3000
3000
3000
3000
3000
3000
3000
3000
3000
FC00
FC00
ENDCHAR
STARTCHAR uni04C1
ENCODING 1217
SWIDTH 500 0
DWIDTH 12 0
BBX 10 20 2 0
BITMAP
3300
3300
0C00
0C00
0000
0000
CCC0
CCC0
CCC0
CCC0
CCC0
CCC0
3F00
3F00
CCC0
CCC0
CCC0
CCC0
CCC0
CCC0
ENDCHAR
STARTCHAR uni04C2
ENCODING 1218
SWIDTH 500 0
DWIDTH 12 0
BBX 10 18 2 0
BITMAP
3300
3300
0C00
0C00
0000
0000
CCC0
CCC0
CCC0
CCC0
3F00
3F00
3F00
3F00
CCC0
CCC0
CCC0
CCC0
ENDCHAR
STARTCHAR uni04C3
ENCODING 1219
SWIDTH 500 0
DWIDTH 12 0
BBX 10 20 2 -4
BITMAP
C0C0
C0C0
C0C0
C0C0
C300
C300
CC00
CC00
F300
F300
C300
C300
C0C0
C0C0
C0C0
C0C0
00C0
00C0
0F00
0F00
ENDCHAR
STARTCHAR uni04C4
ENCODING 1220
SWIDTH 500 0
DWIDTH 12 0
BBX 10 16 2 -4
BITMAP
C0C0
C0C0
C300
C300
CC00
CC00
F300
F300
C300
C300
C0C0
C0C0
00C0
00C0
0F00
0F00
ENDCHAR
STARTCHAR uni04C5
ENCODING 1221
SWIDTH 500 0
DWIDTH 12 0
BBX 10 20 2 -4
BITMAP
3FC0
3FC0
30C0
30C0
30C0
30C0
30C0
30C0
30C0
30C0
30C0
30C0
30C0
30C0
C0C0
C0C0
00C0
00C0
0300
0300
ENDCHAR
STARTCHAR uni04C6
ENCODING 1222
SWIDTH 500 0
DWIDTH 12 0
BBX 10 16 2 -4
BITMAP
3FC0
3FC0
30C0
30C0
30C0
30C0
30C0
30C0
30C0
30C0
C0C0
C0C0
00C0
00C0
0300
0300
ENDCHAR
STARTCHAR uni04C7
ENCODING 1223
SWIDTH 500 0
DWIDTH 12 0
BBX 10 18 2 -2
BITMAP
C0C0
C0C0
C0C0
C0C0
C0C0
C0C0
FFC0
FFC0
C0C0
C0C0
C0C0
C0C0
C0C0
C0C0
C0C0
C0C0
0F00
0F00
ENDCHAR
STARTCHAR uni04C8
ENCODING 1224
SWIDTH 500 0
DWIDTH 12 0
BBX 10 14 2 -2
BITMAP
C0C0
C0C0
C0C0
C0C0
C0C0
C0C0
FFC0
FFC0
C0C0
C0C0
C0C0
C0C0
0F00
0F00
ENDCHAR
STARTCHAR uni04C9
ENCODING 1225
SWIDTH 500 0
DWIDTH 12 0
BBX 10 20 2 -4
BITMAP
C0C0
C0C0
C0C0
C0C0
C0C0
C0C0
FFC0
FFC0
C0C0
C0C0
C0C0
C0C0
C0C0
C0C0
C0C0
C0C0
00C0
00C0
0300
0300
ENDCHAR
STARTCHAR uni04CA
ENCODING 1226
SWIDTH 500 0
DWIDTH 12 0
BBX 10 16 2 -4
BITMAP
C0C0
C0C0
C0C0
C0C0
C0C0
C0C0
FFC0
FFC0
C0C0
C0C0
C0C0
C0C0
00C0
00C0
0300
0300
ENDCHAR
STARTCHAR uni04CB
ENCODING 1227
SWIDTH 500 0
DWIDTH 12 0
BBX 10 20 2 -4
BITMAP
C0C0
C0C0
C0C0
C0C0
C0C0
C0C0
C0C0
C0C0
3FC0
3FC0
00C0
00C0
00C0
00C0
03C0
03C0
0300
0300
0300
0300
ENDCHAR
STARTCHAR uni04CC
ENCODING 1228
SWIDTH 500 0
DWIDTH 12 0
BBX 10 16 2 -4
BITMAP
C0C0
C0C0
C0C0
C0C0
C0C0
C0C0
3FC0
3FC0
00C0
00C0
03C0
03C0
0300
0300
0300
0300
ENDCHAR
STARTCHAR uni04CD
ENCODING 1229
SWIDTH 500 0
DWIDTH 12 0
BBX 10 20 2 -4
BITMAP
C0C0
C0C0
C0C0
C0C0
F3C0
F3C0
F3C0
F3C0
CCC0
CCC0
CCC0
CCC0
C0C0
C0C0
C0C0
C0C0
00C0
00C0
0300
0300
ENDCHAR
STARTCHAR uni04CE
ENCODING 1230
SWIDTH 500 0
DWIDTH 12 0
BBX 10 16 2 -4
BITMAP
C0C0
C0C0
F3C0
F3C0
F3C0
F3C0
CCC0
CCC0
CCC0
CCC0
C0C0
C0C0
00C0
00C0
0300
0300
ENDCHAR
STARTCHAR uni04CF
ENCODING 1231
SWIDTH 500 0
DWIDTH 12 0
BBX 4 16 4 0
BITMAP
F000
F000
3000
3000
3000
3000
3000
3000
3000
3000
3000
3000
3000
3000
3000
3000
ENDCHAR
STARTCHAR uni04D0
ENCODING 1232
SWIDTH 500 0
DWIDTH 12 0
BBX 10 20 2 0
BITMAP
3300
3300
0C00
0C00
0000
0000
0C00
0C00
0C00
0C00
3300
3300
3F00
3F00
3300
3300
C0C0
C0C0
C0C0
C0C0
ENDCHAR
STARTCHAR uni04D1
ENCODING 1233
SWIDTH 500 0
DWIDTH 12 0
BBX 10 18 2 0
BITMAP
3300
3300
0C00
0C00
0000
0000
3F00
3F00
00C0
00C0
3FC0
3FC0
C0C0
C0C0
C3C0
C3C0
3CC0
3CC0
ENDCHAR
STARTCHAR uni04D2
ENCODING 1234
SWIDTH 500 0
DWIDTH 12 0
BBX 10 20 2 0
BITMAP
3300
3300
0000
0000
0C00
0C00
0C00
0C00
3300
3300
3300
3300
3F00
3F00
C0C0
C0C0
C0C0
C0C0
C0C0
C0C0
ENDCHAR
STARTCHAR uni04D3
ENCODING 1235
SWIDTH 500 0
DWIDTH 12 0
BBX 10 16 2 0
BITMAP
3300
3300
0000
0000
3F00
3F00
00C0
00C0
3FC0
3FC0
C0C0
C0C0
C3C0
C3C0
3CC0
3CC0
ENDCHAR
STARTCHAR uni04D4
ENCODING 1236
SWIDTH 500 0
DWIDTH 12 0
BBX 10 16 2 0
BITMAP
0FC0
0FC0
0F00
0F00
3300
3300
33C0
33C0
3F00
3F00
3300
3300
C300
C300
C3C0
C3C0
ENDCHAR
STARTCHAR uni04D5
ENCODING 1237
SWIDTH 500 0
DWIDTH 12 0
BBX 10 12 2 0
BITMAP
F300
F300
0CC0
0CC0
3FC0
3FC0
CC00
CC00
CCC0
CCC0
3300
3300
ENDCHAR
STARTCHAR uni04D6
ENCODING 1238
SWIDTH 500 0
DWIDTH 12 0
BBX 10 20 2 0
BITMAP
3300
3300
0C00
0C00
0000
0000
FFC0
FFC0
C000
C000
C000
C000
FF00
FF00
C000
C000
C000
C000
FFC0
FFC0
ENDCHAR
STARTCHAR uni04D7
ENCODING 1239
SWIDTH 500 0
DWIDTH 12 0
BBX 10 18 2 0
BITMAP
3300
3300
0C00
0C00
0000
0000
3F00
3F00
C0C0
C0C0
FFC0
FFC0
C000
C000
C0C0
C0C0
3F00
3F00
ENDCHAR
STARTCHAR uni04D8
ENCODING 1240
SWIDTH 500 0
DWIDTH 12 0
BBX 10 16 2 0
BITMAP
3F00
3F00
C0C0
C0C0
00C0
00C0
00C0
00C0
FFC0
FFC0
C0C0
C0C0
C0C0
C0C0
3F00
3F00
ENDCHAR
STARTCHAR afii10846
ENCODING 1241
SWIDTH 500 0
DWIDTH 12 0
BBX 10 12 2 0
BITMAP
3F00
3F00
C0C0
C0C0
00C0
00C0
FFC0
FFC0
C0C0
C0C0
3F00
3F00
ENDCHAR
STARTCHAR uni04DA
ENCODING 1242
SWIDTH 500 0
DWIDTH 12 0
BBX 10 20 2 0
BITMAP
3300
3300
0000
0000
3F00
3F00
C0C0
C0C0
00C0
00C0
00C0
00C0
FFC0
FFC0
C0C0
C0C0
C0C0
C0C0
3F00
3F00
ENDCHAR
STARTCHAR uni04DB
ENCODING 1243
SWIDTH 500 0
DWIDTH 12 0
BBX 10 16 2 0
BITMAP
3300
3300
0000
0000
3F00
3F00
C0C0
C0C0
00C0
00C0
FFC0
FFC0
C0C0
C0C0
3F00
3F00
ENDCHAR
STARTCHAR uni04DC
ENCODING 1244
SWIDTH 500 0
DWIDTH 12 0
BBX 10 20 2 0
BITMAP
3300
3300
0000
0000
CCC0
CCC0
CCC0
CCC0
CCC0
CCC0
3F00
3F00
3F00
3F00
CCC0
CCC0
CCC0
CCC0
CCC0
CCC0
ENDCHAR
STARTCHAR uni04DD
ENCODING 1245
SWIDTH 500 0
DWIDTH 12 0
BBX 10 16 2 0
BITMAP
3300
3300
0000
0000
CCC0
CCC0
CCC0
CCC0
3F00
3F00
3F00
3F00
CCC0
CCC0
CCC0
CCC0
ENDCHAR
STARTCHAR uni04DE
ENCODING 1246
SWIDTH 500 0
DWIDTH 12 0
BBX 10 20 2 0
BITMAP
3300
3300
0000
0000
FF00
FF00
C0C0
C0C0
00C0
00C0
0F00
0F00
00C0
00C0
00C0
00C0
C0C0
C0C0
3F00
3F00
ENDCHAR
STARTCHAR uni04DF
ENCODING 1247
SWIDTH 500 0
DWIDTH 12 0
BBX 10 16 2 0
BITMAP
3300
3300
0000
0000
3F00
3F00
C0C0
C0C0
0F00
0F00
00C0
00C0
C0C0
C0C0
3F00
3F00
ENDCHAR
STARTCHAR uni04E0
ENCODING 1248
SWIDTH 500 0
DWIDTH 12 0
BBX 10 16 2 0
BITMAP
FFC0
FFC0
00C0
00C0
0300
0300
0F00
0F00
00C0
00C0
00C0
00C0
C0C0
C0C0
3F00
3F00
ENDCHAR
STARTCHAR uni04E1
ENCODING 1249
SWIDTH 500 0
DWIDTH 12 0
BBX 10 16 2 -4
BITMAP
FFC0
FFC0
00C0
00C0
0300
0300
0C00
0C00
3F00
3F00
00C0
00C0
C0C0
C0C0
3F00
3F00
ENDCHAR
STARTCHAR uni04E2
ENCODING 1250
SWIDTH 500 0
DWIDTH 12 0
BBX 10 20 2 0
BITMAP
3F00
3F00
0000
0000
C0C0
C0C0
C3C0
C3C0
C3C0
C3C0
CCC0
CCC0
CCC0
CCC0
F0C0
F0C0
F0C0
F0C0
C0C0
C0C0
ENDCHAR
STARTCHAR uni04E3
ENCODING 1251
SWIDTH 500 0
DWIDTH 12 0
BBX 10 16 2 0
BITMAP
3F00
3F00
0000
0000
C3C0
C3C0
C3C0
C3C0
CCC0
CCC0
CCC0
CCC0
F0C0
F0C0
F0C0
F0C0
ENDCHAR
STARTCHAR uni04E4
ENCODING 1252
SWIDTH 500 0
DWIDTH 12 0
BBX 10 20 2 0
BITMAP
3300
3300
0000
0000
C0C0
C0C0
C3C0
C3C0
C3C0
C3C0
CCC0
CCC0
CCC0
CCC0
F0C0
F0C0
F0C0
F0C0
C0C0
C0C0
ENDCHAR
STARTCHAR uni04E5
ENCODING 1253
SWIDTH 500 0
DWIDTH 12 0
BBX 10 16 2 0
BITMAP
3300
3300
0000
0000
C3C0
C3C0
C3C0
C3C0
CCC0
CCC0
CCC0
CCC0
F0C0
F0C0
F0C0
F0C0
ENDCHAR
STARTCHAR uni04E6
ENCODING 1254
SWIDTH 500 0
DWIDTH 12 0
BBX 10 20 2 0
BITMAP
3300
3300
0000
0000
3F00
3F00
C0C0
C0C0
C0C0
C0C0
C0C0
C0C0
C0C0
C0C0
C0C0
C0C0
C0C0
C0C0
3F00
3F00
ENDCHAR
STARTCHAR uni04E7
ENCODING 1255
SWIDTH 500 0
DWIDTH 12 0
BBX 10 16 2 0
BITMAP
3300
3300
0000
0000
3F00
3F00
C0C0
C0C0
C0C0
C0C0
C0C0
C0C0
C0C0
C0C0
3F00
3F00
ENDCHAR
STARTCHAR uni04E8
ENCODING 1256
SWIDTH 500 0
DWIDTH 12 0
BBX 10 16 2 0
BITMAP
3F00
3F00
C0C0
C0C0
C0C0
C0C0
C0C0
C0C0
FFC0
FFC0
C0C0
C0C0
C0C0
C0C0
3F00
3F00
ENDCHAR
STARTCHAR uni04E9
ENCODING 1257
SWIDTH 500 0
DWIDTH 12 0
BBX 10 12 2 0
BITMAP
3F00
3F00
C0C0
C0C0
C0C0
C0C0
FFC0
FFC0
C0C0
C0C0
3F00
3F00
ENDCHAR
STARTCHAR uni04EA
ENCODING 1258
SWIDTH 500 0
DWIDTH 12 0
BBX 10 20 2 0
BITMAP
3300
3300
0000
0000
3F00
3F00
C0C0
C0C0
C0C0
C0C0
C0C0
C0C0
FFC0
FFC0
C0C0
C0C0
C0C0
C0C0
3F00
3F00
ENDCHAR
STARTCHAR uni04EB
ENCODING 1259
SWIDTH 500 0
DWIDTH 12 0
BBX 10 16 2 0
BITMAP
3300
3300
0000
0000
3F00
3F00
C0C0
C0C0
C0C0
C0C0
FFC0
FFC0
C0C0
C0C0
3F00
3F00
ENDCHAR
STARTCHAR uni04EC
ENCODING 1260
SWIDTH 500 0
DWIDTH 12 0
BBX 10 20 2 0
BITMAP
3300
3300
0000
0000
3C00
3C00
C300
C300
00C0
00C0
3FC0
3FC0
00C0
00C0
00C0
00C0
C300
C300
3C00
3C00
ENDCHAR
STARTCHAR uni04ED
ENCODING 1261
SWIDTH 500 0
DWIDTH 12 0
BBX 10 16 2 0
BITMAP
3300
3300
0000
0000
FF00
FF00
00C0
00C0
3FC0
3FC0
00C0
00C0
00C0
00C0
FF00
FF00
ENDCHAR
STARTCHAR uni04EE
ENCODING 1262
SWIDTH 500 0
DWIDTH 12 0
BBX 10 20 2 0
BITMAP
3F00
3F00
0000
0000
C0C0
C0C0
C0C0
C0C0
C0C0
C0C0
C0C0
C0C0
3300
3300
3300
3300
0C00
0C00
F000
F000
ENDCHAR
STARTCHAR uni04EF
ENCODING 1263
SWIDTH 500 0
DWIDTH 12 0
BBX 10 20 2 -4
BITMAP
3F00
3F00
0000
0000
C0C0
C0C0
C0C0
C0C0
C0C0
C0C0
3300
3300
3300
3300
0C00
0C00
0C00
0C00
F000
F000
ENDCHAR
STARTCHAR uni04F0
ENCODING 1264
SWIDTH 500 0
DWIDTH 12 0
BBX 10 20 2 0
BITMAP
3300
3300
0000
0000
C0C0
C0C0
C0C0
C0C0
C0C0
C0C0
C0C0
C0C0
3300
3300
3300
3300
0C00
0C00
F000
F000
ENDCHAR
STARTCHAR uni04F1
ENCODING 1265
SWIDTH 500 0
DWIDTH 12 0
BBX 10 20 2 -4
BITMAP
3300
3300
0000
0000
C0C0
C0C0
C0C0
C0C0
C0C0
C0C0
3300
3300
3300
3300
0C00
0C00
0C00
0C00
F000
F000
ENDCHAR
STARTCHAR uni04F2
ENCODING 1266
SWIDTH 500 0
DWIDTH 12 0
BBX 10 20 2 0
BITMAP
0CC0
0CC0
3300
3300
0000
0000
C0C0
C0C0
C0C0
C0C0
C0C0
C0C0
3300
3300
3300
3300
0C00
0C00
F000
F000
ENDCHAR
STARTCHAR uni04F3
ENCODING 1267
SWIDTH 500 0
DWIDTH 12 0
BBX 10 22 2 -4
BITMAP
0CC0
0CC0
3300
3300
0000
0000
C0C0
C0C0
C0C0
C0C0
C0C0
C0C0
3300
3300
3300
3300
0C00
0C00
0C00
0C00
F000
F000
ENDCHAR
STARTCHAR uni04F4
ENCODING 1268
SWIDTH 500 0
DWIDTH 12 0
BBX 10 20 2 0
BITMAP
3300
3300
0000
0000
C0C0
C0C0
C0C0
C0C0
C0C0
C0C0
C0C0
C0C0
3FC0
3FC0
00C0
00C0
00C0
00C0
00C0
00C0
ENDCHAR
STARTCHAR uni04F5
ENCODING 1269
SWIDTH 500 0
DWIDTH 12 0
BBX 10 16 2 0
BITMAP
3300
3300
0000
0000
C0C0
C0C0
C0C0
C0C0
C0C0
C0C0
3FC0
3FC0
00C0
00C0
00C0
00C0
ENDCHAR
STARTCHAR uni04F6
ENCODING 1270
SWIDTH 500 0
DWIDTH 12 0
BBX 8 20 4 -4
BITMAP
FF00
FF00
C000
C000
C000
C000
C000
C000
C000
C000
C000
C000
C000
C000
F000
F000
3000
3000
3000
3000
ENDCHAR
STARTCHAR uni04F7
ENCODING 1271
SWIDTH 500 0
DWIDTH 12 0
BBX 8 16 4 -4
BITMAP
FF00
FF00
C000
C000
C000
C000
C000
C000
C000
C000
F000
F000
3000
3000
3000
3000
ENDCHAR
STARTCHAR uni04F8
ENCODING 1272
SWIDTH 500 0
DWIDTH 12 0
BBX 10 20 2 0
BITMAP
3300
3300
0000
0000
C0C0
C0C0
C0C0
C0C0
C0C0
C0C0
F0C0
F0C0
CCC0
CCC0
CCC0
CCC0
CCC0
CCC0
F0C0
F0C0
ENDCHAR
STARTCHAR uni04F9
ENCODING 1273
SWIDTH 500 0
DWIDTH 12 0
BBX 10 16 2 0
BITMAP
3300
3300
0000
0000
C0C0
C0C0
C0C0
C0C0
F0C0
F0C0
CCC0
CCC0
CCC0
CCC0
F0C0
F0C0
ENDCHAR
STARTCHAR uni04FA
ENCODING 1274
SWIDTH 500 0
DWIDTH 12 0
BBX 10 20 2 -4
BITMAP
3FC0
3FC0
3000
3000
3000
3000
3000
3000
FF00
FF00
3000
3000
3000
3000
3F00
3F00
0300
0300
3C00
3C00
ENDCHAR
STARTCHAR uni04FB
ENCODING 1275
SWIDTH 500 0
DWIDTH 12 0
BBX 10 16 2 -4
BITMAP
3FC0
3FC0
3000
3000
FF00
FF00
3000
3000
3000
3000
3F00
3F00
0300
0300
3C00
3C00
ENDCHAR
STARTCHAR uni04FC
ENCODING 1276
SWIDTH 500 0
DWIDTH 12 0
BBX 10 20 2 -4
BITMAP
C0C0
C0C0
C0C0
C0C0
3300
3300
0C00
0C00
0C00
0C00
3300
3300
C0C0
C0C0
C0C0
C0C0
00C0
00C0
0F00
0F00
ENDCHAR
STARTCHAR uni04FD
ENCODING 1277
SWIDTH 500 0
DWIDTH 12 0
BBX 10 16 2 -4
BITMAP
C0C0
C0C0
3300
3300
0C00
0C00
0C00
0C00
3300
3300
C0C0
C0C0
00C0
00C0
0F00
0F00
ENDCHAR
STARTCHAR uni04FE
ENCODING 1278
SWIDTH 500 0
DWIDTH 12 0
BBX 10 16 2 0
BITMAP
C0C0
C0C0
C0C0
C0C0
3300
3300
FFC0
FFC0
3F00
3F00
3300
3300
C0C0
C0C0
C0C0
C0C0
ENDCHAR
STARTCHAR uni04FF
ENCODING 1279
SWIDTH 500 0
DWIDTH 12 0
BBX 10 12 2 0
BITMAP
C0C0
C0C0
3300
3300
FFC0
FFC0
3F00
3F00
3300
3300
C0C0
C0C0
ENDCHAR
STARTCHAR uni0500
ENCODING 1280
SWIDTH 500 0
DWIDTH 12 0
BBX 10 16 2 0
BITMAP
0FC0
0FC0
0300
0300
3F00
3F00
C300
C300
C300
C300
C300
C300
C300
C300
3FC0
3FC0
ENDCHAR
STARTCHAR uni0501
ENCODING 1281
SWIDTH 500 0
DWIDTH 12 0
BBX 10 16 2 0
BITMAP
00C0
00C0
3CC0
3CC0
C3C0
C3C0
C0C0
C0C0
C0C0
C0C0
C0C0
C0C0
C3C0
C3C0
3CC0
3CC0
ENDCHAR
STARTCHAR uni0502
ENCODING 1282
SWIDTH 500 0
DWIDTH 12 0
BBX 10 16 2 0
BITMAP
3F00
3F00
0C00
0C00
3C00
3C00
CCC0
CCC0
CCC0
CCC0
CCC0
CCC0
CCC0
CCC0
3F00
3F00
ENDCHAR
STARTCHAR uni0503
ENCODING 1283
SWIDTH 500 0
DWIDTH 12 0
BBX 10 16 2 0
BITMAP
0C00
0C00
0C00
0C00
3C00
3C00
CC00
CC00
CC00
CC00
CCC0
CCC0
CCC0
CCC0
3F00
3F00
ENDCHAR
STARTCHAR uni0504
ENCODING 1284
SWIDTH 500 0
DWIDTH 12 0
BBX 10 16 2 0
BITMAP
F000
F000
0C00
0C00
0C00
0C00
F0C0
F0C0
0CC0
0CC0
0CC0
0CC0
0CC0
0CC0
0300
0300
ENDCHAR
STARTCHAR uni0505
ENCODING 1285
SWIDTH 500 0
DWIDTH 12 0
BBX 10 12 2 0
BITMAP
F000
F000
0C00
0C00
0CC0
0CC0
F0C0
F0C0
0CC0
0CC0
0300
0300
ENDCHAR
STARTCHAR uni0506
ENCODING 1286
SWIDTH 500 0
DWIDTH 12 0
BBX 10 20 2 -4
BITMAP
3C00
3C00
C300
C300
0300
0300
0C00
0C00
3C00
3C00
0300
0300
0300
0300
03C0
03C0
00C0
00C0
00C0
00C0
ENDCHAR
STARTCHAR uni0507
ENCODING 1287
SWIDTH 500 0
DWIDTH 12 0
BBX 10 16 2 -4
BITMAP
3C00
3C00
C300
C300
0300
0300
3C00
3C00
0300
0300
03C0
03C0
00C0
00C0
00C0
00C0
ENDCHAR
STARTCHAR uni0508
ENCODING 1288
SWIDTH 500 0
DWIDTH 12 0
BBX 12 16 0 0
BITMAP
3F00
3F00
3300
3300
3330
3330
3330
3330
3330
3330
3330
3330
3330
3330
C0C0
C0C0
ENDCHAR
STARTCHAR uni0509
ENCODING 1289
SWIDTH 500 0
DWIDTH 12 0
BBX 12 12 0 0
BITMAP
3F00
3F00
3300
3300
3330
3330
3330
3330
3330
3330
C0C0
C0C0
ENDCHAR
STARTCHAR uni050A
ENCODING 1290
SWIDTH 500 0
DWIDTH 12 0
BBX 10 16 2 0
BITMAP
CC00
CC00
CC00
CC00
CCC0
CCC0
FCC0
FCC0
CCC0
CCC0
CCC0
CCC0
CCC0
CCC0
C300
C300
ENDCHAR
STARTCHAR uni050B
ENCODING 1291
SWIDTH 500 0
DWIDTH 12 0
BBX 10 12 2 0
BITMAP
CC00
CC00
CC00
CC00
FCC0
FCC0
CCC0
CCC0
CCC0
CCC0
C300
C300
ENDCHAR
STARTCHAR uni050C
ENCODING 1292
SWIDTH 500 0
DWIDTH 12 0
BBX 10 16 2 0
BITMAP
3F00
3F00
C0C0
C0C0
C000
C000
C0C0
C0C0
C0C0
C0C0
C0C0
C0C0
C0C0
C0C0
3F00
3F00
ENDCHAR
STARTCHAR uni050D
ENCODING 1293
SWIDTH 500 0
DWIDTH 12 0
BBX 10 12 2 0
BITMAP
3F00
3F00
C0C0
C0C0
C000
C000
C0C0
C0C0
C0C0
C0C0
3F00
3F00
ENDCHAR
STARTCHAR uni050E
ENCODING 1294
SWIDTH 500 0
DWIDTH 12 0
BBX 10 16 2 0
BITMAP
FFC0
FFC0
0C00
0C00
0C00
0C00
0CC0
0CC0
0CC0
0CC0
0CC0
0CC0
0CC0
0CC0
0300
0300
ENDCHAR
STARTCHAR uni050F
ENCODING 1295
SWIDTH 500 0
DWIDTH 12 0
BBX 10 12 2 0
BITMAP
FFC0
FFC0
0C00
0C00
0CC0
0CC0
0CC0
0CC0
0CC0
0CC0
0300
0300
ENDCHAR
STARTCHAR uni0510
ENCODING 1296
SWIDTH 500 0
DWIDTH 12 0
BBX 10 16 2 0
BITMAP
3FC0
3FC0
C0C0
C0C0
C000
C000
3C00
3C00
C000
C000
C000
C000
C0C0
C0C0
3F00
3F00
ENDCHAR
STARTCHAR uni0511
ENCODING 1297
SWIDTH 500 0
DWIDTH 12 0
BBX 10 12 2 0
BITMAP
3F00
3F00
C0C0
C0C0
3C00
3C00
C000
C000
C0C0
C0C0
3F00
3F00
ENDCHAR
STARTCHAR uni0512
ENCODING 1298
SWIDTH 500 0
DWIDTH 12 0
BBX 10 18 2 -2
BITMAP
3FC0
3FC0
30C0
30C0
30C0
30C0
30C0
30C0
30C0
30C0
30C0
30C0
30C0
30C0
C0C0
C0C0
0F00
0F00
ENDCHAR
STARTCHAR uni0513
ENCODING 1299
SWIDTH 500 0
DWIDTH 12 0
BBX 10 14 2 -2
BITMAP
3FC0
3FC0
30C0
30C0
30C0
30C0
30C0
30C0
30C0
30C0
C0C0
C0C0
0F00
0F00
ENDCHAR
STARTCHAR uni0514
ENCODING 1300
SWIDTH 500 0
DWIDTH 12 0
BBX 12 16 0 0
BITMAP
3F30
3F30
3330
3330
3330
3330
30C0
30C0
30C0
30C0
3330
3330
3330
3330
C330
C330
ENDCHAR
STARTCHAR uni0515
ENCODING 1301
SWIDTH 500 0
DWIDTH 12 0
BBX 12 12 0 0
BITMAP
3F30
3F30
3330
3330
30C0
30C0
30C0
30C0
3330
3330
C330
C330
ENDCHAR
STARTCHAR uni0516
ENCODING 1302
SWIDTH 500 0
DWIDTH 12 0
BBX 10 16 2 0
BITMAP
F0C0
F0C0
CCC0
CCC0
CF00
CF00
CC00
CC00
FC00
FC00
C300
C300
C0C0
C0C0
C0C0
C0C0
ENDCHAR
STARTCHAR uni0517
ENCODING 1303
SWIDTH 500 0
DWIDTH 12 0
BBX 10 18 2 -6
BITMAP
F0C0
F0C0
CCC0
CCC0
CF00
CF00
CF00
CF00
CCC0
CCC0
F0C0
F0C0
C000
C000
C000
C000
C000
C000
ENDCHAR
STARTCHAR uni0518
ENCODING 1304
SWIDTH 500 0
DWIDTH 12 0
BBX 10 16 2 0
BITMAP
3FC0
3FC0
C300
C300
C300
C300
3FC0
3FC0
0F00
0F00
3300
3300
3300
3300
C3C0
C3C0
ENDCHAR
STARTCHAR uni0519
ENCODING 1305
SWIDTH 500 0
DWIDTH 12 0
BBX 10 12 2 0
BITMAP
3F00
3F00
CCC0
CCC0
3FC0
3FC0
3C00
3C00
CCC0
CCC0
C300
C300
ENDCHAR
STARTCHAR uni051A
ENCODING 1306
SWIDTH 500 0
DWIDTH 12 0
BBX 10 20 2 -4
BITMAP
3F00
3F00
C0C0
C0C0
C0C0
C0C0
C0C0
C0C0
C0C0
C0C0
C0C0
C0C0
C0C0
C0C0
3F00
3F00
0C00
0C00
0300
0300
ENDCHAR
STARTCHAR uni051B
ENCODING 1307
SWIDTH 500 0
DWIDTH 12 0
BBX 12 18 2 -6
BITMAP
3FC0
3FC0
C0C0
C0C0
C0C0
C0C0
C0C0
C0C0
C0C0
C0C0
3FC0
3FC0
00C0
00C0
00C0
00C0
00F0
00F0
ENDCHAR
STARTCHAR uni051C
ENCODING 1308
SWIDTH 500 0
DWIDTH 12 0
BBX 10 16 2 0
BITMAP
CCC0
CCC0
CCC0
CCC0
CCC0
CCC0
CCC0
CCC0
CCC0
CCC0
3300
3300
3300
3300
3300
3300
ENDCHAR
STARTCHAR uni051D
ENCODING 1309
SWIDTH 500 0
DWIDTH 12 0
BBX 10 12 2 0
BITMAP
CCC0
CCC0
CCC0
CCC0
CCC0
CCC0
CCC0
CCC0
3300
3300
3300
3300
ENDCHAR
STARTCHAR uni051E
ENCODING 1310
SWIDTH 500 0
DWIDTH 12 0
BBX 10 16 2 0
BITMAP
C0C0
C0C0
CCC0
CCC0
C300
C300
CCC0
CCC0
FC00
FC00
C300
C300
C0C0
C0C0
C0C0
C0C0
ENDCHAR
STARTCHAR uni051F
ENCODING 1311
SWIDTH 500 0
DWIDTH 12 0
BBX 10 12 2 0
BITMAP
CCC0
CCC0
C300
C300
CCC0
CCC0
FC00
FC00
C300
C300
C0C0
C0C0
ENDCHAR
STARTCHAR uni0520
ENCODING 1312
SWIDTH 500 0
DWIDTH 12 0
BBX 12 20 0 -4
BITMAP
3F00
3F00
3300
3300
3300
3300
3300
3300
33C0
33C0
3330
3330
3330
3330
C330
C330
0030
0030
00C0
00C0
ENDCHAR
STARTCHAR uni0521
ENCODING 1313
SWIDTH 500 0
DWIDTH 12 0
BBX 12 16 0 -4
BITMAP
3F00
3F00
3300
3300
3300
3300
33C0
33C0
3330
3330
C330
C330
0030
0030
00C0
00C0
ENDCHAR
STARTCHAR uni0522
ENCODING 1314
SWIDTH 500 0
DWIDTH 12 0
BBX 10 20 2 -4
BITMAP
CC00
CC00
CC00
CC00
CC00
CC00
FF00
FF00
CCC0
CCC0
CCC0
CCC0
CCC0
CCC0
CCC0
CCC0
00C0
00C0
0300
0300
ENDCHAR
STARTCHAR uni0523
ENCODING 1315
SWIDTH 500 0
DWIDTH 12 0
BBX 10 16 2 -4
BITMAP
CC00
CC00
CC00
CC00
CC00
CC00
FF00
FF00
CCC0
CCC0
CCC0
CCC0
00C0
00C0
0300
0300
ENDCHAR
STARTCHAR uni0524
ENCODING 1316
SWIDTH 500 0
DWIDTH 12 0
BBX 10 20 2 -4
BITMAP
FF00
FF00
C300
C300
C300
C300
C300
C300
C300
C300
C300
C300
C300
C300
C3C0
C3C0
00C0
00C0
00C0
00C0
ENDCHAR
STARTCHAR uni0525
ENCODING 1317
SWIDTH 500 0
DWIDTH 12 0
BBX 10 16 2 -4
BITMAP
FF00
FF00
C300
C300
C300
C300
C300
C300
C300
C300
C3C0
C3C0
00C0
00C0
00C0
00C0
ENDCHAR
STARTCHAR uni0526
ENCODING 1318
SWIDTH 500 0
DWIDTH 12 0
BBX 10 20 2 -4
BITMAP
C000
C000
C000
C000
C000
C000
FC00
FC00
C300
C300
C300
C300
C300
C300
C3C0
C3C0
00C0
00C0
00C0
00C0
ENDCHAR
STARTCHAR uni0527
ENCODING 1319
SWIDTH 500 0
DWIDTH 12 0
BBX 10 16 2 -4
BITMAP
C000
C000
C000
C000
FC00
FC00
C300
C300
C300
C300
C3C0
C3C0
00C0
00C0
00C0
00C0
ENDCHAR
STARTCHAR uni0528
ENCODING 1320
SWIDTH 500 0
DWIDTH 12 0
BBX 12 20 0 -4
BITMAP
0C30
0C30
0C30
0C30
0C30
0C30
0FF0
0FF0
0C30
0C30
0C30
0C30
0C30
0C30
0C30
0C30
CC00
CC00
3000
3000
ENDCHAR
STARTCHAR uni0529
ENCODING 1321
SWIDTH 500 0
DWIDTH 12 0
BBX 12 16 0 -4
BITMAP
0C30
0C30
0C30
0C30
0C30
0C30
0FF0
0FF0
0C30
0C30
0C30
0C30
CC00
CC00
3000
3000
ENDCHAR
STARTCHAR uni052A
ENCODING 1322
SWIDTH 500 0
DWIDTH 12 0
BBX 10 18 2 -2
BITMAP
0CC0
0CC0
3CC0
3CC0
3CC0
3CC0
CCC0
CCC0
CF00
CF00
CCC0
CCC0
CCC0
CCC0
FCC0
FCC0
CC00
CC00
ENDCHAR
STARTCHAR uni052B
ENCODING 1323
SWIDTH 500 0
DWIDTH 12 0
BBX 10 14 2 -2
BITMAP
0CC0
0CC0
3CC0
3CC0
3CC0
3CC0
CF00
CF00
CCC0
CCC0
FCC0
FCC0
CC00
CC00
ENDCHAR
STARTCHAR uni052C
ENCODING 1324
SWIDTH 500 0
DWIDTH 12 0
BBX 10 18 2 -2
BITMAP
C300
C300
CF00
CF00
CF00
CF00
F300
F300
3F00
3F00
3300
3300
C300
C300
FFC0
FFC0
C0C0
C0C0
ENDCHAR
STARTCHAR uni052D
ENCODING 1325
SWIDTH 500 0
DWIDTH 12 0
BBX 10 14 2 -2
BITMAP
C300
C300
CF00
CF00
3F00
3F00
0F00
0F00
3300
3300
FFC0
FFC0
C0C0
C0C0
ENDCHAR
STARTCHAR uni052E
ENCODING 1326
SWIDTH 500 0
DWIDTH 12 0
BBX 10 20 2 -4
BITMAP
3F00
3F00
3300
3300
3300
3300
3300
3300
3300
3300
3300
3300
3300
3300
C3C0
C3C0
00C0
00C0
00C0
00C0
ENDCHAR
STARTCHAR uni052F
ENCODING 1327
SWIDTH 500 0
DWIDTH 12 0
BBX 10 16 2 -4
BITMAP
3F00
3F00
3300
3300
3300
3300
3300
3300
3300
3300
C3C0
C3C0
00C0
00C0
00C0
00C0
ENDCHAR
STARTCHAR uni0CA0
ENCODING 3232
SWIDTH 500 0
DWIDTH 12 0
BBX 12 16 2 2
BITMAP
00C0
00C0
0030
0030
FFC0
FFC0
3F00
3F00
C0C0
C0C0
CCC0
CCC0
C0C0
C0C0
3F00
3F00
ENDCHAR
STARTCHAR uni0E3F
ENCODING 3647
SWIDTH 500 0
DWIDTH 12 0
BBX 10 20 2 -2
BITMAP
0C00
0C00
FF00
FF00
CCC0
CCC0
CCC0
CCC0
FF00
FF00
CCC0
CCC0
CCC0
CCC0
CCC0
CCC0
FF00
FF00
0C00
0C00
ENDCHAR
STARTCHAR uni16A0
ENCODING 5792
SWIDTH 500 0
DWIDTH 12 0
BBX 8 16 2 0
BITMAP
C300
C300
CC00
CC00
F300
F300
CC00
CC00
F000
F000
C000
C000
C000
C000
C000
C000
ENDCHAR
STARTCHAR uni16A2
ENCODING 5794
SWIDTH 500 0
DWIDTH 12 0
BBX 10 16 2 0
BITMAP
F000
F000
CC00
CC00
C300
C300
C0C0
C0C0
C0C0
C0C0
C0C0
C0C0
C0C0
C0C0
C0C0
C0C0
ENDCHAR
STARTCHAR uni16A3
ENCODING 5795
SWIDTH 500 0
DWIDTH 12 0
BBX 10 16 2 0
BITMAP
F000
F000
CC00
CC00
CC00
CC00
C300
C300
C300
C300
C300
C300
C0C0
C0C0
CCC0
CCC0
ENDCHAR
STARTCHAR uni16A4
ENCODING 5796
SWIDTH 500 0
DWIDTH 12 0
BBX 10 16 2 0
BITMAP
F000
F000
CC00
CC00
C300
C300
C0C0
C0C0
CCC0
CCC0
CCC0
CCC0
C0C0
C0C0
C0C0
C0C0
ENDCHAR
STARTCHAR uni16A5
ENCODING 5797
SWIDTH 500 0
DWIDTH 12 0
BBX 10 16 2 0
BITMAP
F000
F000
CC00
CC00
C300
C300
F0C0
F0C0
CCC0
CCC0
CCC0
CCC0
CCC0
CCC0
CCC0
CCC0
ENDCHAR
STARTCHAR uni16A6
ENCODING 5798
SWIDTH 500 0
DWIDTH 12 0
BBX 8 16 2 0
BITMAP
C000
C000
C000
C000
FC00
FC00
C300
C300
C300
C300
FC00
FC00
C000
C000
C000
C000
ENDCHAR
STARTCHAR uni16A8
ENCODING 5800
SWIDTH 500 0
DWIDTH 12 0
BBX 6 16 4 0
BITMAP
C000
C000
F000
F000
CC00
CC00
F000
F000
CC00
CC00
C000
C000
C000
C000
C000
C000
ENDCHAR
STARTCHAR uni16A9
ENCODING 5801
SWIDTH 500 0
DWIDTH 12 0
BBX 8 16 4 0
BITMAP
C000
C000
F300
F300
CC00
CC00
F300
F300
CC00
CC00
C000
C000
C000
C000
C000
C000
ENDCHAR
STARTCHAR uni16AA
ENCODING 5802
SWIDTH 500 0
DWIDTH 12 0
BBX 8 16 4 0
BITMAP
C000
C000
F300
F300
CC00
CC00
F000
F000
CC00
CC00
C000
C000
C000
C000
C000
C000
ENDCHAR
STARTCHAR uni16AB
ENCODING 5803
SWIDTH 500 0
DWIDTH 12 0
BBX 8 16 4 0
BITMAP
C000
C000
F000
F000
CF00
CF00
F000
F000
CF00
CF00
C000
C000
C000
C000
C000
C000
ENDCHAR
STARTCHAR uni16AC
ENCODING 5804
SWIDTH 500 0
DWIDTH 12 0
BBX 6 16 4 0
BITMAP
3000
3000
F000
F000
3C00
3C00
3000
3000
F000
F000
3C00
3C00
3000
3000
3000
3000
ENDCHAR
STARTCHAR uni1D00
ENCODING 7424
SWIDTH 500 0
DWIDTH 12 0
BBX 8 12 2 0
BITMAP
3C00
3C00
C300
C300
C300
C300
FF00
FF00
C300
C300
C300
C300
ENDCHAR
STARTCHAR uni1D07
ENCODING 7431
SWIDTH 500 0
DWIDTH 12 0
BBX 8 12 2 0
BITMAP
FF00
FF00
C000
C000
FF00
FF00
C000
C000
C000
C000
FF00
FF00
ENDCHAR
STARTCHAR uni1D25
ENCODING 7461
SWIDTH 500 0
DWIDTH 12 0
BBX 10 12 2 0
BITMAP
3F00
3F00
3F00
3F00
3F00
3F00
0C00
0C00
0C00
0C00
F3C0
F3C0
ENDCHAR
STARTCHAR uni1D4A
ENCODING 7498
SWIDTH 500 0
DWIDTH 12 0
BBX 6 10 4 8
BITMAP
F000
F000
0C00
0C00
FC00
FC00
CC00
CC00
3000
3000
ENDCHAR
STARTCHAR uni1D91
ENCODING 7569
SWIDTH 500 0
DWIDTH 12 0
BBX 12 24 2 -6
BITMAP
00F0
00F0
0300
0300
0300
0300
3F00
3F00
C300
C300
C300
C300
C300
C300
C300
C300
3F00
3F00
0300
0300
0300
0300
00F0
00F0
ENDCHAR
STARTCHAR uni1DBB
ENCODING 7611
SWIDTH 500 0
DWIDTH 12 0
BBX 6 10 4 8
BITMAP
FC00
FC00
0C00
0C00
3000
3000
C000
C000
FC00
FC00
ENDCHAR
STARTCHAR uni1DBF
ENCODING 7615
SWIDTH 500 0
DWIDTH 12 0
BBX 6 10 4 8
BITMAP
3000
3000
CC00
CC00
FC00
FC00
CC00
CC00
3000
3000
ENDCHAR
STARTCHAR uni1E00
ENCODING 7680
SWIDTH 500 0
DWIDTH 12 0
BBX 10 22 2 -6
BITMAP
3F00
3F00
C0C0
C0C0
C0C0
C0C0
C0C0
C0C0
FFC0
FFC0
C0C0
C0C0
C0C0
C0C0
C0C0
C0C0
0C00
0C00
3300
3300
0C00
0C00
ENDCHAR
STARTCHAR uni1E01
ENCODING 7681
SWIDTH 500 0
DWIDTH 12 0
BBX 10 18 2 -6
BITMAP
3FC0
3FC0
C0C0
C0C0
C0C0
C0C0
C0C0
C0C0
C3C0
C3C0
3CC0
3CC0
0C00
0C00
3300
3300
0C00
0C00
ENDCHAR
STARTCHAR uni1E02
ENCODING 7682
SWIDTH 500 0
DWIDTH 12 0
BBX 10 20 2 0
BITMAP
0C00
0C00
0000
0000
FF00
FF00
C0C0
C0C0
C0C0
C0C0
FF00
FF00
C0C0
C0C0
C0C0
C0C0
C0C0
C0C0
FF00
FF00
ENDCHAR
STARTCHAR uni1E03
ENCODING 7683
SWIDTH 500 0
DWIDTH 12 0
BBX 10 20 2 0
BITMAP
0C00
0C00
C000
C000
C000
C000
C000
C000
FF00
FF00
C0C0
C0C0
C0C0
C0C0
C0C0
C0C0
C0C0
C0C0
FF00
FF00
ENDCHAR
STARTCHAR uni1E04
ENCODING 7684
SWIDTH 500 0
DWIDTH 12 0
BBX 10 20 2 -4
BITMAP
FF00
FF00
C0C0
C0C0
C0C0
C0C0
FF00
FF00
C0C0
C0C0
C0C0
C0C0
C0C0
C0C0
FF00
FF00
0000
0000
0C00
0C00
ENDCHAR
STARTCHAR uni1E05
ENCODING 7685
SWIDTH 500 0
DWIDTH 12 0
BBX 10 22 2 -4
BITMAP
C000
C000
C000
C000
C000
C000
FF00
FF00
C0C0
C0C0
C0C0
C0C0
C0C0
C0C0
C0C0
C0C0
FF00
FF00
0000
0000
0C00
0C00
ENDCHAR
STARTCHAR uni1E06
ENCODING 7686
SWIDTH 500 0
DWIDTH 12 0
BBX 10 20 2 -4
BITMAP
FF00
FF00
C0C0
C0C0
C0C0
C0C0
FF00
FF00
C0C0
C0C0
C0C0
C0C0
C0C0
C0C0
FF00
FF00
0000
0000
FFC0
FFC0
ENDCHAR
STARTCHAR uni1E07
ENCODING 7687
SWIDTH 500 0
DWIDTH 12 0
BBX 10 22 2 -4
BITMAP
C000
C000
C000
C000
C000
C000
FF00
FF00
C0C0
C0C0
C0C0
C0C0
C0C0
C0C0
C0C0
C0C0
FF00
FF00
0000
0000
FFC0
FFC0
ENDCHAR
STARTCHAR uni1E08
ENCODING 7688
SWIDTH 500 0
DWIDTH 12 0
BBX 10 26 2 -6
BITMAP
0300
0300
0C00
0C00
0000
0000
3F00
3F00
C0C0
C0C0
C000
C000
C000
C000
C000
C000
C0C0
C0C0
3F00
3F00
0C00
0C00
0300
0300
3C00
3C00
ENDCHAR
STARTCHAR uni1E09
ENCODING 7689
SWIDTH 500 0
DWIDTH 12 0
BBX 10 24 2 -6
BITMAP
0300
0300
0C00
0C00
0000
0000
3F00
3F00
C0C0
C0C0
C000
C000
C000
C000
C0C0
C0C0
3F00
3F00
0C00
0C00
0300
0300
3C00
3C00
ENDCHAR
STARTCHAR uni1E0A
ENCODING 7690
SWIDTH 500 0
DWIDTH 12 0
BBX 10 20 2 0
BITMAP
0C00
0C00
0000
0000
FC00
FC00
C300
C300
C0C0
C0C0
C0C0
C0C0
C0C0
C0C0
C0C0
C0C0
C300
C300
FC00
FC00
ENDCHAR
STARTCHAR uni1E0B
ENCODING 7691
SWIDTH 500 0
DWIDTH 12 0
BBX 10 20 2 0
BITMAP
0C00
0C00
00C0
00C0
00C0
00C0
00C0
00C0
3FC0
3FC0
C0C0
C0C0
C0C0
C0C0
C0C0
C0C0
C0C0
C0C0
3FC0
3FC0
ENDCHAR
STARTCHAR uni1E0C
ENCODING 7692
SWIDTH 500 0
DWIDTH 12 0
BBX 10 20 2 -4
BITMAP
FC00
FC00
C300
C300
C0C0
C0C0
C0C0
C0C0
C0C0
C0C0
C0C0
C0C0
C300
C300
FC00
FC00
0000
0000
0C00
0C00
ENDCHAR
STARTCHAR uni1E0D
ENCODING 7693
SWIDTH 500 0
DWIDTH 12 0
BBX 10 22 2 -4
BITMAP
00C0
00C0
00C0
00C0
00C0
00C0
3FC0
3FC0
C0C0
C0C0
C0C0
C0C0
C0C0
C0C0
C0C0
C0C0
3FC0
3FC0
0000
0000
0C00
0C00
ENDCHAR
STARTCHAR uni1E0E
ENCODING 7694
SWIDTH 500 0
DWIDTH 12 0
BBX 10 20 2 -4
BITMAP
FC00
FC00
C300
C300
C0C0
C0C0
C0C0
C0C0
C0C0
C0C0
C0C0
C0C0
C300
C300
FC00
FC00
0000
0000
FFC0
FFC0
ENDCHAR
STARTCHAR uni1E0F
ENCODING 7695
SWIDTH 500 0
DWIDTH 12 0
BBX 10 22 2 -4
BITMAP
00C0
00C0
00C0
00C0
00C0
00C0
3FC0
3FC0
C0C0
C0C0
C0C0
C0C0
C0C0
C0C0
C0C0
C0C0
3FC0
3FC0
0000
0000
FFC0
FFC0
ENDCHAR
STARTCHAR uni1E10
ENCODING 7696
SWIDTH 500 0
DWIDTH 12 0
BBX 10 22 2 -6
BITMAP
FC00
FC00
C300
C300
C0C0
C0C0
C0C0
C0C0
C0C0
C0C0
C0C0
C0C0
C300
C300
FC00
FC00
0C00
0C00
0300
0300
3C00
3C00
ENDCHAR
STARTCHAR uni1E11
ENCODING 7697
SWIDTH 500 0
DWIDTH 12 0
BBX 10 24 2 -6
BITMAP
00C0
00C0
00C0
00C0
00C0
00C0
3FC0
3FC0
C0C0
C0C0
C0C0
C0C0
C0C0
C0C0
C0C0
C0C0
3FC0
3FC0
0C00
0C00
0300
0300
3C00
3C00
ENDCHAR
STARTCHAR uni1E12
ENCODING 7698
SWIDTH 500 0
DWIDTH 12 0
BBX 10 22 2 -6
BITMAP
FC00
FC00
C300
C300
C0C0
C0C0
C0C0
C0C0
C0C0
C0C0
C0C0
C0C0
C300
C300
FC00
FC00
0000
0000
0C00
0C00
3300
3300
ENDCHAR
STARTCHAR uni1E13
ENCODING 7699
SWIDTH 500 0
DWIDTH 12 0
BBX 10 24 2 -6
BITMAP
00C0
00C0
00C0
00C0
00C0
00C0
3FC0
3FC0
C0C0
C0C0
C0C0
C0C0
C0C0
C0C0
C0C0
C0C0
3FC0
3FC0
0000
0000
0C00
0C00
3300
3300
ENDCHAR
STARTCHAR uni1E14
ENCODING 7700
SWIDTH 500 0
DWIDTH 12 0
BBX 10 24 2 -4
BITMAP
3000
3000
0C00
0C00
0000
0000
3F00
3F00
0000
0000
FFC0
FFC0
C000
C000
C000
C000
FF00
FF00
C000
C000
C000
C000
FFC0
FFC0
ENDCHAR
STARTCHAR uni1E15
ENCODING 7701
SWIDTH 500 0
DWIDTH 12 0
BBX 10 22 2 -2
BITMAP
3000
3000
0C00
0C00
0000
0000
3F00
3F00
0000
0000
3F00
3F00
C0C0
C0C0
FFC0
FFC0
C000
C000
C0C0
C0C0
3F00
3F00
ENDCHAR
STARTCHAR uni1E16
ENCODING 7702
SWIDTH 500 0
DWIDTH 12 0
BBX 10 24 2 -4
BITMAP
0300
0300
0C00
0C00
0000
0000
3F00
3F00
0000
0000
FFC0
FFC0
C000
C000
C000
C000
FF00
FF00
C000
C000
C000
C000
FFC0
FFC0
ENDCHAR
STARTCHAR uni1E17
ENCODING 7703
SWIDTH 500 0
DWIDTH 12 0
BBX 10 22 2 -2
BITMAP
0300
0300
0C00
0C00
0000
0000
3F00
3F00
0000
0000
3F00
3F00
C0C0
C0C0
FFC0
FFC0
C000
C000
C0C0
C0C0
3F00
3F00
ENDCHAR
STARTCHAR uni1E18
ENCODING 7704
SWIDTH 500 0
DWIDTH 12 0
BBX 10 22 2 -6
BITMAP
FFC0
FFC0
C000
C000
C000
C000
FF00
FF00
C000
C000
C000
C000
C000
C000
FFC0
FFC0
0000
0000
0C00
0C00
3300
3300
ENDCHAR
STARTCHAR uni1E19
ENCODING 7705
SWIDTH 500 0
DWIDTH 12 0
BBX 10 18 2 -6
BITMAP
3F00
3F00
C0C0
C0C0
FFC0
FFC0
C000
C000
C0C0
C0C0
3F00
3F00
0000
0000
0C00
0C00
3300
3300
ENDCHAR
STARTCHAR uni1E1A
ENCODING 7706
SWIDTH 500 0
DWIDTH 12 0
BBX 10 22 2 -6
BITMAP
FFC0
FFC0
C000
C000
C000
C000
FF00
FF00
C000
C000
C000
C000
C000
C000
FFC0
FFC0
0000
0000
3CC0
3CC0
CF00
CF00
ENDCHAR
STARTCHAR uni1E1B
ENCODING 7707
SWIDTH 500 0
DWIDTH 12 0
BBX 10 18 2 -6
BITMAP
3F00
3F00
C0C0
C0C0
FFC0
FFC0
C000
C000
C0C0
C0C0
3F00
3F00
0000
0000
3CC0
3CC0
CF00
CF00
ENDCHAR
STARTCHAR uni1E1C
ENCODING 7708
SWIDTH 500 0
DWIDTH 12 0
BBX 10 26 2 -6
BITMAP
3300
3300
3F00
3F00
0000
0000
FFC0
FFC0
C000
C000
C000
C000
FF00
FF00
C000
C000
C000
C000
FFC0
FFC0
0C00
0C00
0300
0300
3C00
3C00
ENDCHAR
STARTCHAR uni1E1D
ENCODING 7709
SWIDTH 500 0
DWIDTH 12 0
BBX 10 24 2 -6
BITMAP
3300
3300
3F00
3F00
0000
0000
3F00
3F00
C0C0
C0C0
FFC0
FFC0
C000
C000
C0C0
C0C0
3F00
3F00
0C00
0C00
0300
0300
3C00
3C00
ENDCHAR
STARTCHAR uni1E1E
ENCODING 7710
SWIDTH 500 0
DWIDTH 12 0
BBX 10 20 2 0
BITMAP
0C00
0C00
0000
0000
FFC0
FFC0
C000
C000
C000
C000
FF00
FF00
C000
C000
C000
C000
C000
C000
C000
C000
ENDCHAR
STARTCHAR uni1E1F
ENCODING 7711
SWIDTH 500 0
DWIDTH 12 0
BBX 10 20 2 0
BITMAP
0C00
0C00
0000
0000
0FC0
0FC0
3000
3000
3000
3000
FF00
FF00
3000
3000
3000
3000
3000
3000
3000
3000
ENDCHAR
STARTCHAR uni1E20
ENCODING 7712
SWIDTH 500 0
DWIDTH 12 0
BBX 10 20 2 0
BITMAP
3F00
3F00
0000
0000
3F00
3F00
C0C0
C0C0
C000
C000
C000
C000
C3C0
C3C0
C0C0
C0C0
C0C0
C0C0
3F00
3F00
ENDCHAR
STARTCHAR uni1E21
ENCODING 7713
SWIDTH 500 0
DWIDTH 12 0
BBX 10 22 2 -6
BITMAP
3F00
3F00
0000
0000
3FC0
3FC0
C0C0
C0C0
C0C0
C0C0
C0C0
C0C0
C0C0
C0C0
3FC0
3FC0
00C0
00C0
00C0
00C0
3F00
3F00
ENDCHAR
STARTCHAR uni1E22
ENCODING 7714
SWIDTH 500 0
DWIDTH 12 0
BBX 10 20 2 0
BITMAP
0C00
0C00
0000
0000
C0C0
C0C0
C0C0
C0C0
C0C0
C0C0
FFC0
FFC0
C0C0
C0C0
C0C0
C0C0
C0C0
C0C0
C0C0
C0C0
ENDCHAR
STARTCHAR uni1E23
ENCODING 7715
SWIDTH 500 0
DWIDTH 12 0
BBX 10 20 2 0
BITMAP
0C00
0C00
C000
C000
C000
C000
C000
C000
FF00
FF00
C0C0
C0C0
C0C0
C0C0
C0C0
C0C0
C0C0
C0C0
C0C0
C0C0
ENDCHAR
STARTCHAR uni1E24
ENCODING 7716
SWIDTH 500 0
DWIDTH 12 0
BBX 10 20 2 -4
BITMAP
C0C0
C0C0
C0C0
C0C0
C0C0
C0C0
FFC0
FFC0
C0C0
C0C0
C0C0
C0C0
C0C0
C0C0
C0C0
C0C0
0000
0000
0C00
0C00
ENDCHAR
STARTCHAR uni1E25
ENCODING 7717
SWIDTH 500 0
DWIDTH 12 0
BBX 10 22 2 -4
BITMAP
C000
C000
C000
C000
C000
C000
FF00
FF00
C0C0
C0C0
C0C0
C0C0
C0C0
C0C0
C0C0
C0C0
C0C0
C0C0
0000
0000
0C00
0C00
ENDCHAR
STARTCHAR uni1E26
ENCODING 7718
SWIDTH 500 0
DWIDTH 12 0
BBX 10 20 2 0
BITMAP
3300
3300
0000
0000
C0C0
C0C0
C0C0
C0C0
C0C0
C0C0
FFC0
FFC0
C0C0
C0C0
C0C0
C0C0
C0C0
C0C0
C0C0
C0C0
ENDCHAR
STARTCHAR uni1E27
ENCODING 7719
SWIDTH 500 0
DWIDTH 12 0
BBX 10 20 2 0
BITMAP
3300
3300
0000
0000
C000
C000
C000
C000
FF00
FF00
C0C0
C0C0
C0C0
C0C0
C0C0
C0C0
C0C0
C0C0
C0C0
C0C0
ENDCHAR
STARTCHAR uni1E28
ENCODING 7720
SWIDTH 500 0
DWIDTH 12 0
BBX 12 20 0 -4
BITMAP
3030
3030
3030
3030
3030
3030
3FF0
3FF0
3030
3030
3030
3030
3030
3030
3030
3030
0C00
0C00
F000
F000
ENDCHAR
STARTCHAR uni1E29
ENCODING 7721
SWIDTH 500 0
DWIDTH 12 0
BBX 12 22 0 -4
BITMAP
3000
3000
3000
3000
3000
3000
3FC0
3FC0
3030
3030
3030
3030
3030
3030
3030
3030
3030
3030
0C00
0C00
F000
F000
ENDCHAR
STARTCHAR uni1E2A
ENCODING 7722
SWIDTH 500 0
DWIDTH 12 0
BBX 10 22 2 -6
BITMAP
C0C0
C0C0
C0C0
C0C0
C0C0
C0C0
FFC0
FFC0
C0C0
C0C0
C0C0
C0C0
C0C0
C0C0
C0C0
C0C0
0000
0000
3300
3300
3F00
3F00
ENDCHAR
STARTCHAR uni1E2B
ENCODING 7723
SWIDTH 500 0
DWIDTH 12 0
BBX 10 24 2 -6
BITMAP
C000
C000
C000
C000
C000
C000
FF00
FF00
C0C0
C0C0
C0C0
C0C0
C0C0
C0C0
C0C0
C0C0
C0C0
C0C0
0000
0000
3300
3300
3F00
3F00
ENDCHAR
STARTCHAR uni1E2C
ENCODING 7724
SWIDTH 500 0
DWIDTH 12 0
BBX 10 22 2 -6
BITMAP
3F00
3F00
0C00
0C00
0C00
0C00
0C00
0C00
0C00
0C00
0C00
0C00
0C00
0C00
3F00
3F00
0000
0000
3CC0
3CC0
CF00
CF00
ENDCHAR
STARTCHAR uni1E2D
ENCODING 7725
SWIDTH 500 0
DWIDTH 12 0
BBX 10 22 2 -6
BITMAP
0C00
0C00
0000
0000
3C00
3C00
0C00
0C00
0C00
0C00
0C00
0C00
0C00
0C00
03C0
03C0
0000
0000
3CC0
3CC0
CF00
CF00
ENDCHAR
STARTCHAR uni1E2E
ENCODING 7726
SWIDTH 500 0
DWIDTH 12 0
BBX 6 20 4 0
BITMAP
0C00
0C00
3000
3000
0000
0000
CC00
CC00
0000
0000
FC00
FC00
3000
3000
3000
3000
3000
3000
FC00
FC00
ENDCHAR
STARTCHAR uni1E2F
ENCODING 7727
SWIDTH 500 0
DWIDTH 12 0
BBX 8 20 4 0
BITMAP
0C00
0C00
3000
3000
0000
0000
CC00
CC00
0000
0000
F000
F000
3000
3000
3000
3000
3000
3000
0F00
0F00
ENDCHAR
ENDFONT
